SplineFontDB: 3.0
FontName: ModernAntiqua-Bold
FullName: Modern Antiqua Bold
FamilyName: Modern Antiqua
Weight: Bold
Copyright: Copyright (c) 2020-2024 by Wojciech Kalinowski "wmk69" with Reserved Font Name "ModernAntiqua-Bold".\nThis Font Software is licensed under the SIL Open Font License, Version 1.1.
Version: 3.1.0; 2021-05-28
ItalicAngle: 0
UnderlinePosition: -80
UnderlineWidth: 320
Ascent: 1638
Descent: 410
InvalidEm: 0
LayerCount: 2
Layer: 0 1 "Warstwa t+AUIA-a" 1
Layer: 1 1 "Plan pierwszy" 0
XUID: [1021 783 23647091 7762759]
StyleMap: 0x0020
FSType: 0
OS2Version: 3
OS2_WeightWidthSlopeOnly: 0
OS2_UseTypoMetrics: 1
CreationTime: 1260698820
ModificationTime: 1622218648
PfmFamily: 17
TTFWeight: 700
TTFWidth: 5
LineGap: 300
VLineGap: 0
Panose: 2 5 8 3 6 5 5 6 4 4
OS2TypoAscent: 1950
OS2TypoAOffset: 0
OS2TypoDescent: -537
OS2TypoDOffset: 0
OS2TypoLinegap: 300
OS2WinAscent: 1950
OS2WinAOffset: 0
OS2WinDescent: 537
OS2WinDOffset: 0
HheadAscent: 1950
HheadAOffset: 0
HheadDescent: -537
HheadDOffset: 0
OS2SubXSize: 1434
OS2SubYSize: 1331
OS2SubXOff: 0
OS2SubYOff: 287
OS2SupXSize: 1434
OS2SupYSize: 1331
OS2SupXOff: 0
OS2SupYOff: 977
OS2StrikeYSize: 102
OS2StrikeYPos: 512
OS2CapHeight: 1510
OS2XHeight: 1100
OS2Vendor: '    '
OS2CodePages: 20000093.00000000
OS2UnicodeRanges: 8000002f.4000204b.00000000.00000000
Lookup: 258 0 0 "'kern' Horizontal Kerning lookup 0" { "'kern' Horizontal Kerning lookup 0-1 subtable" [307,0,4] } ['kern' ('DFLT' <'dflt' > 'grek' <'dflt' > 'latn' <'dflt' > ) ]
MarkAttachClasses: 1
DEI: 91125
KernClass2: 69 55 "'kern' Horizontal Kerning lookup 0-1 subtable"
 84 A Agrave Aacute Acircumflex Atilde Adieresis Aring Amacron Abreve Aogonek Aringacute
 28 B germandbls uni1E02 uni1E9E
 47 C Ccedilla Cacute Ccircumflex Cdotaccent Ccaron
 122 D O Q Eth Ograve Oacute Ocircumflex Otilde Odieresis Oslash Dcaron Dcroat Omacron Obreve Ohungarumlaut Oslashacute uni1E0A

StartChar: .notdef
Encoding: 65536 -1 0
Width: 1014
Flags: W
HStem: 0 118<288 726> 1392 118<288 726>
VStem: 100 188<118 1392> 726 188<118 1392>
LayerCount: 2
Fore
SplineSet
100 0 m 5,0,-1
 100 1510 l 5,1,-1
 914 1510 l 5,2,-1
 914 0 l 5,3,-1
 100 0 l 5,0,-1
288 118 m 5,4,-1
 726 118 l 5,5,-1
 726 1392 l 5,6,-1
 288 1392 l 5,7,-1
 288 118 l 5,4,-1
EndSplineSet
Validated: 1
EndChar

StartChar: exclam
Encoding: 33 33 4
Width: 664
GlyphClass: 2
Flags: W
HStem: -20 370<213.14 450.86> 1510 20G<294 370>
VStem: 150 364<42.5779 287.422 1015.31 1467.42>
LayerCount: 2
Fore
SplineSet
332 -20 m 128,-1,1
 256 -20 256 -20 203 34 c 128,-1,2
 150 88 150 88 150 165 c 128,-1,3
 150 242 150 242 203 296 c 128,-1,4
 256 350 256 350 332 350 c 128,-1,5
 408 350 408 350 461 296 c 128,-1,6
 514 242 514 242 514 165 c 128,-1,7
 514 88 514 88 461 34 c 128,-1,0
 408 -20 408 -20 332 -20 c 128,-1,1
332 1530 m 128,-1,9
 408 1530 408 1530 461 1476 c 128,-1,10
 514 1422 514 1422 514 1345 c 0,11,12
 514 1331 514 1331 513 1324 c 2,13,-1
 390 426 l 1,14,-1
 274 426 l 1,15,-1
 151 1324 l 2,16,17
 150 1331 150 1331 150 1345 c 0,18,19
 150 1422 150 1422 203 1476 c 128,-1,8
 256 1530 256 1530 332 1530 c 128,-1,9
EndSplineSet
Validated: 1
EndChar

StartChar: quotedbl
Encoding: 34 34 5
Width: 741
GlyphClass: 2
Flags: W
HStem: 1125 425<132 293.022 471 632.022>
VStem: 132 220<1196.28 1500.91> 471 220<1196.28 1500.91>
LayerCount: 2
Fore
SplineSet
389 1550 m 1,0,1
 635 1550 l 1,2,3
 691 1470 691 1470 691 1379 c 0,4,5
 691 1251 691 1251 605 1125 c 1,6,-1
 419 1125 l 1,7,8
 471 1234 471 1234 471 1343 c 0,9,10
 471 1460 471 1460 389 1550 c 1,0,1
50 1550 m 1,11,-1
 296 1550 l 1,12,13
 352 1470 352 1470 352 1379 c 0,14,15
 352 1251 352 1251 266 1125 c 1,16,-1
 80 1125 l 1,17,18
 132 1234 132 1234 132 1343 c 0,19,20
 132 1460 132 1460 50 1550 c 1,11,-1
EndSplineSet
Validated: 1
EndChar

StartChar: numbersign
Encoding: 35 35 6
Width: 1392
GlyphClass: 2
Flags: W
HStem: 501 162<241 444 606 786 948 1151> 843 162<241 444 606 786 948 1151>
VStem: 444 162<298 501 663 843 1005 1208> 786 162<298 501 663 843 1005 1208>
LayerCount: 2
Fore
SplineSet
606 1299 m 1,0,-1
 606 1005 l 1,1,-1
 786 1005 l 1,2,-1
 786 1208 l 1,3,-1
 948 1299 l 1,4,-1
 948 1005 l 1,5,-1
 1242 1005 l 1,6,-1
 1151 843 l 1,7,-1
 948 843 l 1,8,-1
 948 663 l 1,9,-1
 1242 663 l 1,10,-1
 1151 501 l 1,11,-1
 948 501 l 1,12,-1
 948 298 l 1,13,-1
 786 207 l 1,14,-1
 786 501 l 1,15,-1
 606 501 l 1,16,-1
 606 298 l 1,17,-1
 444 207 l 1,18,-1
 444 501 l 1,19,-1
 150 501 l 1,20,-1
 241 663 l 1,21,-1
 444 663 l 1,22,-1
 444 843 l 1,23,-1
 150 843 l 1,24,-1
 241 1005 l 1,25,-1
 444 1005 l 1,26,-1
 444 1208 l 1,27,-1
 606 1299 l 1,0,-1
606 663 m 1,28,-1
 786 663 l 1,29,-1
 786 843 l 1,30,-1
 606 843 l 1,31,-1
 606 663 l 1,28,-1
EndSplineSet
Validated: 1
EndChar

StartChar: dollar
Encoding: 36 36 7
Width: 1321
GlyphClass: 2
Flags: W
HStem: -20 122<382.969 630> 1406 108<760 873.203> 1510 20G<1024.5 1059>
VStem: 70 15<550.616 585> 172 308<1120.55 1325.46> 630 130<-76 -20 134 636 1047 1406 1530 1586> 927 324<266.566 537.565> 1044 15<1058 1088.71>
LayerCount: 2
Fore
SplineSet
630 -20 m 1,0,1
 444 -17 444 -17 304 53 c 0,2,3
 254 78 254 78 218 78 c 0,4,5
 136 78 136 78 85 -20 c 1,6,-1
 70 -20 l 1,7,-1
 70 585 l 1,8,-1
 85 585 l 1,9,10
 126 361 126 361 248 238 c 0,11,12
 383 102 383 102 606 102 c 0,13,14
 618 102 618 102 630 103 c 1,15,-1
 630 694 l 1,16,-1
 468 762 l 2,17,18
 172 886 172 886 172 1147 c 0,19,20
 172 1316 172 1316 300 1429 c 0,21,22
 416 1530 416 1530 630 1530 c 1,23,-1
 630 1586 l 1,24,-1
 760 1660 l 1,25,-1
 760 1514 l 1,26,27
 796 1505 796 1505 828 1492 c 0,28,29
 883 1469 883 1469 932 1469 c 0,30,31
 1005 1469 1005 1469 1044 1530 c 1,32,-1
 1059 1530 l 1,33,-1
 1059 1058 l 1,34,-1
 1044 1058 l 1,35,36
 1015 1201 1015 1201 942 1296 c 0,37,38
 873 1386 873 1386 760 1406 c 1,39,-1
 760 991 l 1,40,-1
 905 929 l 2,41,42
 1251 781 1251 781 1251 470 c 0,43,44
 1251 259 1251 259 1092 120 c 0,45,46
 966 9 966 9 760 -14 c 1,47,-1
 760 -76 l 1,48,-1
 630 -150 l 1,49,-1
 630 -20 l 1,0,1
760 134 m 1,50,51
 781 144 781 144 800 158 c 0,52,53
 927 251 927 251 927 408 c 0,54,55
 927 549 927 549 760 636 c 1,56,-1
 760 134 l 1,50,51
630 1407 m 1,57,58
 573 1396 573 1396 537 1363 c 0,59,60
 480 1310 480 1310 480 1230 c 0,61,62
 480 1115 480 1115 630 1047 c 1,63,-1
 630 1407 l 1,57,58
EndSplineSet
Validated: 1
EndChar

StartChar: percent
Encoding: 37 37 8
Width: 1728
GlyphClass: 2
Flags: W
HStem: -20 115<1179.81 1352.19> 583 115<1179.32 1352.23> 812 115<375.767 548.679> 1415 115<375.807 548.193>
VStem: 100 222<993.835 1348.18> 602 222<993.511 1348.32> 904 222<161.676 516.489> 1406 222<161.819 516.165>
DStem2: 301 77 508 -40 0.529639 0.848223<10.3932 1736.17>
LayerCount: 2
Fore
SplineSet
1266 -20 m 128,-1,1
 1130 -20 1130 -20 1026 66 c 0,2,3
 904 166 904 166 904 340 c 0,4,5
 904 512 904 512 1026 612 c 0,6,7
 1129 698 1129 698 1265.5 698 c 128,-1,8
 1402 698 1402 698 1506 612 c 0,9,10
 1628 511 1628 511 1628 339 c 128,-1,11
 1628 167 1628 167 1506 66 c 0,12,0
 1402 -20 1402 -20 1266 -20 c 128,-1,1
1266 95 m 128,-1,14
 1327 95 1327 95 1369 162 c 0,15,16
 1406 221 1406 221 1406 339 c 0,17,18
 1406 456 1406 456 1369 516 c 0,19,20
 1328 583 1328 583 1266 583 c 128,-1,21
 1204 583 1204 583 1163 516 c 0,22,23
 1126 456 1126 456 1126 339 c 128,-1,24
 1126 222 1126 222 1163 162 c 0,25,13
 1205 95 1205 95 1266 95 c 128,-1,14
462 1530 m 128,-1,27
 598 1530 598 1530 702 1444 c 0,28,29
 824 1344 824 1344 824 1170 c 0,30,31
 824 998 824 998 702 898 c 0,32,33
 599 812 599 812 462.5 812 c 128,-1,34
 326 812 326 812 222 898 c 0,35,36
 100 999 100 999 100 1171 c 128,-1,37
 100 1343 100 1343 222 1444 c 0,38,26
 326 1530 326 1530 462 1530 c 128,-1,27
462 1415 m 128,-1,40
 401 1415 401 1415 359 1348 c 0,41,42
 322 1289 322 1289 322 1171 c 0,43,44
 322 1054 322 1054 359 994 c 0,45,46
 400 927 400 927 462 927 c 128,-1,47
 524 927 524 927 565 994 c 0,48,49
 602 1054 602 1054 602 1171 c 128,-1,50
 602 1288 602 1288 565 1348 c 0,51,39
 523 1415 523 1415 462 1415 c 128,-1,40
508 -40 m 1,52,-1
 301 77 l 1,53,-1
 1220 1550 l 1,54,-1
 1434 1443 l 1,55,-1
 508 -40 l 1,52,-1
EndSplineSet
Validated: 1
EndChar

StartChar: quotesingle
Encoding: 39 39 9
Width: 402
GlyphClass: 2
Flags: W
HStem: 1125 425<-114 47.022>
VStem: 132 220<1196.28 1500.91>
LayerCount: 2
Fore
SplineSet
50 1550 m 1,0,1
 296 1550 l 1,2,3
 352 1470 352 1470 352 1379 c 0,4,5
 352 1251 352 1251 266 1125 c 1,6,-1
 80 1125 l 1,7,8
 132 1234 132 1234 132 1343 c 0,9,10
 132 1460 132 1460 50 1550 c 1,0,1
EndSplineSet
Validated: 1
EndChar

StartChar: parenleft
Encoding: 40 40 10
Width: 658
GlyphClass: 2
Flags: W
VStem: 140 302<372.212 1137.95>
LayerCount: 2
Fore
SplineSet
531 1730 m 1,0,1
 638 1673 l 1,2,3
 524 1481 524 1481 483 1235 c 128,-1,4
 442 989 442 989 442 755 c 0,5,6
 442 522 442 522 483 275 c 0,7,8
 524 29 524 29 638 -163 c 1,9,-1
 531 -220 l 1,10,11
 338 -16 338 -16 239 211 c 128,-1,12
 140 438 140 438 140 755 c 128,-1,13
 140 1072 140 1072 239 1299 c 128,-1,14
 338 1526 338 1526 531 1730 c 1,0,1
EndSplineSet
Validated: 1
EndChar

StartChar: parenright
Encoding: 41 41 11
Width: 658
GlyphClass: 2
Flags: W
VStem: 216 302<372.212 1137.79>
LayerCount: 2
Fore
SplineSet
127 1730 m 1,0,1
 320 1526 320 1526 419 1299 c 128,-1,2
 518 1072 518 1072 518 755 c 128,-1,3
 518 438 518 438 419 211 c 128,-1,4
 320 -16 320 -16 127 -220 c 1,5,-1
 20 -163 l 1,6,7
 134 29 134 29 175 275 c 0,8,9
 216 522 216 522 216 755 c 128,-1,10
 216 988 216 988 175 1235 c 0,11,12
 134 1481 134 1481 20 1673 c 1,13,-1
 127 1730 l 1,0,1
EndSplineSet
Validated: 1
EndChar

StartChar: asterisk
Encoding: 42 42 12
Width: 1129
GlyphClass: 2
Flags: W
LayerCount: 2
Fore
SplineSet
555 1669 m 1,0,-1
 569 1669 l 1,1,-1
 665 1337 l 1,2,-1
 819 1409 l 1,3,-1
 747 1262 l 1,4,-1
 1079 1164 l 1,5,-1
 1079 1150 l 1,6,-1
 747 1054 l 1,7,-1
 819 900 l 1,8,-1
 672 972 l 1,9,-1
 574 640 l 1,10,-1
 560 640 l 1,11,-1
 464 972 l 1,12,-1
 310 900 l 1,13,-1
 382 1047 l 1,14,-1
 50 1145 l 1,15,-1
 50 1159 l 1,16,-1
 382 1255 l 1,17,-1
 310 1409 l 1,18,-1
 457 1337 l 1,19,-1
 555 1669 l 1,0,-1
EndSplineSet
Validated: 1
EndChar

StartChar: plus
Encoding: 43 43 13
Width: 1273
GlyphClass: 2
Flags: W
HStem: 649 211<219 531 742 1054>
VStem: 531 211<337 649 860 1172>
LayerCount: 2
Fore
SplineSet
742 1291 m 1,0,-1
 742 860 l 1,1,-1
 1173 860 l 1,2,-1
 1054 649 l 1,3,-1
 742 649 l 1,4,-1
 742 337 l 1,5,-1
 531 218 l 1,6,-1
 531 649 l 1,7,-1
 100 649 l 1,8,-1
 219 860 l 1,9,-1
 531 860 l 1,10,-1
 531 1172 l 1,11,-1
 742 1291 l 1,0,-1
EndSplineSet
Validated: 1
EndChar

StartChar: comma
Encoding: 44 44 14
Width: 484
GlyphClass: 2
Flags: W
HStem: -236 31<6 34.2969>
VStem: 41 393<40.4138 269.728>
LayerCount: 2
Fore
SplineSet
232 351 m 0,0,1
 314 351 314 351 369 294 c 0,2,3
 434 227 434 227 434 118 c 0,4,5
 434 -4 434 -4 350 -103 c 0,6,7
 236 -236 236 -236 6 -236 c 1,8,-1
 6 -205 l 1,9,10
 93 -169 93 -169 153 -117 c 0,11,12
 200 -75 200 -75 223 -19 c 1,13,14
 144 -19 144 -19 92 33 c 0,15,16
 41 84 41 84 41 164 c 0,17,18
 41 243 41 243 93 297 c 128,-1,19
 145 351 145 351 232 351 c 0,0,1
EndSplineSet
Validated: 1
EndChar

StartChar: hyphen
Encoding: 45 45 15
Width: 1273
GlyphClass: 2
Flags: W
HStem: 649 211<219 1054>
LayerCount: 2
Fore
SplineSet
219 860 m 1,0,-1
 1173 860 l 1,1,-1
 1054 649 l 1,2,-1
 100 649 l 1,3,-1
 219 860 l 1,0,-1
EndSplineSet
Validated: 1
EndChar

StartChar: period
Encoding: 46 46 16
Width: 464
GlyphClass: 2
Flags: W
HStem: -20 370<113.14 350.86>
VStem: 50 364<42.5779 287.422>
LayerCount: 2
Fore
SplineSet
232 -20 m 128,-1,1
 156 -20 156 -20 103 34 c 128,-1,2
 50 88 50 88 50 165 c 128,-1,3
 50 242 50 242 103 296 c 128,-1,4
 156 350 156 350 232 350 c 128,-1,5
 308 350 308 350 361 296 c 128,-1,6
 414 242 414 242 414 165 c 128,-1,7
 414 88 414 88 361 34 c 128,-1,0
 308 -20 308 -20 232 -20 c 128,-1,1
EndSplineSet
Validated: 1
EndChar

StartChar: slash
Encoding: 47 47 17
Width: 1137
GlyphClass: 2
Flags: W
DStem2: 10 -30 239 -150 0.46278 0.886473<0 1906.77>
LayerCount: 2
Fore
SplineSet
893 1660 m 1,0,-1
 1127 1551 l 1,1,-1
 239 -150 l 1,2,-1
 10 -30 l 1,3,-1
 893 1660 l 1,0,-1
EndSplineSet
Validated: 1
EndChar

StartChar: zero
Encoding: 48 48 18
Width: 1540
GlyphClass: 2
Flags: W
HStem: -20 122<626.522 913.673> 1408 122<626.798 913.906>
VStem: 70 348<450.566 1059.68> 1122 348<450.815 1058.45>
LayerCount: 2
Fore
SplineSet
770 102 m 128,-1,1
 900 102 900 102 997 221 c 0,2,3
 1122 375 1122 375 1122 755 c 0,4,5
 1122 1134 1122 1134 997 1289 c 0,6,7
 900 1408 900 1408 770.5 1408 c 128,-1,8
 641 1408 641 1408 543 1289 c 0,9,10
 418 1137 418 1137 418 755 c 0,11,12
 418 374 418 374 543 221 c 0,13,0
 640 102 640 102 770 102 c 128,-1,1
770 -20 m 0,14,15
 492 -20 492 -20 312 142 c 0,16,17
 70 360 70 360 70 755 c 128,-1,18
 70 1150 70 1150 312 1368 c 0,19,20
 492 1530 492 1530 770 1530 c 0,21,22
 1050 1530 1050 1530 1228 1368 c 0,23,24
 1470 1148 1470 1148 1470 755 c 0,25,26
 1470 360 1470 360 1228 142 c 0,27,28
 1049 -20 1049 -20 770 -20 c 0,14,15
EndSplineSet
Validated: 1
EndChar

StartChar: one
Encoding: 49 49 19
Width: 680
GlyphClass: 2
Flags: W
HStem: 0 15<10 30.5859 649.414 670>
VStem: 180 320<96.25 1149.25>
LayerCount: 2
Fore
SplineSet
10 0 m 1,0,1
 10 9 10 9 10 15 c 1,2,3
 180 60 180 60 180 250 c 2,4,-1
 180 995 l 2,5,6
 180 1186 180 1186 10 1230 c 1,7,8
 10 1245 l 1,9,10
 303 1342 303 1342 485 1550 c 1,11,-1
 500 1550 l 1,12,-1
 500 250 l 2,13,14
 500 59 500 59 670 15 c 1,15,-1
 670 0 l 1,16,-1
 10 0 l 1,0,1
EndSplineSet
Validated: 1
EndChar

StartChar: two
Encoding: 50 50 20
Width: 1381
GlyphClass: 2
Flags: W
HStem: -20 300<808.091 1061.53> 70 293<318.892 684.389> 1408 122<412.195 744.042>
VStem: 154 15<995 1011.64> 859 350<919.182 1276.65>
LayerCount: 2
Fore
SplineSet
100 -20 m 1,0,1
 174 274 174 274 328 444 c 128,-1,2
 482 614 482 614 670.5 757 c 128,-1,3
 859 900 859 900 859 1099 c 0,4,5
 859 1210 859 1210 821 1279 c 0,6,7
 750 1408 750 1408 585 1408 c 128,-1,8
 420 1408 420 1408 325 1288 c 0,9,10
 236 1174 236 1174 169 995 c 1,11,-1
 154 995 l 1,12,-1
 154 1335 l 1,13,14
 342 1530 342 1530 659 1530 c 0,15,16
 915 1530 915 1530 1060 1407 c 0,17,18
 1209 1282 1209 1282 1209 1073 c 0,19,20
 1209 818 1209 818 950 687 c 0,21,22
 790 606 790 606 604 488 c 0,23,24
 480 409 480 409 374 279 c 1,25,26
 506 363 506 363 601 363 c 128,-1,27
 696 363 696 363 807 325 c 0,28,29
 938 280 938 280 1019 280 c 0,30,31
 1157 280 1157 280 1266 378 c 1,32,-1
 1281 378 l 1,33,34
 1149 -20 1149 -20 924 -20 c 0,35,36
 809 -20 809 -20 662 33 c 0,37,38
 560 70 560 70 402 70 c 0,39,40
 222 70 222 70 115 -20 c 1,41,-1
 100 -20 l 1,0,1
EndSplineSet
Validated: 1
EndChar

StartChar: three
Encoding: 51 51 21
Width: 1232
GlyphClass: 2
Flags: W
HStem: -20 122<282.813 635.633> 1408 122<322.997 616.716>
VStem: 80 15<392.745 411> 166 15<1145 1168.06> 689 312<1028.65 1333.55> 792 340<275.598 666.23>
LayerCount: 2
Fore
SplineSet
530 -20 m 0,0,1
 263 -20 263 -20 80 100 c 1,2,-1
 80 411 l 1,3,-1
 95 411 l 1,4,5
 133 312 133 312 175 248 c 0,6,7
 270 102 270 102 465 102 c 24,8,9
 617 102 617 102 703 205 c 0,10,11
 792 312 792 312 792 482 c 0,12,13
 792 658 792 658 675 749 c 0,14,15
 576 826 576 826 416 843 c 1,16,-1
 416 874 l 1,17,18
 555 917 555 917 622 990 c 0,19,20
 689 1064 689 1064 689 1175 c 0,21,22
 689 1283 689 1283 637 1344 c 0,23,24
 583 1408 583 1408 480 1408 c 0,25,26
 374 1408 374 1408 308 1352 c 0,27,28
 212 1270 212 1270 181 1145 c 1,29,-1
 166 1145 l 1,30,-1
 166 1413 l 1,31,32
 328 1530 328 1530 540 1530 c 128,-1,33
 752 1530 752 1530 877 1434 c 0,34,35
 1001 1340 1001 1340 1001 1187 c 0,36,37
 1001 997 1001 997 799 894 c 1,38,39
 900 867 900 867 974 809 c 0,40,41
 1132 685 1132 685 1132 470 c 0,42,43
 1132 252 1132 252 961 112 c 24,44,45
 800 -20 800 -20 530 -20 c 0,0,1
EndSplineSet
Validated: 1
EndChar

StartChar: four
Encoding: 52 52 22
Width: 1235
GlyphClass: 2
Flags: W
HStem: 0 15<557 577.586 1196.41 1217> 345 120<269 727 1047 1158>
VStem: 727 320<96.75 345 465 997>
DStem2: 5 360 269 465 0.653355 0.757052<251.976 953.964>
LayerCount: 2
Fore
SplineSet
557 0 m 1,0,-1
 557 15 l 1,1,2
 727 61 727 61 727 250 c 2,3,-1
 727 345 l 1,4,-1
 5 345 l 1,5,-1
 5 360 l 1,6,-1
 1032 1550 l 1,7,-1
 1047 1550 l 1,8,-1
 1047 465 l 1,9,-1
 1225 465 l 1,10,-1
 1158 345 l 1,11,-1
 1047 345 l 1,12,-1
 1047 250 l 2,13,14
 1047 59 1047 59 1217 15 c 1,15,-1
 1217 0 l 1,16,-1
 557 0 l 1,0,-1
727 465 m 1,17,-1
 727 997 l 1,18,-1
 269 465 l 1,19,-1
 727 465 l 1,17,-1
EndSplineSet
Validated: 1
EndChar

StartChar: five
Encoding: 53 53 23
Width: 1222
GlyphClass: 2
Flags: W
HStem: -20 121<273.677 627.671> 795 125<459.603 648.039> 1289 221<551.016 857.625>
VStem: 70 15<391.745 410> 787 335<272.088 645.792>
LayerCount: 2
Fore
SplineSet
520 -20 m 0,0,1
 253 -20 253 -20 70 100 c 1,2,-1
 70 410 l 1,3,-1
 85 410 l 1,4,5
 123 311 123 311 165 247 c 0,6,7
 261 101 261 101 461 101 c 0,8,9
 617 101 617 101 706 214 c 0,10,11
 787 317 787 317 787 469 c 0,12,13
 787 612 787 612 693 714 c 0,14,15
 617 795 617 795 497 795 c 0,16,17
 402 795 402 795 336 748 c 1,18,-1
 119 895 l 1,19,-1
 286 1510 l 1,20,-1
 1074 1510 l 1,21,22
 983 1289 983 1289 750 1289 c 0,23,24
 579 1289 579 1289 457 1394 c 1,25,-1
 457 920 l 1,26,27
 517 927 517 927 575 927 c 0,28,29
 810 927 810 927 968 805 c 0,30,31
 1122 685 1122 685 1122 470 c 0,32,33
 1122 253 1122 253 951 112 c 0,34,35
 791 -20 791 -20 520 -20 c 0,0,1
EndSplineSet
Validated: 1
EndChar

StartChar: six
Encoding: 54 54 24
Width: 1385
GlyphClass: 2
Flags: W
HStem: -20 121<573.334 822.627> 923 123<572.404 822.964> 1408 122<636.107 957.92>
VStem: 100 351<390.534 772.089> 945 340<297.227 729.38> 1151 15<1140 1148.31>
LayerCount: 2
Fore
SplineSet
698 923 m 128,-1,1
 576 923 576 923 508 799 c 0,2,3
 451 695 451 695 451 514 c 0,4,5
 451 326 451 326 508 225 c 0,6,7
 578 101 578 101 698 101 c 128,-1,8
 818 101 818 101 888 225 c 0,9,10
 945 326 945 326 945 514 c 0,11,12
 945 695 945 695 888 799 c 0,13,0
 820 923 820 923 698 923 c 128,-1,1
716 -20 m 0,14,15
 459 -20 459 -20 317 113 c 0,16,17
 100 316 100 316 100 706 c 0,18,19
 100 1139 100 1139 319 1363 c 0,20,21
 482 1530 482 1530 779 1530 c 0,22,23
 1006 1530 1006 1530 1166 1434 c 1,24,-1
 1166 1140 l 1,25,-1
 1151 1140 l 1,26,27
 1019 1408 1019 1408 782 1408 c 0,28,29
 639 1408 639 1408 556 1283 c 0,30,31
 474 1161 474 1161 451 979 c 1,32,33
 571 1046 571 1046 714 1046 c 0,34,35
 972 1046 972 1046 1130 888 c 0,36,37
 1285 733 1285 733 1285 512.5 c 128,-1,38
 1285 292 1285 292 1132 141 c 0,39,40
 969 -20 969 -20 716 -20 c 0,14,15
EndSplineSet
Validated: 1
EndChar

StartChar: seven
Encoding: 55 55 25
Width: 1181
GlyphClass: 2
Flags: W
HStem: -4 21G<334 682.5> 1157 275<661.041 964.638> 1222 300<253.915 544.545>
VStem: 298 326<200.958 603.562>
LayerCount: 2
Fore
SplineSet
334 0 m 1,0,1
 298 168 298 168 298 323 c 0,2,3
 298 602 298 602 437 775 c 0,4,5
 547 913 547 913 655 1003 c 0,6,-1
 865 1187 l 1,7,8
 765 1157 765 1157 688 1157 c 128,-1,9
 611 1157 611 1157 518 1185 c 0,10,11
 392 1222 392 1222 312 1222 c 0,12,13
 132 1222 132 1222 25 1132 c 1,14,-1
 10 1132 l 1,15,16
 141 1522 141 1522 426 1522 c 0,17,18
 547 1522 547 1522 661 1477 c 128,-1,19
 775 1432 775 1432 909 1432 c 0,20,21
 1047 1432 1047 1432 1156 1530 c 1,22,-1
 1171 1530 l 1,23,24
 1082 1246 1082 1246 918 1069 c 0,25,26
 825 968 825 968 769 896 c 0,27,28
 624 711 624 711 624 488 c 0,29,30
 624 271 624 271 741 -4 c 1,31,-1
 334 0 l 1,0,1
EndSplineSet
Validated: 1
EndChar

StartChar: eight
Encoding: 56 56 26
Width: 1265
GlyphClass: 2
Flags: W
HStem: -20 122<450.992 772.436> 1408 122<535.729 767.427>
VStem: 70 240<254.248 587.126> 193 293<1088.19 1336.98> 831 240<1040.06 1343.76> 894 301<265.591 521.014>
LayerCount: 2
Fore
SplineSet
661 1408 m 0,0,1
 570 1408 570 1408 526 1354 c 0,2,3
 486 1305 486 1305 486 1218 c 0,4,5
 486 1083 486 1083 633 1000 c 2,6,-1
 713 955 l 1,7,8
 831 1058 831 1058 831 1182 c 0,9,10
 831 1280 831 1280 793 1335 c 0,11,12
 742 1408 742 1408 661 1408 c 0,0,1
626 -20 m 0,13,14
 364 -20 364 -20 217 113 c 128,-1,15
 70 246 70 246 70 430 c 0,16,17
 70 693 70 693 390 810 c 1,18,19
 193 945 193 945 193 1154 c 0,20,21
 193 1335 193 1335 325 1435 c 0,22,23
 451 1530 451 1530 647 1530 c 0,24,25
 842 1530 842 1530 950 1439 c 0,26,27
 1071 1337 1071 1337 1071 1183 c 0,28,29
 1071 974 1071 974 873 873 c 1,30,31
 1195 729 1195 729 1195 462 c 0,32,33
 1195 263 1195 263 1041 120 c 24,34,35
 890 -20 890 -20 626 -20 c 0,13,14
610 102 m 0,36,37
 746 102 746 102 823 191 c 0,38,39
 894 273 894 273 894 381 c 0,40,41
 894 532 894 532 736 618 c 2,42,-1
 522 735 l 1,43,44
 310 623 310 623 310 427 c 0,45,46
 310 302 310 302 387 204 c 0,47,48
 467 102 467 102 610 102 c 0,36,37
EndSplineSet
Validated: 1
EndChar

StartChar: nine
Encoding: 57 57 27
Width: 1385
GlyphClass: 2
Flags: W
HStem: -20 122<427.08 748.893> 464 123<562.036 812.596> 1409 121<562.507 811.913>
VStem: 100 340<780.675 1212.58> 219 15<361.69 370> 934 351<737.911 1119.47>
LayerCount: 2
Fore
SplineSet
687 587 m 128,-1,1
 809 587 809 587 877 711 c 0,2,3
 934 815 934 815 934 996 c 0,4,5
 934 1184 934 1184 877 1285 c 0,6,7
 807 1409 807 1409 687 1409 c 128,-1,8
 567 1409 567 1409 497 1285 c 0,9,10
 440 1184 440 1184 440 996 c 0,11,12
 440 815 440 815 497 711 c 0,13,0
 565 587 565 587 687 587 c 128,-1,1
606 -20 m 0,14,15
 379 -20 379 -20 219 76 c 1,16,-1
 219 370 l 1,17,-1
 234 370 l 1,18,19
 366 102 366 102 603 102 c 0,20,21
 746 102 746 102 829 227 c 0,22,23
 911 349 911 349 934 531 c 1,24,25
 814 464 814 464 671 464 c 0,26,27
 413 464 413 464 255 622 c 0,28,29
 100 777 100 777 100 998 c 0,30,31
 100 1217 100 1217 253 1369 c 0,32,33
 415 1530 415 1530 670 1530 c 0,34,35
 926 1530 926 1530 1068 1397 c 0,36,37
 1285 1194 1285 1194 1285 804 c 0,38,39
 1285 371 1285 371 1066 147 c 0,40,41
 903 -20 903 -20 606 -20 c 0,14,15
EndSplineSet
Validated: 1
EndChar

StartChar: colon
Encoding: 58 58 28
Width: 464
GlyphClass: 2
Flags: W
HStem: -19 370<113.14 350.86> 569 370<113.14 350.86>
VStem: 50 364<43.5779 288.422 631.578 876.422>
LayerCount: 2
Fore
SplineSet
232 939 m 128,-1,1
 308 939 308 939 361 885 c 128,-1,2
 414 831 414 831 414 754 c 128,-1,3
 414 677 414 677 361 623 c 128,-1,4
 308 569 308 569 232 569 c 128,-1,5
 156 569 156 569 103 623 c 128,-1,6
 50 677 50 677 50 754 c 128,-1,7
 50 831 50 831 103 885 c 128,-1,0
 156 939 156 939 232 939 c 128,-1,1
232 -19 m 128,-1,9
 156 -19 156 -19 103 35 c 128,-1,10
 50 89 50 89 50 166 c 128,-1,11
 50 243 50 243 103 297 c 128,-1,12
 156 351 156 351 232 351 c 128,-1,13
 308 351 308 351 361 297 c 128,-1,14
 414 243 414 243 414 166 c 128,-1,15
 414 89 414 89 361 35 c 128,-1,8
 308 -19 308 -19 232 -19 c 128,-1,9
EndSplineSet
Validated: 1
EndChar

StartChar: semicolon
Encoding: 59 59 29
Width: 484
GlyphClass: 2
Flags: W
HStem: -236 31<6 34.2969> 569 370<113.14 350.86>
VStem: 41 393<40.4138 269.728> 50 364<631.578 876.422>
LayerCount: 2
Fore
SplineSet
232 939 m 128,-1,1
 308 939 308 939 361 885 c 128,-1,2
 414 831 414 831 414 754 c 128,-1,3
 414 677 414 677 361 623 c 128,-1,4
 308 569 308 569 232 569 c 128,-1,5
 156 569 156 569 103 623 c 128,-1,6
 50 677 50 677 50 754 c 128,-1,7
 50 831 50 831 103 885 c 128,-1,0
 156 939 156 939 232 939 c 128,-1,1
232 351 m 0,8,9
 314 351 314 351 369 294 c 0,10,11
 434 227 434 227 434 118 c 0,12,13
 434 -4 434 -4 350 -103 c 0,14,15
 236 -236 236 -236 6 -236 c 1,16,-1
 6 -205 l 1,17,18
 93 -169 93 -169 153 -117 c 0,19,20
 200 -75 200 -75 223 -19 c 1,21,22
 144 -19 144 -19 92 33 c 0,23,24
 41 84 41 84 41 164 c 0,25,26
 41 243 41 243 93 297 c 128,-1,27
 145 351 145 351 232 351 c 0,8,9
EndSplineSet
Validated: 1
EndChar

StartChar: less
Encoding: 60 60 30
Width: 1257
GlyphClass: 2
Flags: W
DStem2: 100 765 508 794 0.870824 0.491594<369.553 1067.95> 508 794 100 750 0.878713 -0.47735<0 688.989>
LayerCount: 2
Fore
SplineSet
1030 1290 m 1,0,-1
 1117 1138 l 1,1,-1
 508 794 l 1,2,-1
 1117 462 l 1,3,-1
 1002 260 l 1,4,-1
 100 750 l 1,5,-1
 100 765 l 1,6,-1
 1030 1290 l 1,0,-1
EndSplineSet
Validated: 1
EndChar

StartChar: equal
Encoding: 61 61 31
Width: 1273
GlyphClass: 2
Flags: W
HStem: 444 211<219 1054> 854 211<219 1054>
LayerCount: 2
Fore
SplineSet
219 655 m 1,0,-1
 1173 655 l 1,1,-1
 1054 444 l 1,2,-1
 100 444 l 1,3,-1
 219 655 l 1,0,-1
219 1065 m 1,4,-1
 1173 1065 l 1,5,-1
 1054 854 l 1,6,-1
 100 854 l 1,7,-1
 219 1065 l 1,4,-1
EndSplineSet
Validated: 1
EndChar

StartChar: greater
Encoding: 62 62 32
Width: 1257
GlyphClass: 2
Flags: W
DStem2: 255 1290 140 1088 0.878713 -0.47735<0 688.989> 140 412 227 260 0.870824 0.491594<1.03937 699.44>
LayerCount: 2
Fore
SplineSet
255 1290 m 1,0,-1
 1157 800 l 1,1,-1
 1157 785 l 1,2,-1
 227 260 l 1,3,-1
 140 412 l 1,4,-1
 749 756 l 1,5,-1
 140 1088 l 1,6,-1
 255 1290 l 1,0,-1
EndSplineSet
Validated: 1
EndChar

StartChar: question
Encoding: 63 63 33
Width: 1255
GlyphClass: 2
Flags: W
HStem: -20 370<432.14 669.86> 1408 122<358.195 689.758>
VStem: 100 15<995 1011.64> 369 364<42.5779 287.422> 800 355<910.021 1279.27>
LayerCount: 2
Fore
SplineSet
551 -20 m 128,-1,1
 475 -20 475 -20 422 34 c 128,-1,2
 369 88 369 88 369 165 c 128,-1,3
 369 242 369 242 422 296 c 128,-1,4
 475 350 475 350 551 350 c 128,-1,5
 627 350 627 350 680 296 c 128,-1,6
 733 242 733 242 733 165 c 128,-1,7
 733 88 733 88 680 34 c 128,-1,0
 627 -20 627 -20 551 -20 c 128,-1,1
605 1530 m 0,8,9
 859 1530 859 1530 1006 1407 c 0,10,11
 1155 1282 1155 1282 1155 1088 c 0,12,13
 1154 876 1154 876 953 734 c 2,14,-1
 826 644 l 2,15,16
 667 532 667 532 610 426 c 1,17,-1
 492 426 l 1,18,19
 493 564 493 564 629 727 c 2,20,-1
 674 781 l 2,21,22
 800 932 800 932 800 1120 c 0,23,24
 800 1220 800 1220 767 1279 c 0,25,26
 696 1408 696 1408 531 1408 c 128,-1,27
 366 1408 366 1408 271 1288 c 0,28,29
 182 1174 182 1174 115 995 c 1,30,-1
 100 995 l 1,31,-1
 100 1335 l 1,32,33
 288 1530 288 1530 605 1530 c 0,8,9
EndSplineSet
Validated: 1
EndChar

StartChar: at
Encoding: 64 64 34
Width: 1444
GlyphClass: 2
Flags: W
HStem: -430 118<659.023 1054.69> -20 122<812.153 944.412> 999 121<646.331 908.8>
VStem: 70 317<29.0497 644.62> 458 305<165.004 469.98> 964 300<183.75 590 678.029 945.062>
LayerCount: 2
Fore
SplineSet
934 -20 m 0,0,1
 708 -20 708 -20 581 78 c 0,2,3
 458 173 458 173 458 328 c 0,4,5
 458 481 458 481 594.5 575 c 128,-1,6
 731 669 731 669 964 681 c 1,7,-1
 964 791 l 2,8,9
 964 902 964 902 917 948 c 0,10,11
 865 999 865 999 787 999 c 0,12,13
 642 999 642 999 524 839 c 0,14,15
 387 653 387 653 387 343 c 0,16,17
 387 8 387 8 525 -160 c 0,18,19
 651 -312 651 -312 851 -312 c 0,20,21
 1028 -312 1028 -312 1188 -185 c 1,22,-1
 1278 -277 l 1,23,24
 1062 -430 1062 -430 749 -430 c 0,25,26
 477 -430 477 -430 312 -282 c 0,27,28
 70 -64 70 -64 70 338 c 128,-1,29
 70 740 70 740 312 957 c 0,30,31
 494 1120 494 1120 820 1120 c 0,32,33
 1014 1120 1014 1120 1140 1032 c 0,34,35
 1264 946 1264 946 1264 780 c 2,36,-1
 1264 268 l 2,37,38
 1264 173 1264 173 1434 121 c 1,39,-1
 1434 106 l 1,40,41
 1158 -20 1158 -20 934 -20 c 0,0,1
964 590 m 1,42,43
 898 565 898 565 847 517 c 0,44,45
 763 437 763 437 763 330 c 0,46,47
 763 224 763 224 799 163 c 128,-1,48
 835 102 835 102 895 102 c 0,49,50
 964 102 964 102 964 271 c 2,51,-1
 964 590 l 1,42,43
EndSplineSet
Validated: 1
EndChar

StartChar: A
Encoding: 65 65 35
Width: 1885
GlyphClass: 2
Flags: W
HStem: 0 15<10 33.5828 493.469 508 1173 1188.02 1852.01 1875> 530 120<616 1066>
DStem2: 263 250 408 246 0.459739 0.888054<-13.408 382.899 517.509 1009.49> 951 1550 842 1087 0.460277 -0.887775<360.87 851.93 986.54 1385.16>
LayerCount: 2
Fore
SplineSet
842 1087 m 1,0,-1
 616 650 l 1,1,-1
 1066 650 l 1,2,-1
 842 1087 l 1,0,-1
10 0 m 1,3,-1
 10 15 l 1,4,5
 163 57 163 57 263 250 c 2,6,-1
 936 1550 l 1,7,-1
 951 1550 l 1,8,-1
 1625 250 l 2,9,10
 1726 55 1726 55 1875 15 c 1,11,-1
 1875 0 l 1,12,-1
 1173 0 l 1,13,-1
 1173 15 l 1,14,15
 1297 70 1297 70 1297 168 c 0,16,17
 1297 204 1297 204 1275 246 c 2,18,-1
 1127 530 l 1,19,-1
 555 530 l 1,20,-1
 408 246 l 2,21,22
 388 207 388 207 388 169 c 0,23,24
 388 66 388 66 508 15 c 1,25,-1
 508 0 l 1,26,-1
 10 0 l 1,3,-1
EndSplineSet
Validated: 1
EndChar

StartChar: B
Encoding: 66 66 36
Width: 1394
GlyphClass: 2
Flags: W
HStem: -20 121<542.887 830.754> 1409 121<536.247 772.021>
VStem: 180 300<180.75 1330.25> 844 319<1011.81 1325.93> 989 335<281.461 643.572>
LayerCount: 2
Fore
SplineSet
685 101 m 0,0,1
 818 101 818 101 904 214 c 0,2,3
 989 325 989 325 989 477 c 0,4,5
 989 633 989 633 868 727 c 0,6,7
 768 805 768 805 605 837 c 1,8,9
 698 876 698 876 764 939 c 0,10,11
 844 1015 844 1015 844 1171 c 0,12,13
 844 1280 844 1280 791 1347 c 0,14,15
 742 1409 742 1409 656 1409 c 0,16,17
 578 1409 578 1409 539 1377 c 24,18,19
 480 1328 480 1328 480 1246 c 2,20,-1
 480 265 l 2,21,22
 480 186 480 186 548 132 c 0,23,24
 587 101 587 101 685 101 c 0,0,1
631 -20 m 0,25,26
 291 -20 291 -20 10 103 c 1,27,-1
 10 118 l 1,28,29
 180 170 180 170 180 265 c 2,30,-1
 180 1246 l 2,31,32
 180 1341 180 1341 10 1393 c 1,33,-1
 10 1408 l 1,34,35
 294 1530 294 1530 611 1530 c 0,36,37
 934 1530 934 1530 1068 1391 c 0,38,39
 1163 1293 1163 1293 1163 1165 c 0,40,41
 1163 1035 1163 1035 1052 932 c 0,42,43
 1011 894 1011 894 956 866 c 1,44,45
 1050 842 1050 842 1131 795 c 0,46,47
 1324 683 1324 683 1324 472.5 c 128,-1,48
 1324 262 1324 262 1141 114 c 0,49,50
 975 -20 975 -20 631 -20 c 0,25,26
EndSplineSet
Validated: 1
EndChar

StartChar: C
Encoding: 67 67 37
Width: 1482
GlyphClass: 2
Flags: W
HStem: -20 122<700.221 1086.24> 1408 122<700.271 1072.87>
VStem: 70 354<469.355 1044.38> 1367 15<931 945.79 1507.03 1530>
LayerCount: 2
Fore
SplineSet
832 -20 m 0,0,1
 519 -20 519 -20 323 157 c 0,2,3
 70 385 70 385 70 755 c 0,4,5
 70 1072 70 1072 245 1273 c 0,6,7
 469 1530 469 1530 832 1530 c 0,8,9
 996 1530 996 1530 1113 1470 c 0,10,11
 1187 1432 1187 1432 1249 1432 c 0,12,13
 1346 1432 1346 1432 1366 1530 c 1,14,-1
 1382 1530 l 1,15,-1
 1382 931 l 1,16,-1
 1367 931 l 1,17,18
 1231 1408 1231 1408 882 1408 c 0,19,20
 651 1408 651 1408 524 1183 c 0,21,22
 424 1005 424 1005 424 755 c 128,-1,23
 424 505 424 505 524 327 c 0,24,25
 651 102 651 102 882 102 c 0,26,27
 1048 102 1048 102 1170 195 c 0,28,29
 1285 283 1285 283 1382 424 c 1,30,-1
 1382 241 l 1,31,32
 1183 -20 1183 -20 832 -20 c 0,0,1
EndSplineSet
Validated: 1
EndChar

StartChar: D
Encoding: 68 68 38
Width: 1514
GlyphClass: 2
Flags: W
HStem: -20 123<538.924 839.155> 1408 122<538.705 840.094>
VStem: 180 310<179 1331> 1090 354<468.152 1051.61>
LayerCount: 2
Fore
SplineSet
682 103 m 0,0,1
 874 103 874 103 992 322 c 0,2,3
 1090 503 1090 503 1090 755.5 c 128,-1,4
 1090 1008 1090 1008 992 1189 c 0,5,6
 873 1408 873 1408 682 1408 c 0,7,8
 605 1408 605 1408 561 1380 c 0,9,10
 490 1335 490 1335 490 1246 c 2,11,-1
 490 265 l 2,12,13
 490 177 490 177 561 131 c 0,14,15
 604 103 604 103 682 103 c 0,0,1
620 -20 m 0,16,17
 294 -20 294 -20 10 102 c 1,18,-1
 10 116 l 1,19,20
 180 168 180 168 180 264 c 2,21,-1
 180 1246 l 2,22,23
 180 1342 180 1342 10 1394 c 1,24,-1
 10 1408 l 1,25,26
 292 1530 292 1530 620 1530 c 0,27,28
 1016 1530 1016 1530 1239 1306 c 0,29,30
 1444 1100 1444 1100 1444 775 c 0,31,32
 1444 430 1444 430 1269 239 c 24,33,34
 1031 -20 1031 -20 620 -20 c 0,16,17
EndSplineSet
Validated: 1
EndChar

StartChar: E
Encoding: 69 69 39
Width: 1400
GlyphClass: 2
Flags: W
HStem: 0 120<508.169 1107.5> 0 15<10 30.5859> 530 120<500 753.556> 1390 120<508.169 976.812> 1495 15<10 30.5859>
VStem: 180 320<123.688 530 650 1386.31>
LayerCount: 2
Fore
SplineSet
10 0 m 1,0,-1
 10 15 l 1,1,2
 180 60 180 60 180 250 c 2,3,-1
 180 1260 l 2,4,5
 180 1450 180 1450 10 1495 c 1,6,-1
 10 1510 l 1,7,-1
 1056 1510 l 1,8,-1
 1259 1158 l 1,9,-1
 1244 1158 l 1,10,11
 1020 1390 1020 1390 748 1390 c 2,12,-1
 522 1390 l 1,13,14
 500 1338 500 1338 500 1260 c 2,15,-1
 500 650 l 1,16,-1
 664 650 l 2,17,18
 888 650 888 650 1077 847 c 1,19,-1
 1092 847 l 1,20,-1
 805 345 l 1,21,-1
 790 345 l 1,22,23
 790 530 790 530 664 530 c 2,24,-1
 500 530 l 1,25,-1
 500 250 l 2,26,27
 500 172 500 172 522 120 c 1,28,-1
 878 120 l 2,29,30
 1151 120 1151 120 1375 352 c 1,31,-1
 1390 352 l 1,32,-1
 1186 0 l 1,33,-1
 10 0 l 1,0,-1
EndSplineSet
Validated: 1
EndChar

StartChar: F
Encoding: 70 70 40
Width: 1269
GlyphClass: 2
Flags: W
HStem: 0 15<10 30.5859 649.414 670> 530 120<500 753.556> 1390 120<508.169 976.812> 1495 15<10 30.5859>
VStem: 180 320<96.25 530 650 1386.31>
LayerCount: 2
Fore
SplineSet
10 0 m 1,0,-1
 10 15 l 1,1,2
 180 60 180 60 180 250 c 2,3,-1
 180 1260 l 2,4,5
 180 1450 180 1450 10 1495 c 1,6,-1
 10 1510 l 1,7,-1
 1056 1510 l 1,8,-1
 1259 1158 l 1,9,-1
 1244 1158 l 1,10,11
 1020 1390 1020 1390 748 1390 c 2,12,-1
 522 1390 l 1,13,14
 500 1338 500 1338 500 1260 c 2,15,16
 500 650 l 1,17,-1
 664 650 l 2,18,19
 888 650 888 650 1077 847 c 1,20,-1
 1092 847 l 1,21,-1
 805 345 l 1,22,-1
 790 345 l 1,23,24
 790 530 790 530 664 530 c 2,25,-1
 500 530 l 1,26,-1
 500 250 l 2,27,28
 500 60 500 60 670 15 c 1,29,-1
 670 0 l 1,30,-1
 10 0 l 1,0,-1
EndSplineSet
Validated: 1
EndChar

StartChar: G
Encoding: 71 71 41
Width: 1580
GlyphClass: 2
Flags: W
HStem: -20 122<691.473 1001.86> 640 15<910 930.586 1549.41 1570> 1408 122<700.271 1072.87>
VStem: 70 354<469.355 1044.38> 1080 320<179.716 558.75> 1367 15<931 945.79 1507.03 1530>
LayerCount: 2
Fore
SplineSet
832 -20 m 0,0,1
 519 -20 519 -20 323 157 c 0,2,3
 70 385 70 385 70 755 c 0,4,5
 70 1072 70 1072 245 1273 c 0,6,7
 469 1530 469 1530 832 1530 c 0,8,9
 996 1530 996 1530 1113 1470 c 0,10,11
 1187 1432 1187 1432 1249 1432 c 0,12,13
 1346 1432 1346 1432 1366 1530 c 1,14,-1
 1382 1530 l 1,15,-1
 1382 931 l 1,16,-1
 1367 931 l 1,17,18
 1231 1408 1231 1408 882 1408 c 0,19,20
 651 1408 651 1408 524 1183 c 0,21,22
 424 1005 424 1005 424 755 c 128,-1,23
 424 505 424 505 524 327 c 0,24,25
 651 102 651 102 855 102 c 0,26,27
 1017 102 1017 102 1065 230 c 0,28,29
 1080 270 1080 270 1080 313 c 2,30,-1
 1080 405 l 2,31,32
 1080 595 1080 595 910 640 c 1,33,-1
 910 655 l 1,34,-1
 1570 655 l 1,35,-1
 1570 640 l 1,36,37
 1400 595 1400 595 1400 405 c 2,38,-1
 1400 215 l 1,39,40
 1184 -20 1184 -20 832 -20 c 0,0,1
EndSplineSet
Validated: 1
EndChar

StartChar: H
Encoding: 72 72 42
Width: 1527
GlyphClass: 2
Flags: W
HStem: 0 15<10 30.5859 649.414 670 857 877.586 1496.41 1517> 525 130<500 1027> 1495 15<10 30.5859 649.414 670 857 877.586 1496.41 1517>
VStem: 180 320<96.25 525 655 1413.75> 1027 320<96.25 525 655 1413.75>
LayerCount: 2
Fore
SplineSet
10 0 m 1,0,-1
 10 15 l 1,1,2
 180 60 180 60 180 250 c 2,3,-1
 180 1260 l 2,4,5
 180 1451 180 1451 10 1495 c 1,6,-1
 10 1510 l 1,7,-1
 670 1510 l 1,8,-1
 670 1495 l 1,9,10
 500 1450 500 1450 500 1260 c 2,11,-1
 500 655 l 1,12,-1
 1027 655 l 1,13,-1
 1027 1260 l 2,14,15
 1027 1451 1027 1451 857 1495 c 1,16,-1
 857 1510 l 1,17,-1
 1517 1510 l 1,18,-1
 1517 1495 l 1,19,20
 1347 1450 1347 1450 1347 1260 c 2,21,-1
 1347 250 l 2,22,23
 1347 59 1347 59 1517 15 c 1,24,-1
 1517 0 l 1,25,-1
 857 0 l 1,26,-1
 857 15 l 1,27,28
 1027 60 1027 60 1027 250 c 2,29,-1
 1027 525 l 1,30,-1
 500 525 l 1,31,-1
 500 250 l 2,32,33
 500 59 500 59 670 15 c 1,34,-1
 670 0 l 1,35,-1
 10 0 l 1,0,-1
EndSplineSet
Validated: 1
EndChar

StartChar: I
Encoding: 73 73 43
Width: 680
GlyphClass: 2
Flags: W
HStem: 0 15<10 30.5859 649.414 670> 1495 15<10 30.5859 649.414 670>
VStem: 180 320<96.25 1413.75>
LayerCount: 2
Fore
SplineSet
10 0 m 1,0,1
 10 15 l 1,2,3
 180 60 180 60 180 250 c 2,4,-1
 180 1260 l 2,5,6
 180 1451 180 1451 10 1495 c 1,7,8
 10 1510 l 1,9,10
 670 1510 l 1,11,-1
 670 1495 l 1,12,13
 500 1450 500 1450 500 1260 c 2,14,-1
 500 250 l 2,15,16
 500 59 500 59 670 15 c 1,17,-1
 670 0 l 1,18,-1
 10 0 l 1,0,1
EndSplineSet
Validated: 1
EndChar

StartChar: J
Encoding: 74 74 44
Width: 700
GlyphClass: 2
Flags: W
HStem: -430 21G<-30 245> 1495 15<30 50.5859 669.414 690>
VStem: 200 320<-207.861 1413.75>
LayerCount: 2
Fore
SplineSet
30 1510 m 1,0,-1
 690 1510 l 1,1,-1
 690 1495 l 1,2,3
 520 1450 520 1450 520 1260 c 2,4,-1
 520 0 l 2,5,6
 520 -430 520 -430 -30 -430 c 1,7,-1
 -30 -415 l 1,8,9
 200 -289 200 -289 200 0 c 2,10,-1
 200 1260 l 2,11,12
 200 1451 200 1451 30 1495 c 1,13,14
 30 1510 l 1,0,-1
EndSplineSet
Validated: 1
EndChar

StartChar: K
Encoding: 75 75 45
Width: 1510
GlyphClass: 2
Flags: W
HStem: -313 163<1179.5 1456.49> -40 20G<1581.5 1600> 0 15<10 30.5859 649.414 670> 514 147<567 914.5> 1495 15<10 30.5859 649.414 670 946 965.645 1447.95 1460>
VStem: 180 320<97.25 470.573 620 1413.75>
DStem2: 500 620 672 632 0.60608 0.795403<113.791 930.373> 1134 414 807 341 0.371745 -0.928335<-199.053 597.515>
LayerCount: 2
Fore
SplineSet
10 0 m 1,0,-1
 10 15 l 1,1,2
 180 60 180 60 180 249 c 2,3,-1
 180 1260 l 2,4,5
 180 1451 180 1451 10 1495 c 1,6,-1
 10 1510 l 1,7,-1
 670 1510 l 1,8,-1
 670 1495 l 1,9,10
 500 1450 500 1450 500 1260 c 2,11,-1
 500 620 l 1,12,-1
 993 1267 l 2,13,14
 1041 1330 1041 1330 1041 1379 c 0,15,16
 1041 1468 1041 1468 946 1495 c 1,17,-1
 946 1510 l 1,18,-1
 1460 1510 l 1,19,-1
 1460 1495 l 1,20,21
 1266 1411 1266 1411 1151 1260 c 2,22,-1
 672 632 l 1,23,24
 729 661 729 661 794 661 c 0,25,26
 1035 661 1035 661 1134 414 c 2,27,-1
 1315 -38 l 2,28,29
 1360 -150 1360 -150 1446 -150 c 0,30,31
 1503 -150 1503 -150 1537 -112 c 0,32,33
 1573 -72 1573 -72 1590 -20 c 1,34,-1
 1600 -20 l 1,35,36
 1588 -144 1588 -144 1517 -219 c 0,37,38
 1428 -313 1428 -313 1289 -313 c 0,39,40
 1070 -313 1070 -313 982 -95 c 2,41,-1
 807 341 l 2,42,43
 738 514 738 514 634 514 c 0,44,45
 500 514 500 514 500 270 c 2,46,-1
 500 250 l 2,47,48
 500 62 500 62 670 15 c 1,49,-1
 670 0 l 1,50,-1
 10 0 l 1,0,-1
EndSplineSet
Validated: 1
EndChar

StartChar: L
Encoding: 76 76 46
Width: 1318
GlyphClass: 2
Flags: W
HStem: 0 120<510.397 1025.81> 0 15<10 30.5859> 1495 15<10 30.5859 649.414 670>
VStem: 180 320<123.688 1413.75>
LayerCount: 2
Fore
SplineSet
10 0 m 1,0,-1
 10 15 l 1,1,2
 180 60 180 60 180 250 c 2,3,-1
 180 1260 l 2,4,5
 180 1451 180 1451 10 1495 c 1,6,-1
 10 1510 l 1,7,-1
 670 1510 l 1,8,-1
 670 1495 l 1,9,10
 500 1450 500 1450 500 1260 c 2,11,-1
 500 250 l 2,12,13
 500 171 500 171 528 120 c 1,14,-1
 797 120 l 2,15,16
 1069 120 1069 120 1293 352 c 1,17,-1
 1308 352 l 1,18,-1
 1105 0 l 1,19,-1
 10 0 l 1,0,-1
EndSplineSet
Validated: 1
EndChar

StartChar: M
Encoding: 77 77 47
Width: 2172
GlyphClass: 2
Flags: W
HStem: 0 15<10 27.5415 505.711 521 1442 1458.75 2144.46 2162>
DStem2: 226 250 357 250 0.14834 0.988936<-20.91 663.626> 436 1550 453 887 0.502647 -0.864492<581.703 1321.01> 1100 408 1001 -40 0.486552 0.873652<0 637.008> 1751 1550 1524 901 0.14834 -0.988936<608.146 1304.91>
LayerCount: 2
Fore
SplineSet
10 0 m 1,0,-1
 10 15 l 17,1,2
 201 84 201 84 226 250 c 2,3,-1
 421 1550 l 1,4,-1
 436 1550 l 1,5,-1
 1100 408 l 1,6,-1
 1736 1550 l 1,7,-1
 1751 1550 l 1,8,-1
 1946 250 l 2,9,10
 1971 84 1971 84 2162 15 c 1,11,12
 2162 9 2162 9 2162 0 c 1,13,-1
 1442 0 l 1,14,-1
 1442 15 l 1,15,16
 1625 74 1625 74 1625 211 c 0,17,18
 1625 230 1625 230 1622 250 c 2,19,-1
 1524 901 l 1,20,-1
 1001 -40 l 1,21,-1
 986 -40 l 1,22,-1
 453 887 l 1,23,-1
 357 250 l 2,24,25
 354 230 354 230 354 209 c 0,26,27
 354 73 354 73 521 15 c 1,28,-1
 521 0 l 1,29,-1
 10 0 l 1,0,-1
EndSplineSet
Validated: 1
EndChar

StartChar: N
Encoding: 78 78 48
Width: 1545
GlyphClass: 2
Flags: W
HStem: 0 15<10 30.5859 459.414 480> 1495 15<1065 1085.59 1514.41 1535>
VStem: 180 130<96.25 985> 1235 130<531 1413.75>
DStem2: 195 1550 310 985 0.712224 -0.701952<478.509 1456>
LayerCount: 2
Fore
SplineSet
10 0 m 1,0,1
 10 15 l 1,2,3
 180 60 180 60 180 250 c 2,4,-1
 180 1550 l 1,5,-1
 195 1550 l 1,6,-1
 1235 531 l 1,7,-1
 1235 1260 l 2,8,9
 1235 1450 1235 1450 1065 1495 c 1,10,-1
 1065 1510 l 1,11,-1
 1535 1510 l 1,12,13
 1535 1495 l 1,14,15
 1365 1450 1365 1450 1365 1260 c 2,16,-1
 1365 -40 l 1,17,-1
 1350 -40 l 1,18,-1
 310 985 l 1,19,-1
 310 250 l 2,20,21
 310 59 310 59 480 15 c 1,22,-1
 480 0 l 1,23,-1
 10 0 l 1,0,1
EndSplineSet
Validated: 1
EndChar

StartChar: P
Encoding: 80 80 49
Width: 1385
GlyphClass: 2
Flags: W
HStem: 0 15<10 35.5249 634.475 660> 478 122<540.266 809.344> 1408 122<543.505 808.129>
VStem: 180 310<94.25 538 648.352 1331> 971 344<799.795 1214.52>
LayerCount: 2
Fore
SplineSet
676 600 m 0,0,1
 769 600 769 600 838 666 c 0,2,3
 971 793 971 793 971 1004 c 128,-1,4
 971 1215 971 1215 838 1342 c 0,5,6
 769 1408 769 1408 676 1408 c 0,7,8
 603 1408 603 1408 558 1378 c 0,9,10
 490 1333 490 1333 490 1246 c 2,11,-1
 490 762 l 2,12,13
 490 675 490 675 558 630 c 0,14,15
 603 600 603 600 676 600 c 0,0,1
10 0 m 1,16,-1
 10 15 l 1,17,18
 180 56 180 56 180 250 c 2,19,-1
 180 1246 l 2,20,21
 180 1342 180 1342 10 1394 c 1,22,-1
 10 1408 l 1,23,24
 291 1530 291 1530 594 1530 c 0,25,26
 960 1530 960 1530 1144 1377 c 0,27,28
 1315 1235 1315 1235 1315 1010 c 0,29,30
 1315 782 1315 782 1145 631 c 0,31,32
 973 478 973 478 713 478 c 0,33,34
 587 478 587 478 490 538 c 1,35,-1
 490 250 l 2,36,37
 490 54 490 54 660 15 c 1,38,-1
 660 0 l 1,39,-1
 10 0 l 1,16,-1
EndSplineSet
Validated: 1
EndChar

StartChar: Q
Encoding: 81 81 50
Width: 1540
GlyphClass: 2
Flags: W
HStem: -284 147<1078.5 1334.47> -40 20G<1436 1453> -20 122<626.918 821> 300 147<648.668 884> 1408 122<626.798 913.906>
VStem: 70 348<450.847 1059.68> 1122 348<450.732 1058.45>
LayerCount: 2
Fore
SplineSet
770 -20 m 0,0,1
 492 -20 492 -20 312 142 c 0,2,3
 70 360 70 360 70 755 c 128,-1,4
 70 1150 70 1150 312 1368 c 0,5,6
 492 1530 492 1530 770 1530 c 0,7,8
 1050 1530 1050 1530 1228 1368 c 0,9,10
 1470 1148 1470 1148 1470 755 c 0,11,12
 1470 358 1470 358 1228 142 c 0,13,14
 1191 109 1191 109 1150 82 c 1,15,-1
 1197 -37 l 2,16,17
 1236 -137 1236 -137 1315 -137 c 0,18,19
 1365 -137 1365 -137 1396.5 -102.5 c 128,-1,20
 1428 -68 1428 -68 1444 -20 c 1,21,-1
 1453 -20 l 1,22,23
 1442 -136 1442 -136 1384 -197 c 0,24,25
 1301 -284 1301 -284 1181 -284 c 0,26,27
 976 -284 976 -284 898 -88 c 2,28,-1
 869 -15 l 1,29,30
 821 -20 821 -20 770 -20 c 0,0,1
1052 313 m 1,31,32
 1122 471 1122 471 1122 755 c 0,33,34
 1122 1134 1122 1134 997 1289 c 0,35,36
 900 1408 900 1408 770.5 1408 c 128,-1,37
 641 1408 641 1408 543 1289 c 0,38,39
 418 1137 418 1137 418 755 c 0,40,41
 418 387 418 387 535 232 c 1,42,43
 552 311 552 311 597 359 c 0,44,45
 680 447 680 447 799 447 c 0,46,47
 969 447 969 447 1052 313 c 1,31,32
549 213 m 1,48,49
 644 102 644 102 770 102 c 0,50,51
 796 102 796 102 821 107 c 1,52,-1
 784 199 l 2,53,54
 744 299 744 299 666 300 c 0,55,56
 616 300 616 300 584 266 c 0,57,58
 562 242 562 242 549 213 c 1,48,49
EndSplineSet
Validated: 1
EndChar

StartChar: R
Encoding: 82 82 51
Width: 1509
GlyphClass: 2
Flags: W
HStem: -313 163<1183 1457.83> -40 20G<1580 1599> 0 15<10 35.5249 634.475 660> 478 122<540.22 742.375> 1408 122<543.505 808.129>
VStem: 180 310<94.25 538 648.352 1331> 971 344<800.045 1214.77>
DStem2: 1174 313 829 287 0.37181 -0.928309<-175.419 489.289>
LayerCount: 2
Fore
SplineSet
10 0 m 1,0,-1
 10 15 l 1,1,2
 180 56 180 56 180 250 c 2,3,-1
 180 1246 l 2,4,5
 180 1342 180 1342 10 1394 c 1,6,-1
 10 1408 l 1,7,8
 291 1530 291 1530 594 1530 c 0,9,10
 960 1530 960 1530 1144 1377 c 0,11,12
 1315 1236 1315 1236 1315 1010 c 0,13,14
 1315 783 1315 783 1145 631 c 0,15,16
 1060 555 1060 555 938 517 c 1,17,18
 1105 487 1105 487 1174 313 c 2,19,-1
 1314 -38 l 2,20,21
 1359 -150 1359 -150 1445 -150 c 0,22,23
 1500 -150 1500 -150 1535.5 -112 c 128,-1,24
 1571 -74 1571 -74 1589 -20 c 1,25,-1
 1599 -20 l 1,26,27
 1587 -147 1587 -147 1522 -216 c 0,28,29
 1430 -313 1430 -313 1297 -313 c 0,30,31
 1069 -313 1069 -313 982 -95 c 2,32,-1
 829 287 l 2,33,34
 752 478 752 478 653 478 c 0,35,36
 561 478 561 478 490 538 c 1,37,-1
 490 250 l 2,38,39
 490 54 490 54 660 15 c 1,40,-1
 660 0 l 1,41,-1
 10 0 l 1,0,-1
676 600 m 0,42,43
 769 600 769 600 838 666 c 0,44,45
 971 793 971 793 971 1004 c 128,-1,46
 971 1215 971 1215 838 1342 c 0,47,48
 769 1408 769 1408 676 1408 c 0,49,50
 603 1408 603 1408 558 1378 c 0,51,52
 490 1333 490 1333 490 1246 c 2,53,-1
 490 762 l 2,54,55
 490 675 490 675 558 630 c 0,56,57
 603 600 603 600 676 600 c 0,42,43
EndSplineSet
Validated: 1
EndChar

StartChar: S
Encoding: 83 83 52
Width: 1321
GlyphClass: 2
Flags: W
HStem: -20 122<381.547 781.983> 1412 118<543.503 843.782>
VStem: 70 15<550.616 585> 172 308<1121.75 1325.46> 927 324<266.815 537.457> 1044 15<1058 1089.49>
DStem2: 641 1042 468 762 0.919325 -0.393499<-170.359 419.361>
LayerCount: 2
Fore
SplineSet
646 -20 m 0,0,1
 450 -20 450 -20 304 53 c 0,2,3
 254 78 254 78 218 78 c 0,4,5
 136 78 136 78 85 -20 c 1,6,-1
 70 -20 l 1,7,-1
 70 585 l 1,8,-1
 85 585 l 1,9,10
 126 361 126 361 248 238 c 0,11,12
 383 102 383 102 606 102 c 0,13,14
 724 102 724 102 800 158 c 0,15,16
 927 251 927 251 927 408 c 0,17,18
 927 568 927 568 712 659 c 2,19,-1
 468 762 l 2,20,21
 172 887 172 887 172 1147 c 0,22,23
 172 1316 172 1316 300 1429 c 0,24,25
 416 1530 416 1530 609 1530 c 0,26,27
 738 1530 738 1530 828 1492 c 0,28,29
 883 1469 883 1469 932 1469 c 0,30,31
 1005 1469 1005 1469 1044 1530 c 1,32,-1
 1059 1530 l 1,33,-1
 1059 1058 l 1,34,-1
 1044 1058 l 1,35,36
 1014 1205 1014 1205 942 1296 c 0,37,38
 853 1412 853 1412 691 1412 c 0,39,40
 590 1412 590 1412 537 1363 c 0,41,42
 480 1310 480 1310 480 1230 c 0,43,44
 480 1111 480 1111 641 1042 c 2,45,-1
 905 929 l 2,46,47
 1251 781 1251 781 1251 470 c 0,48,49
 1251 260 1251 260 1091.5 120 c 128,-1,50
 932 -20 932 -20 646 -20 c 0,0,1
EndSplineSet
Validated: 1
EndChar

StartChar: T
Encoding: 84 84 53
Width: 1529
GlyphClass: 2
Flags: W
HStem: 0 15<435 455.586 1074.41 1095> 1390 120<291.695 596.406 933.169 1237.13>
VStem: 605 320<96.25 1388.31>
LayerCount: 2
Fore
SplineSet
435 0 m 1,0,-1
 435 15 l 1,1,2
 605 60 605 60 605 250 c 2,3,-1
 605 1260 l 2,4,5
 605 1336 605 1336 583 1390 c 1,6,-1
 521 1390 l 2,7,8
 248 1390 248 1390 25 1158 c 1,9,-1
 10 1158 l 1,10,-1
 213 1510 l 1,11,-1
 1317 1510 l 1,12,-1
 1519 1158 l 1,13,-1
 1504 1158 l 1,14,15
 1280 1390 1280 1390 1009 1390 c 2,16,-1
 947 1390 l 1,17,18
 925 1339 925 1339 925 1260 c 2,19,-1
 925 250 l 2,20,21
 925 59 925 59 1095 15 c 1,22,-1
 1095 0 l 1,23,-1
 435 0 l 1,0,-1
EndSplineSet
Validated: 1
EndChar

StartChar: U
Encoding: 85 85 54
Width: 1527
GlyphClass: 2
Flags: W
HStem: -20 161<649.411 1034.91> 1495 15<10 35.5249 644.475 670 1046 1071.68 1496.41 1517>
VStem: 180 320<304.268 1415.75> 1217 130<319.23 1414.25>
LayerCount: 2
Fore
SplineSet
774 -20 m 24,0,1
 497 -20 497 -20 338.5 126 c 128,-1,2
 180 272 180 272 180 500 c 2,3,-1
 180 1260 l 2,4,5
 180 1456 180 1456 10 1495 c 1,6,-1
 10 1510 l 1,7,-1
 670 1510 l 1,8,-1
 670 1495 l 1,9,10
 500 1454 500 1454 500 1260 c 2,11,-1
 500 502 l 2,12,13
 500 340 500 340 588 236 c 0,14,15
 668 141 668 141 852 141 c 0,16,17
 1028 141 1028 141 1120 243 c 0,18,19
 1217 351 1217 351 1217 502 c 2,20,-1
 1217 1260 l 2,21,22
 1217 1455 1217 1455 1046 1495 c 1,23,-1
 1046 1510 l 1,24,-1
 1517 1510 l 1,25,-1
 1517 1495 l 1,26,27
 1347 1451 1347 1451 1347 1260 c 2,28,-1
 1347 500 l 2,29,30
 1347 277 1347 277 1196 129 c 0,31,32
 1045 -20 1045 -20 774 -20 c 24,0,1
EndSplineSet
Validated: 1
EndChar

StartChar: V
Encoding: 86 86 55
Width: 1885
GlyphClass: 2
Flags: W
HStem: 1495 15<10 32.9883 690.984 706 1377 1391.53 1851.42 1875>
DStem2: 1043 422 934 -40 0.460277 -0.887775<-1027.94 0> 1043 422 949 -40 0.459739 0.888054<0 1023.79>
LayerCount: 2
Fore
SplineSet
934 -40 m 1,0,-1
 260 1260 l 2,1,2
 159 1455 159 1455 10 1495 c 1,3,-1
 10 1510 l 1,4,-1
 706 1510 l 1,5,-1
 706 1495 l 1,6,7
 582 1440 582 1440 582 1342 c 0,8,9
 582 1306 582 1306 604 1264 c 2,10,-1
 1043 422 l 1,11,-1
 1477 1264 l 2,12,13
 1497 1303 1497 1303 1497 1341 c 0,14,15
 1497 1444 1497 1444 1377 1495 c 1,16,-1
 1377 1510 l 1,17,-1
 1875 1510 l 1,18,-1
 1875 1495 l 1,19,20
 1722 1453 1722 1453 1622 1260 c 2,21,-1
 949 -40 l 1,22,-1
 934 -40 l 1,0,-1
EndSplineSet
Validated: 1
EndChar

StartChar: W
Encoding: 87 87 56
Width: 2582
GlyphClass: 2
Flags: W
HStem: 1495 15<10 32.9883 690.984 706 2074 2088.53 2548.42 2572>
DStem2: 1162 1510 813 1510 0.466734 -0.884398<0 480.835 640.024 689.853 848.625 1238.51> 1042 422 934 -40 0.460277 -0.887775<-1027.48 0> 1042 422 1290 618 0.459999 0.887919<0 288.112 745.582 1225.04> 1735 412 1646 -40 0.459739 0.888054<0 1034.97>
LayerCount: 2
Fore
SplineSet
934 -40 m 1,0,-1
 260 1260 l 2,1,2
 159 1455 159 1455 10 1495 c 1,3,-1
 10 1510 l 1,4,-1
 706 1510 l 1,5,-1
 706 1495 l 1,6,7
 582 1440 582 1440 582 1342 c 0,8,9
 582 1306 582 1306 604 1264 c 2,10,-1
 1042 422 l 1,11,-1
 1217 759 l 1,12,-1
 813 1510 l 1,13,-1
 1162 1510 l 1,14,-1
 1385 1084 l 1,15,-1
 1605 1510 l 1,16,-1
 1752 1510 l 1,17,-1
 1457 942 l 1,18,-1
 1735 412 l 1,19,-1
 2174 1264 l 2,20,21
 2194 1303 2194 1303 2194 1341 c 0,22,23
 2194 1444 2194 1444 2074 1495 c 1,24,-1
 2074 1510 l 1,25,-1
 2572 1510 l 1,26,-1
 2572 1495 l 1,27,28
 2419 1453 2419 1453 2319 1260 c 2,29,-1
 1646 -40 l 1,30,-1
 1631 -40 l 1,31,-1
 1290 618 l 1,32,-1
 949 -40 l 1,33,-1
 934 -40 l 1,0,-1
EndSplineSet
Validated: 1
EndChar

StartChar: X
Encoding: 88 88 57
Width: 1693
GlyphClass: 2
Flags: W
HStem: 0 15<10 22.3691 570.652 587 926 945.669 1669.12 1683> 1495 15<10 35.6523 748.481 768 1104 1124.42 1661.21 1683>
DStem2: 338 250 506 250 0.643902 0.765108<-14.0936 543.249 884.358 1441.8> 907 927 712 695 0.552795 -0.833317<-521.703 0 219.773 742.659>
LayerCount: 2
Fore
SplineSet
10 0 m 1,0,-1
 10 15 l 1,1,2
 209 97 209 97 338 250 c 2,3,-1
 712 695 l 1,4,-1
 337 1260 l 2,5,6
 218 1440 218 1440 10 1495 c 1,7,-1
 10 1510 l 1,8,-1
 768 1510 l 1,9,-1
 768 1495 l 1,10,11
 638 1452 638 1452 638 1376 c 0,12,13
 638 1332 638 1332 686 1260 c 2,14,-1
 907 927 l 1,15,-1
 1186 1260 l 2,16,17
 1240 1324 1240 1324 1240 1377 c 0,18,19
 1240 1449 1240 1449 1104 1495 c 1,20,-1
 1104 1510 l 1,21,-1
 1683 1510 l 1,22,-1
 1683 1495 l 1,23,24
 1508 1441 1508 1441 1356 1260 c 2,25,-1
 981 815 l 1,26,-1
 1356 250 l 2,27,28
 1459 95 1459 95 1683 15 c 1,29,-1
 1683 0 l 1,30,-1
 926 0 l 1,31,-1
 926 15 l 1,32,33
 1057 58 1057 58 1057 134 c 0,34,35
 1057 175 1057 175 1007 250 c 2,36,-1
 786 583 l 1,37,-1
 506 250 l 2,38,39
 452 186 452 186 452 134 c 0,40,41
 452 63 452 63 587 15 c 1,42,-1
 587 0 l 1,43,-1
 10 0 l 1,0,-1
EndSplineSet
Validated: 1
EndChar

StartChar: Y
Encoding: 89 89 58
Width: 1777
GlyphClass: 2
Flags: W
HStem: 0 15<559 584.375 1191.63 1217> 1495 15<10 29.9258 680.484 697 1266 1282.82 1751.57 1767>
VStem: 728 320<94.25 510>
DStem2: 983 654 728 511 0.512471 -0.858704<-807.245 -7.88541> 983 654 1048 510 0.511967 0.859005<0 807.577>
LayerCount: 2
Fore
SplineSet
559 0 m 1,0,-1
 559 15 l 1,1,2
 728 57 728 57 728 250 c 2,3,-1
 728 511 l 1,4,-1
 281 1260 l 2,5,6
 171 1444 171 1444 10 1495 c 1,7,-1
 10 1510 l 1,8,-1
 697 1510 l 1,9,-1
 697 1495 l 1,10,11
 587 1457 587 1457 587 1359 c 0,12,13
 587 1319 587 1319 619 1265 c 2,14,-1
 983 654 l 1,15,-1
 1346 1265 l 2,16,17
 1378 1319 1378 1319 1378 1360 c 0,18,19
 1378 1456 1378 1456 1266 1495 c 1,20,-1
 1266 1510 l 1,21,-1
 1767 1510 l 1,22,-1
 1767 1495 l 1,23,24
 1601 1438 1601 1438 1495 1260 c 2,25,-1
 1048 510 l 1,26,-1
 1048 250 l 2,27,28
 1048 56 1048 56 1217 15 c 1,29,-1
 1217 0 l 1,30,-1
 559 0 l 1,0,-1
EndSplineSet
Validated: 1
EndChar

StartChar: Z
Encoding: 90 90 59
Width: 1456
GlyphClass: 2
Flags: W
HStem: 0 120<445 1165.89> 1390 120<377.414 930>
DStem2: 10 0 445 120 0.551928 0.833892<340.156 1666.88>
LayerCount: 2
Fore
SplineSet
10 0 m 1,0,-1
 930 1390 l 1,1,-1
 603 1390 l 2,2,3
 336 1390 336 1390 111 1158 c 1,4,-1
 97 1158 l 1,5,-1
 300 1510 l 1,6,-1
 1365 1510 l 1,7,-1
 445 120 l 1,8,-1
 940 120 l 2,9,10
 1208 120 1208 120 1431 352 c 1,11,-1
 1446 352 l 1,12,-1
 1243 0 l 1,13,-1
 10 0 l 1,0,-1
EndSplineSet
Validated: 1
EndChar

StartChar: bracketleft
Encoding: 91 91 60
Width: 785
GlyphClass: 2
Flags: W
HStem: -200 126<480 765> 1579 131<480 765>
VStem: 180 300<-74 1579>
LayerCount: 2
Fore
SplineSet
180 -200 m 1,0,-1
 180 1710 l 1,1,-1
 765 1710 l 1,2,-1
 765 1579 l 1,3,-1
 480 1579 l 1,4,-1
 480 -74 l 1,5,-1
 765 -74 l 1,6,-1
 765 -200 l 1,7,-1
 180 -200 l 1,0,-1
EndSplineSet
Validated: 1
EndChar

StartChar: backslash
Encoding: 92 92 61
Width: 1137
GlyphClass: 2
Flags: W
DStem2: 244 1660 10 1551 0.46278 -0.886473<0 1906.77>
LayerCount: 2
Fore
SplineSet
244 1660 m 1,0,-1
 1127 -30 l 1,1,-1
 898 -150 l 1,2,-1
 10 1551 l 1,3,-1
 244 1660 l 1,0,-1
EndSplineSet
Validated: 1
EndChar

StartChar: bracketright
Encoding: 93 93 62
Width: 785
GlyphClass: 2
Flags: W
HStem: -200 126<20 305> 1579 131<20 305>
VStem: 305 300<-74 1579>
LayerCount: 2
Fore
SplineSet
605 -200 m 1,0,-1
 20 -200 l 1,1,-1
 20 -74 l 1,2,-1
 305 -74 l 1,3,-1
 305 1579 l 1,4,-1
 20 1579 l 1,5,-1
 20 1710 l 1,6,-1
 605 1710 l 1,7,-1
 605 -200 l 1,0,-1
EndSplineSet
Validated: 1
EndChar

StartChar: asciicircum
Encoding: 94 94 63
Width: 919
GlyphClass: 2
Flags: W
HStem: 1152 398
LayerCount: 2
Fore
SplineSet
332 1550 m 1,0,-1
 588 1550 l 1,1,-1
 869 1152 l 1,2,-1
 609 1152 l 1,3,4
 483 1287 483 1287 460 1448 c 1,5,6
 440 1287 440 1287 311 1152 c 1,7,-1
 50 1152 l 1,8,-1
 332 1550 l 1,0,-1
EndSplineSet
Validated: 1
EndChar

StartChar: underscore
Encoding: 95 95 64
Width: 1271
GlyphClass: 2
Flags: W
HStem: -231 144<181 1090>
LayerCount: 2
Fore
SplineSet
181 -87 m 1,0,-1
 1171 -87 l 1,1,-1
 1090 -231 l 1,2,-1
 100 -231 l 1,3,-1
 181 -87 l 1,0,-1
EndSplineSet
Validated: 1
EndChar

StartChar: grave
Encoding: 96 96 65
Width: 460
GlyphClass: 2
Flags: W
HStem: 1160 348
VStem: 50 360
LayerCount: 2
Fore
SplineSet
170 1508 m 0,0,1
 246 1508 246 1508 276 1450 c 2,2,-1
 410 1184 l 1,3,-1
 390 1160 l 1,4,-1
 106 1290 l 2,5,6
 50 1316 50 1316 50 1388 c 0,7,8
 50 1436 50 1436 82 1472 c 128,-1,9
 114 1508 114 1508 170 1508 c 0,0,1
EndSplineSet
Validated: 1
EndChar

StartChar: a
Encoding: 97 97 66
Width: 1300
GlyphClass: 2
Flags: W
HStem: -20 121<554.724 796.503> 999 121<554.847 796.562>
VStem: 70 330<320.016 784.33> 830 290<170 929.5>
LayerCount: 2
Fore
SplineSet
699 101 m 0,0,1
 770 101 770 101 803 150 c 0,2,3
 830 190 830 190 830 262 c 2,4,-1
 830 838 l 2,5,6
 830 910 830 910 803 950 c 0,7,8
 770 999 770 999 699 999 c 0,9,10
 554 999 554 999 472 862 c 0,11,12
 400 742 400 742 400 550 c 128,-1,13
 400 358 400 358 472 238 c 0,14,15
 554 101 554 101 699 101 c 0,0,1
759 -20 m 0,16,17
 419 -20 419 -20 244 138 c 0,18,19
 70 296 70 296 70 550 c 0,20,21
 70 805 70 805 234 952 c 0,22,23
 422 1120 422 1120 759 1120 c 0,24,25
 1034 1120 1034 1120 1290 998 c 1,26,-1
 1290 983 l 1,27,28
 1120 949 1120 949 1120 837 c 2,29,-1
 1120 263 l 2,30,31
 1120 150 1120 150 1290 117 c 1,32,-1
 1290 102 l 1,33,34
 1033 -20 1033 -20 759 -20 c 0,16,17
EndSplineSet
Validated: 1
EndChar

StartChar: b
Encoding: 98 98 67
Width: 1300
GlyphClass: 2
Flags: W
HStem: -20 121<503.508 746.233> 999 121<485.57 746.11> 1510 20G<352.5 470>
VStem: 180 290<170 948.742 1118 1336.75> 900 330<320.016 784.33>
LayerCount: 2
Fore
SplineSet
541 -20 m 0,0,1
 267 -20 267 -20 10 102 c 1,2,-1
 10 117 l 1,3,4
 180 150 180 150 180 263 c 2,5,-1
 180 1240 l 2,6,7
 180 1358 180 1358 10 1391 c 1,8,-1
 10 1406 l 1,9,10
 235 1511 235 1511 470 1530 c 1,11,-1
 470 1118 l 1,12,13
 500 1120 500 1120 541 1120 c 0,14,15
 878 1120 878 1120 1066 952 c 0,16,17
 1230 805 1230 805 1230 550 c 0,18,19
 1230 296 1230 296 1056 138 c 0,20,21
 881 -20 881 -20 541 -20 c 0,0,1
611 101 m 0,22,23
 746 101 746 101 828 238 c 0,24,25
 900 358 900 358 900 550 c 128,-1,26
 900 742 900 742 828 862 c 0,27,28
 746 999 746 999 611 999 c 0,29,30
 530 999 530 999 497 950 c 0,31,32
 470 910 470 910 470 838 c 2,33,-1
 470 262 l 2,34,35
 470 190 470 190 497 150 c 0,36,37
 530 101 530 101 611 101 c 0,22,23
EndSplineSet
Validated: 1
EndChar

StartChar: c
Encoding: 99 99 68
Width: 1246
GlyphClass: 2
Flags: W
HStem: -20 121<582.581 906.363> 999 121<567.642 911.844>
VStem: 70 336<321.88 780.1> 1131 15<617 639.449 1098.56 1120>
LayerCount: 2
Fore
SplineSet
710 -20 m 0,0,1
 402 -20 402 -20 236 145 c 128,-1,2
 70 310 70 310 70 550 c 0,3,4
 70 797 70 797 236 954 c 0,5,6
 411 1120 411 1120 696 1120 c 0,7,8
 841 1120 841 1120 941 1061 c 0,9,10
 980 1038 980 1038 1026 1038 c 0,11,12
 1110 1038 1110 1038 1131 1120 c 1,13,-1
 1146 1120 l 1,14,-1
 1146 617 l 1,15,-1
 1131 617 l 1,16,17
 1093 762 1093 762 1005 873 c 0,18,19
 905 999 905 999 732 999 c 0,20,21
 561 999 561 999 476 859 c 0,22,23
 406 744 406 744 406 550 c 0,24,25
 406 361 406 361 489 238 c 0,26,27
 583 101 583 101 739 101 c 0,28,29
 869 101 869 101 977 194 c 0,30,31
 1062 266 1062 266 1146 403 c 1,32,-1
 1146 190 l 1,33,34
 996 -20 996 -20 710 -20 c 0,0,1
EndSplineSet
Validated: 1
EndChar

StartChar: d
Encoding: 100 100 69
Width: 1300
GlyphClass: 2
Flags: W
HStem: -20 121<553.767 796.492> 999 121<553.89 814.43> 1510 20G<1002.5 1120>
VStem: 70 330<320.016 784.33> 830 290<170 948.742 1118 1336.75>
LayerCount: 2
Fore
SplineSet
759 -20 m 0,0,1
 419 -20 419 -20 244 138 c 0,2,3
 70 296 70 296 70 550 c 0,4,5
 70 805 70 805 234 952 c 0,6,7
 422 1120 422 1120 759 1120 c 0,8,9
 800 1120 800 1120 830 1118 c 1,10,-1
 830 1240 l 2,11,12
 830 1358 830 1358 660 1391 c 1,13,-1
 660 1406 l 1,14,15
 885 1511 885 1511 1120 1530 c 1,16,-1
 1120 263 l 2,17,18
 1120 150 1120 150 1290 117 c 1,19,-1
 1290 102 l 1,20,21
 1033 -20 1033 -20 759 -20 c 0,0,1
689 101 m 0,22,23
 770 101 770 101 803 150 c 0,24,25
 830 190 830 190 830 262 c 2,26,-1
 830 838 l 2,27,28
 830 910 830 910 803 950 c 0,29,30
 770 999 770 999 689 999 c 0,31,32
 554 999 554 999 472 862 c 0,33,34
 400 742 400 742 400 550 c 128,-1,35
 400 358 400 358 472 238 c 0,36,37
 554 101 554 101 689 101 c 0,22,23
EndSplineSet
Validated: 1
EndChar

StartChar: f
Encoding: 102 102 70
Width: 1082
GlyphClass: 2
Flags: W
HStem: 0 15<10 30.5859 614.475 640> 639 120<470 681.344> 1409 121<505.199 801.743>
VStem: 180 290<97.25 639 759 1339> 1047 15<995 1015.17>
LayerCount: 2
Fore
SplineSet
10 0 m 1,0,-1
 10 15 l 1,1,2
 180 62 180 62 180 250 c 2,3,-1
 180 1247 l 2,4,5
 180 1358 180 1358 10 1393 c 1,6,-1
 10 1408 l 1,7,8
 270 1530 270 1530 541 1530 c 0,9,10
 849 1530 849 1530 1062 1353 c 1,11,-1
 1062 995 l 1,12,-1
 1047 995 l 1,13,14
 994 1158 994 1158 910 1268 c 0,15,16
 802 1409 802 1409 628 1409 c 0,17,18
 533 1409 533 1409 500 1360 c 0,19,20
 470 1315 470 1315 470 1248 c 2,21,-1
 470 759 l 1,22,-1
 644 759 l 2,23,24
 781 759 781 759 903 850 c 1,25,-1
 918 850 l 1,26,-1
 721 530 l 1,27,-1
 706 530 l 1,28,29
 692 639 692 639 565 639 c 2,30,-1
 470 639 l 1,31,-1
 470 250 l 2,32,33
 470 54 470 54 640 15 c 1,34,-1
 640 0 l 1,35,-1
 10 0 l 1,0,-1
EndSplineSet
Validated: 1
EndChar

StartChar: h
Encoding: 104 104 71
Width: 1385
GlyphClass: 2
Flags: W
HStem: -20 21G<900 1032> 0 15<10 30.5859 619.414 640> 999 121<487.063 744.849> 1510 20G<352.5 470>
VStem: 180 290<97.25 948.588 1118 1336.75> 900 305<161.5 797.299>
LayerCount: 2
Fore
SplineSet
10 0 m 1,0,-1
 10 15 l 1,1,2
 180 62 180 62 180 250 c 2,3,-1
 180 1240 l 2,4,5
 180 1358 180 1358 10 1391 c 1,6,-1
 10 1406 l 1,7,8
 235 1511 235 1511 470 1530 c 1,9,-1
 470 1118 l 1,10,11
 500 1120 500 1120 541 1120 c 0,12,13
 878 1120 878 1120 1060 947 c 0,14,15
 1205 809 1205 809 1205 551 c 2,16,-1
 1205 255 l 2,17,18
 1205 141 1205 141 1375 109 c 1,19,-1
 1375 94 l 1,20,21
 1164 -12 1164 -12 900 -20 c 1,22,-1
 900 548 l 2,23,24
 900 739 900 739 827 861 c 0,25,26
 744 999 744 999 608 999 c 0,27,28
 533 999 533 999 500 950 c 0,29,30
 470 905 470 905 470 838 c 2,31,-1
 470 250 l 2,32,33
 470 59 470 59 640 15 c 1,34,-1
 640 0 l 1,35,-1
 10 0 l 1,0,-1
EndSplineSet
Validated: 1
EndChar

StartChar: i
Encoding: 105 105 72
Width: 650
GlyphClass: 2
Flags: W
HStem: 0 15<10 30.5859 619.414 640> 1100 20G<352.5 470> 1160 370<206.14 443.86>
VStem: 143 364<1222.58 1467.42> 180 290<96.75 926.75>
LayerCount: 2
Fore
SplineSet
10 0 m 1,0,-1
 10 15 l 1,1,2
 180 61 180 61 180 250 c 2,3,-1
 180 830 l 2,4,5
 180 948 180 948 10 981 c 1,6,-1
 10 996 l 1,7,8
 235 1101 235 1101 470 1120 c 1,9,-1
 470 250 l 2,10,11
 470 59 470 59 640 15 c 1,12,-1
 640 0 l 1,13,-1
 10 0 l 1,0,-1
325 1530 m 128,-1,15
 401 1530 401 1530 454 1476 c 128,-1,16
 507 1422 507 1422 507 1345 c 128,-1,17
 507 1268 507 1268 454 1214 c 128,-1,18
 401 1160 401 1160 325 1160 c 128,-1,19
 249 1160 249 1160 196 1214 c 128,-1,20
 143 1268 143 1268 143 1345 c 128,-1,21
 143 1422 143 1422 196 1476 c 128,-1,14
 249 1530 249 1530 325 1530 c 128,-1,15
EndSplineSet
Validated: 1
EndChar

StartChar: j
Encoding: 106 106 73
Width: 670
GlyphClass: 2
Flags: W
HStem: -430 21G<-30 230> 1100 20G<372.5 490> 1160 370<226.14 463.86>
VStem: 163 364<1222.58 1467.42> 200 290<-207.861 926.75>
LayerCount: 2
Fore
SplineSet
-30 -430 m 1,0,-1
 -30 -415 l 1,1,2
 200 -289 200 -289 200 0 c 2,3,-1
 200 830 l 2,4,5
 200 948 200 948 30 981 c 1,6,-1
 30 996 l 1,7,8
 255 1101 255 1101 490 1120 c 1,9,-1
 490 0 l 2,10,11
 490 -430 490 -430 -30 -430 c 1,0,-1
345 1530 m 128,-1,13
 421 1530 421 1530 474 1476 c 128,-1,14
 527 1422 527 1422 527 1345 c 128,-1,15
 527 1268 527 1268 474 1214 c 128,-1,16
 421 1160 421 1160 345 1160 c 128,-1,17
 269 1160 269 1160 216 1214 c 128,-1,18
 163 1268 163 1268 163 1345 c 128,-1,19
 163 1422 163 1422 216 1476 c 128,-1,12
 269 1530 269 1530 345 1530 c 128,-1,13
EndSplineSet
Validated: 1
EndChar

StartChar: l
Encoding: 108 108 74
Width: 650
GlyphClass: 2
Flags: W
HStem: 0 15<10 30.5859 619.414 640> 1510 20G<352.5 470>
VStem: 180 290<96.75 1336.75>
LayerCount: 2
Fore
SplineSet
10 0 m 1,0,-1
 10 15 l 1,1,2
 180 61 180 61 180 250 c 2,3,-1
 180 1240 l 2,4,5
 180 1358 180 1358 10 1391 c 1,6,-1
 10 1406 l 1,7,8
 235 1511 235 1511 470 1530 c 1,9,-1
 470 250 l 2,10,11
 470 59 470 59 640 15 c 1,12,-1
 640 0 l 1,13,-1
 10 0 l 1,0,-1
EndSplineSet
Validated: 1
EndChar

StartChar: m
Encoding: 109 109 75
Width: 2090
GlyphClass: 2
Flags: W
HStem: -20 21G<1605 1736> 0 15<10 30.5859 614.475 640 735 755.586 1339.48 1365> 999 121<503.867 749.002 1230.58 1449.78>
VStem: 180 290<95.75 928.5> 905 290<96.75 799.587> 1605 305<163 793.334>
LayerCount: 2
Fore
SplineSet
10 0 m 1,0,-1
 10 15 l 1,1,2
 180 59 180 59 180 250 c 2,3,-1
 180 837 l 2,4,5
 180 947 180 947 10 983 c 1,6,-1
 10 998 l 1,7,8
 270 1120 270 1120 538 1120 c 0,9,10
 801 1120 801 1120 970 1015 c 1,11,12
 1087 1120 1087 1120 1266 1120 c 0,13,14
 1593 1120 1593 1120 1765 947 c 0,15,16
 1910 801 1910 801 1910 551 c 2,17,-1
 1910 255 l 2,18,19
 1910 144 1910 144 2080 109 c 1,20,-1
 2080 94 l 1,21,22
 1867 -12 1867 -12 1605 -20 c 1,23,-1
 1605 548 l 2,24,25
 1605 739 1605 739 1532 861 c 0,26,27
 1449 999 1449 999 1333 999 c 0,28,29
 1258 999 1258 999 1225 950 c 0,30,31
 1195 905 1195 905 1195 838 c 2,32,-1
 1195 250 l 2,33,34
 1195 56 1195 56 1365 15 c 1,35,-1
 1365 0 l 1,36,-1
 735 0 l 1,37,-1
 735 15 l 1,38,39
 905 61 905 61 905 250 c 2,40,-1
 905 549 l 2,41,42
 905 736 905 736 829 862 c 0,43,44
 747 999 747 999 616 999 c 0,45,46
 533 999 533 999 500 950 c 0,47,48
 470 905 470 905 470 838 c 2,49,-1
 470 250 l 2,50,51
 470 55 470 55 640 15 c 1,52,-1
 640 0 l 1,53,-1
 10 0 l 1,0,-1
EndSplineSet
Validated: 1
EndChar

StartChar: n
Encoding: 110 110 76
Width: 1385
GlyphClass: 2
Flags: W
HStem: -20 21G<900 1032> 0 15<10 30.5859 614.475 640> 999 121<505.177 744.849>
VStem: 180 290<97.25 929> 900 305<161.5 797.299>
LayerCount: 2
Fore
SplineSet
1375 109 m 1,0,1
 1375 94 l 1,2,3
 1164 -12 1164 -12 900 -20 c 1,4,-1
 900 548 l 2,5,6
 900 739 900 739 827 861 c 0,7,8
 744 999 744 999 608 999 c 0,9,10
 533 999 533 999 500 950 c 0,11,12
 470 905 470 905 470 838 c 2,13,-1
 470 250 l 2,14,15
 470 54 470 54 640 15 c 1,16,-1
 640 0 l 1,17,-1
 10 0 l 1,18,-1
 10 15 l 1,19,20
 180 62 180 62 180 250 c 2,21,-1
 180 837 l 2,22,23
 180 948 180 948 10 983 c 1,24,-1
 10 998 l 1,25,26
 270 1120 270 1120 541 1120 c 0,27,28
 878 1120 878 1120 1060 947 c 0,29,30
 1205 809 1205 809 1205 551 c 2,31,-1
 1205 255 l 2,32,33
 1205 141 1205 141 1375 109 c 1,0,1
EndSplineSet
Validated: 1
EndChar

StartChar: o
Encoding: 111 111 77
Width: 1302
GlyphClass: 2
Flags: W
HStem: -20 121<527.951 774.049> 999 121<528.189 774.049>
VStem: 70 330<308.884 793.709> 902 330<308.884 791.116>
LayerCount: 2
Fore
SplineSet
651 101 m 128,-1,1
 767 101 767 101 834 218 c 0,2,3
 902 335 902 335 902 550 c 128,-1,4
 902 765 902 765 834 882 c 0,5,6
 767 999 767 999 651 999 c 0,7,8
 536 999 536 999 468 882 c 128,-1,9
 400 765 400 765 400 550 c 128,-1,10
 400 335 400 335 468 218 c 0,11,0
 535 101 535 101 651 101 c 128,-1,1
651 -20 m 128,-1,13
 409 -20 409 -20 247 123 c 24,14,15
 70 279 70 279 70 550 c 0,16,17
 70 822 70 822 247 977 c 0,18,19
 409 1120 409 1120 651 1120 c 128,-1,20
 893 1120 893 1120 1055 977 c 0,21,22
 1232 821 1232 821 1232 550 c 128,-1,23
 1232 279 1232 279 1055 123 c 0,24,12
 893 -20 893 -20 651 -20 c 128,-1,13
EndSplineSet
Validated: 1
EndChar

StartChar: p
Encoding: 112 112 78
Width: 1300
GlyphClass: 2
Flags: W
HStem: -410 15<10 30.5859 619.414 640> -20 121<485.559 745.153> 999 121<503.497 745.276>
VStem: 180 290<-313.25 -18 151.258 930> 900 330<315.67 779.984>
LayerCount: 2
Fore
SplineSet
10 -410 m 1,0,-1
 10 -395 l 1,1,2
 180 -349 180 -349 180 -160 c 2,3,-1
 180 837 l 2,4,5
 180 950 180 950 10 983 c 1,6,-1
 10 998 l 1,7,8
 267 1120 267 1120 541 1120 c 0,9,10
 881 1120 881 1120 1056 962 c 0,11,12
 1230 804 1230 804 1230 550 c 0,13,14
 1230 295 1230 295 1066 148 c 0,15,16
 878 -20 878 -20 541 -20 c 0,17,18
 500 -20 500 -20 470 -18 c 1,19,-1
 470 -160 l 2,20,21
 470 -351 470 -351 640 -395 c 1,22,-1
 640 -410 l 1,23,-1
 10 -410 l 1,0,-1
601 999 m 0,24,25
 530 999 530 999 497 950 c 0,26,27
 470 910 470 910 470 838 c 2,28,-1
 470 262 l 2,29,30
 470 190 470 190 497 150 c 0,31,32
 530 101 530 101 601 101 c 0,33,34
 746 101 746 101 828 238 c 0,35,36
 900 358 900 358 900 550 c 128,-1,37
 900 742 900 742 828 862 c 0,38,39
 746 999 746 999 601 999 c 0,24,25
EndSplineSet
Validated: 1
EndChar

StartChar: q
Encoding: 113 113 79
Width: 1300
GlyphClass: 2
Flags: W
HStem: -430 21G<830 947.5> -20 121<554.847 814.441> 999 121<554.724 796.503>
VStem: 70 330<315.67 779.984> 830 290<-236.75 -18 151.258 930>
LayerCount: 2
Fore
SplineSet
759 -20 m 0,0,1
 422 -20 422 -20 234 148 c 0,2,3
 70 295 70 295 70 550 c 0,4,5
 70 804 70 804 244 962 c 0,6,7
 419 1120 419 1120 759 1120 c 0,8,9
 1033 1120 1033 1120 1290 998 c 1,10,-1
 1290 983 l 1,11,12
 1120 950 1120 950 1120 837 c 2,13,-1
 1120 -140 l 2,14,15
 1120 -258 1120 -258 1290 -291 c 1,16,-1
 1290 -306 l 1,17,18
 1065 -411 1065 -411 830 -430 c 1,19,-1
 830 -18 l 1,20,21
 800 -20 800 -20 759 -20 c 0,0,1
699 999 m 0,22,23
 554 999 554 999 472 862 c 0,24,25
 400 742 400 742 400 550 c 128,-1,26
 400 358 400 358 472 238 c 0,27,28
 554 101 554 101 699 101 c 0,29,30
 770 101 770 101 803 150 c 0,31,32
 830 190 830 190 830 262 c 2,33,-1
 830 838 l 2,34,35
 830 910 830 910 803 950 c 0,36,37
 770 999 770 999 699 999 c 0,22,23
EndSplineSet
Validated: 1
EndChar

StartChar: r
Encoding: 114 114 80
Width: 1082
GlyphClass: 2
Flags: W
HStem: 0 15<10 30.5859 614.475 640> 999 121<505.199 801.743>
VStem: 180 290<97.25 929> 1047 15<585 605.168>
LayerCount: 2
Fore
SplineSet
10 0 m 1,0,-1
 10 15 l 1,1,2
 180 62 180 62 180 250 c 2,3,-1
 180 837 l 2,4,5
 180 948 180 948 10 983 c 1,6,-1
 10 998 l 1,7,8
 270 1120 270 1120 541 1120 c 0,9,10
 849 1120 849 1120 1062 943 c 1,11,-1
 1062 585 l 1,12,-1
 1047 585 l 1,13,14
 994 748 994 748 910 858 c 0,15,16
 802 999 802 999 628 999 c 0,17,18
 533 999 533 999 500 950 c 0,19,20
 470 905 470 905 470 838 c 2,21,-1
 470 250 l 2,22,23
 470 54 470 54 640 15 c 1,24,-1
 640 0 l 1,25,-1
 10 0 l 1,0,-1
EndSplineSet
Validated: 1
EndChar

StartChar: s
Encoding: 115 115 81
Width: 1070
GlyphClass: 2
Flags: W
HStem: -20 116<298.983 620.926> 1015 105<462.726 720.477>
VStem: 70 15<-20 -2.62988 449.414 472> 161 287<741.5 982.773> 700 300<184.129 375.26> 850 15<749 784.984>
DStem2: 588 771 373 546 0.883395 -0.46863<-175.229 298.229>
LayerCount: 2
Fore
SplineSet
512 -20 m 0,0,1
 382 -20 382 -20 261 42 c 16,2,3
 218 64 218 64 184 64 c 0,4,5
 117 64 117 64 85 -20 c 1,6,-1
 70 -20 l 1,7,-1
 70 472 l 1,8,-1
 85 472 l 1,9,10
 137 289 137 289 247 180 c 0,11,12
 333 96 333 96 464 96 c 0,13,14
 590 96 590 96 657 172 c 0,15,16
 700 221 700 221 700 287 c 0,17,18
 700 373 700 373 537 459 c 2,19,-1
 373 546 l 2,20,21
 161 658 161 658 161 825 c 0,22,23
 161 963 161 963 265 1048 c 0,24,25
 355 1120 355 1120 492 1120 c 0,26,27
 625 1120 625 1120 704 1082 c 0,28,29
 735 1067 735 1067 772 1067 c 0,30,31
 826 1067 826 1067 850 1120 c 1,32,-1
 865 1120 l 1,33,-1
 865 749 l 1,34,-1
 850 749 l 1,35,36
 833 856 833 856 766 936 c 0,37,38
 700 1015 700 1015 586 1015 c 0,39,40
 448 1015 448 1015 448 917 c 0,41,42
 448 843 448 843 588 771 c 2,43,-1
 741 692 l 2,44,45
 1000 558 1000 558 1000 349 c 0,46,47
 1000 193 1000 193 870 87 c 0,48,49
 739 -20 739 -20 512 -20 c 0,0,1
EndSplineSet
Validated: 1
EndChar

StartChar: t
Encoding: 116 116 82
Width: 1026
GlyphClass: 2
Flags: W
HStem: 0 15<203 223.586 802.414 823> 980 120<247.948 373 653 778.052> 1510 20G<540.5 653>
VStem: 373 280<96.75 980 1100 1336.75>
LayerCount: 2
Fore
SplineSet
203 0 m 1,0,-1
 203 15 l 1,1,2
 373 61 373 61 373 250 c 2,3,-1
 373 980 l 1,4,-1
 284 980 l 2,5,6
 147 980 147 980 25 889 c 1,7,-1
 10 889 l 1,8,-1
 207 1209 l 1,9,-1
 222 1209 l 1,10,11
 236 1100 236 1100 373 1100 c 1,12,-1
 373 1240 l 2,13,14
 373 1358 373 1358 203 1391 c 1,15,-1
 203 1406 l 1,16,17
 428 1511 428 1511 653 1530 c 1,18,-1
 653 1100 l 1,19,-1
 742 1100 l 2,20,21
 879 1100 879 1100 1001 1191 c 1,22,-1
 1016 1191 l 1,23,-1
 819 871 l 1,24,-1
 804 871 l 1,25,26
 790 980 790 980 653 980 c 1,27,-1
 653 250 l 2,28,29
 653 59 653 59 823 15 c 1,30,-1
 823 0 l 1,31,-1
 203 0 l 1,0,-1
EndSplineSet
Validated: 1
EndChar

StartChar: u
Encoding: 117 117 83
Width: 1385
GlyphClass: 2
Flags: W
HStem: -20 121<640.151 879.823> 1100 20G<353 485 1081 1205>
VStem: 180 305<302.701 938.5> 915 290<171 938.5>
LayerCount: 2
Fore
SplineSet
844 -20 m 0,0,1
 507 -20 507 -20 325 153 c 0,2,3
 180 291 180 291 180 549 c 2,4,-1
 180 845 l 2,5,6
 180 959 180 959 10 991 c 1,7,-1
 10 1006 l 1,8,9
 221 1112 221 1112 485 1120 c 1,10,-1
 485 552 l 2,11,12
 485 361 485 361 558 239 c 0,13,14
 641 101 641 101 777 101 c 0,15,16
 852 101 852 101 885 150 c 0,17,18
 915 195 915 195 915 262 c 2,19,-1
 915 845 l 2,20,21
 915 959 915 959 745 991 c 1,22,-1
 745 1006 l 1,23,24
 957 1112 957 1112 1205 1120 c 9,25,-1
 1205 263 l 2,26,27
 1205 152 1205 152 1375 117 c 1,28,-1
 1375 102 l 1,29,30
 1115 -20 1115 -20 844 -20 c 0,0,1
EndSplineSet
Validated: 1
EndChar

StartChar: braceleft
Encoding: 123 123 84
Width: 768
GlyphClass: 2
Flags: W
HStem: -200 82<611.817 748> 1628 82<611.789 748>
VStem: 220 300<0.726807 633.512 870.91 1509.1>
LayerCount: 2
Fore
SplineSet
748 1710 m 1,0,-1
 748 1628 l 1,1,2
 655 1628 655 1628 594 1574 c 0,3,4
 520 1510 520 1510 520 1301 c 2,5,-1
 520 1027 l 2,6,7
 520 796 520 796 257 755 c 1,8,9
 520 705 520 705 520 483 c 2,10,-1
 520 209 l 2,11,12
 520 0 520 0 594 -64 c 0,13,14
 655 -118 655 -118 748 -118 c 1,15,-1
 748 -200 l 1,16,17
 472 -200 472 -200 344 -99 c 0,18,19
 220 -1 220 -1 220 214 c 2,20,-1
 220 482 l 2,21,22
 220 693 220 693 20 755 c 1,23,24
 220 815 220 815 220 1028 c 2,25,-1
 220 1296 l 2,26,27
 220 1509 220 1509 344 1609 c 0,28,29
 469 1710 469 1710 748 1710 c 1,0,-1
EndSplineSet
Validated: 1
EndChar

StartChar: bar
Encoding: 124 124 85
Width: 635
GlyphClass: 2
Flags: W
VStem: 180 275<-150 1660>
LayerCount: 2
Fore
SplineSet
180 -150 m 1,0,-1
 180 1660 l 1,1,-1
 455 1660 l 1,2,-1
 455 -150 l 1,3,-1
 180 -150 l 1,0,-1
EndSplineSet
Validated: 1
EndChar

StartChar: braceright
Encoding: 125 125 86
Width: 768
GlyphClass: 2
Flags: W
HStem: -200 82<20 156.183> 1628 82<20 156.211>
VStem: 248 300<-0.547852 633.512 870.91 1509.1>
LayerCount: 2
Fore
SplineSet
20 1710 m 1,0,1
 299 1710 299 1710 424 1609 c 0,2,3
 548 1509 548 1509 548 1296 c 2,4,-1
 548 1028 l 2,5,6
 548 815 548 815 748 755 c 1,7,8
 548 693 548 693 548 482 c 2,9,-1
 548 214 l 2,10,11
 548 -2 548 -2 424 -99 c 0,12,13
 296 -200 296 -200 20 -200 c 1,14,-1
 20 -118 l 1,15,16
 113 -118 113 -118 174 -64 c 0,17,18
 248 0 248 0 248 209 c 2,19,-1
 248 483 l 2,20,21
 248 705 248 705 511 755 c 1,22,23
 248 796 248 796 248 1027 c 2,24,-1
 248 1301 l 2,25,26
 248 1510 248 1510 174 1574 c 0,27,28
 113 1628 113 1628 20 1628 c 1,29,-1
 20 1710 l 1,0,1
EndSplineSet
Validated: 1
EndChar

StartChar: asciitilde
Encoding: 126 126 87
Width: 1213
GlyphClass: 2
Flags: W
HStem: 583 181<726.738 977.402> 745 181<229.766 487.262>
DStem2: 776 787 438 722 0.915812 -0.401606<-388.206 103.878>
LayerCount: 2
Fore
SplineSet
392 926 m 0,0,1
 459 926 459 926 532 894 c 2,2,-1
 776 787 l 2,3,4
 828 764 828 764 881 764 c 0,5,6
 1036 764 1036 764 1094 900 c 1,7,-1
 1113 900 l 1,8,9
 1069 583 1069 583 822 583 c 0,10,11
 755 583 755 583 682 615 c 2,12,-1
 438 722 l 2,13,14
 386 745 386 745 332 745 c 0,15,16
 178 745 178 745 120 609 c 1,17,-1
 100 609 l 1,18,19
 133 926 133 926 392 926 c 0,0,1
EndSplineSet
Validated: 1
EndChar

StartChar: exclamdown
Encoding: 161 161 89
Width: 664
GlyphClass: 2
Flags: W
HStem: -430 21G<294 370> 750 370<213.14 450.86>
VStem: 150 364<-367.422 84.6875 812.578 1057.42>
LayerCount: 2
Fore
SplineSet
332 1120 m 128,-1,1
 408 1120 408 1120 461 1066 c 128,-1,2
 514 1012 514 1012 514 935 c 128,-1,3
 514 858 514 858 461 804 c 128,-1,4
 408 750 408 750 332 750 c 128,-1,5
 256 750 256 750 203 804 c 128,-1,6
 150 858 150 858 150 935 c 128,-1,7
 150 1012 150 1012 203 1066 c 128,-1,0
 256 1120 256 1120 332 1120 c 128,-1,1
332 -430 m 128,-1,9
 256 -430 256 -430 203 -376 c 128,-1,10
 150 -322 150 -322 150 -245 c 0,11,12
 150 -231 150 -231 151 -224 c 2,13,-1
 274 674 l 1,14,-1
 390 674 l 1,15,-1
 513 -224 l 2,16,17
 514 -231 514 -231 514 -245 c 0,18,19
 514 -322 514 -322 461 -376 c 128,-1,8
 408 -430 408 -430 332 -430 c 128,-1,9
EndSplineSet
Validated: 1
EndChar

StartChar: cent
Encoding: 162 162 90
Width: 1246
GlyphClass: 2
Flags: W
HStem: -16 120<787 911.942> 995 118<788 917.692>
VStem: 70 336<321.88 780.1> 658 129<-76 -19 111 992 1119 1176> 1131 15<617 639.449 1098.56 1120>
LayerCount: 2
Fore
SplineSet
658 -19 m 1,0,1
 388 -6 388 -6 236 145 c 0,2,3
 70 310 70 310 70 550 c 0,4,5
 70 797 70 797 236 954 c 0,6,7
 399 1109 399 1109 658 1119 c 1,8,-1
 658 1176 l 1,9,-1
 788 1250 l 1,10,-1
 788 1113 l 1,11,12
 875 1100 875 1100 941 1061 c 0,13,14
 980 1038 980 1038 1026 1038 c 0,15,16
 1110 1038 1110 1038 1131 1120 c 1,17,-1
 1146 1120 l 1,18,-1
 1146 617 l 1,19,-1
 1131 617 l 1,20,21
 1093 762 1093 762 1005 873 c 0,22,23
 922 978 922 978 788 995 c 1,24,-1
 787 104 l 1,25,26
 889 118 889 118 977 194 c 0,27,28
 1062 266 1062 266 1146 403 c 1,29,-1
 1146 190 l 1,30,31
 1017 9 1017 9 787 -16 c 1,32,-1
 787 -76 l 1,33,-1
 658 -150 l 1,34,-1
 658 -19 l 1,0,1
658 992 m 1,35,36
 541 967 541 967 476 859 c 0,37,38
 406 744 406 744 406 550 c 0,39,40
 406 361 406 361 489 238 c 0,41,42
 557 139 557 139 658 111 c 1,43,-1
 658 992 l 1,35,36
EndSplineSet
Validated: 1
EndChar

StartChar: sterling
Encoding: 163 163 91
Width: 1285
GlyphClass: 2
Flags: W
HStem: 0 120<551.719 921.102> 0 15<50 70.5859> 535 119<118 220 540 844> 1416 114<611.776 785.627>
VStem: 220 320<123.688 535 654 1313.51> 704 364<1119.63 1362.38>
LayerCount: 2
Fore
SplineSet
50 0 m 1,0,-1
 50 15 l 1,1,2
 220 60 220 60 220 250 c 2,3,-1
 220 535 l 1,4,-1
 50 535 l 1,5,-1
 118 654 l 1,6,-1
 220 654 l 1,7,-1
 220 1116 l 2,8,9
 220 1304 220 1304 344 1419 c 0,10,11
 463 1530 463 1530 697 1530 c 0,12,13
 910 1530 910 1530 1018 1395 c 0,14,15
 1068 1332 1068 1332 1068 1251 c 0,16,17
 1068 1163 1068 1163 1013 1107 c 0,18,19
 962 1054 962 1054 885 1054 c 0,20,21
 810 1054 810 1054 757 1109 c 0,22,23
 704 1163 704 1163 704 1240 c 0,24,25
 704 1318 704 1318 757 1371 c 0,26,27
 771 1385 771 1385 787 1396 c 1,28,29
 758 1416 758 1416 714 1416 c 0,30,31
 651 1416 651 1416 606 1367 c 24,32,33
 540 1295 540 1295 540 1115 c 2,34,-1
 540 654 l 1,35,-1
 912 654 l 1,36,-1
 844 535 l 1,37,-1
 540 535 l 1,38,-1
 540 251 l 2,39,40
 540 175 540 175 570 120 c 1,41,-1
 672 120 l 2,42,43
 965 120 965 120 1220 345 c 9,44,-1
 1235 345 l 1,45,-1
 1032 0 l 1,46,-1
 50 0 l 1,0,-1
EndSplineSet
Validated: 1
EndChar

StartChar: currency
Encoding: 164 164 92
Width: 1526
GlyphClass: 2
Flags: W
HStem: 190 121<645.167 890.277> 1209 121<644.791 888.57>
VStem: 186 330<515.506 1000.65> 1018 330<518.735 1000.36>
DStem2: 308 1361 140 1193 0.707107 -0.707107<0 184.342 1322.08 1524.52> 140 282 308 114 0.706779 0.707435<0 209.29 1345.01 1525.12>
LayerCount: 2
Fore
SplineSet
767 311 m 128,-1,1
 883 311 883 311 950 428 c 0,2,3
 1018 545 1018 545 1018 760 c 128,-1,4
 1018 975 1018 975 950 1092 c 0,5,6
 883 1209 883 1209 767 1209 c 0,7,8
 652 1209 652 1209 584 1092 c 128,-1,9
 516 975 516 975 516 760 c 128,-1,10
 516 545 516 545 584 428 c 0,11,0
 651 311 651 311 767 311 c 128,-1,1
767 1330 m 0,12,13
 958 1330 958 1330 1099 1241 c 1,14,-1
 1218 1361 l 1,15,-1
 1386 1193 l 1,16,-1
 1267 1074 l 1,17,18
 1348 943 1348 943 1348 760 c 0,19,20
 1348 558 1348 558 1249 420 c 1,21,-1
 1386 283 l 1,22,-1
 1219 114 l 1,23,-1
 1071 262 l 1,24,25
 939 190 939 190 767 190 c 0,26,27
 592 190 592 190 458 265 c 1,28,-1
 308 114 l 1,29,-1
 140 282 l 1,30,-1
 281 424 l 1,31,32
 186 561 186 561 186 760 c 0,33,34
 186 940 186 940 264 1069 c 1,35,-1
 140 1193 l 1,36,-1
 308 1361 l 1,37,-1
 431 1238 l 1,38,39
 573 1330 573 1330 767 1330 c 0,12,13
EndSplineSet
Validated: 1
EndChar

StartChar: yen
Encoding: 165 165 93
Width: 1777
GlyphClass: 2
Flags: W
HStem: 0 15<559 584.375 1191.63 1217> 327 121<424 728 1048 1356> 525 121<424 647 1129 1356> 1495 15<10 29.9258 700.484 717 1266 1282.82 1751.57 1767>
VStem: 728 320<94.25 327 448 510>
DStem2: 993 671 647 646 0.512471 -0.858704<-787.522 -155.847 -14.5338 0> 993 671 1129 646 0.511967 0.859005<48.1524 787.854>
LayerCount: 2
Fore
SplineSet
559 0 m 1,0,-1
 559 15 l 1,1,2
 728 57 728 57 728 250 c 2,3,-1
 728 327 l 1,4,-1
 354 327 l 1,5,-1
 424 448 l 1,6,-1
 728 448 l 1,7,-1
 728 511 l 1,8,-1
 720 525 l 1,9,-1
 354 525 l 1,10,-1
 424 646 l 1,11,-1
 647 646 l 1,12,-1
 281 1260 l 2,13,14
 171 1444 171 1444 10 1495 c 1,15,-1
 10 1510 l 1,16,-1
 717 1510 l 1,17,-1
 717 1495 l 1,18,19
 607 1457 607 1457 607 1359 c 0,20,21
 607 1319 607 1319 639 1265 c 2,22,-1
 993 671 l 1,23,-1
 1346 1265 l 2,24,25
 1378 1319 1378 1319 1378 1360 c 0,26,27
 1378 1456 1378 1456 1266 1495 c 1,28,-1
 1266 1510 l 1,29,-1
 1767 1510 l 1,30,-1
 1767 1495 l 1,31,32
 1601 1438 1601 1438 1495 1260 c 2,33,-1
 1129 646 l 1,34,-1
 1422 646 l 1,35,-1
 1356 525 l 1,36,-1
 1057 525 l 1,37,-1
 1048 510 l 1,38,-1
 1048 448 l 1,39,-1
 1422 448 l 1,40,-1
 1356 327 l 1,41,-1
 1048 327 l 1,42,-1
 1048 250 l 2,43,44
 1048 56 1048 56 1217 15 c 1,45,-1
 1217 0 l 1,46,-1
 559 0 l 1,0,-1
EndSplineSet
Validated: 1
EndChar

StartChar: brokenbar
Encoding: 166 166 94
Width: 634
GlyphClass: 2
Flags: W
VStem: 180 274<-150 661 850 1660>
LayerCount: 2
Fore
SplineSet
180 -150 m 1,0,-1
 180 661 l 1,1,-1
 454 661 l 1,2,-1
 454 -150 l 1,3,-1
 180 -150 l 1,0,-1
180 1660 m 1,4,-1
 454 1660 l 1,5,-1
 454 850 l 1,6,-1
 180 850 l 1,7,-1
 180 1660 l 1,4,-1
EndSplineSet
Validated: 1
EndChar

StartChar: section
Encoding: 167 167 95
Width: 1162
GlyphClass: 2
Flags: W
HStem: -20 103<478.495 665.243> 1427 103<496.757 683.005>
VStem: 100 256<701.134 895.825> 210 310<106.442 326.073> 223 238<1211.72 1396.9> 642 310<1183.93 1403.56> 701 238<113.102 298.284> 806 256<614.175 808.866>
DStem2: 547 611 376 447 0.910916 -0.412591<-209.57 271.992> 631 1132 445 976 0.910916 -0.412591<-190.433 291.129>
LayerCount: 2
Fore
SplineSet
568 -20 m 0,0,1
 356 -20 356 -20 260 89 c 0,2,3
 210 146 210 146 210 216 c 0,4,5
 210 280 210 280 256 328 c 0,6,7
 299 373 299 373 364.5 373 c 128,-1,8
 430 373 430 373 475 327.5 c 128,-1,9
 520 282 520 282 520 216 c 0,10,11
 519 151 519 151 475 105 c 1,12,13
 513 83 513 83 562 83 c 0,14,15
 625 83 625 83 661 114 c 0,16,17
 701 149 701 149 701 210 c 0,18,19
 701 302 701 302 531 378 c 2,20,-1
 376 447 l 2,21,22
 100 570 100 570 100 759 c 0,23,24
 100 911 100 911 230 1020 c 1,25,-1
 431 919 l 1,26,27
 356 874 356 874 356 785 c 0,28,29
 356 698 356 698 547 611 c 2,30,-1
 717 534 l 2,31,32
 939 433 939 433 939 262 c 0,33,34
 939 128 939 128 840 52 c 0,35,36
 745 -20 745 -20 568 -20 c 0,0,1
594 1530 m 0,37,38
 806 1530 806 1530 902 1421 c 0,39,40
 952 1364 952 1364 952 1294 c 0,41,42
 952 1230 952 1230 906 1182 c 0,43,44
 863 1137 863 1137 797.5 1137 c 128,-1,45
 732 1137 732 1137 687 1182.5 c 128,-1,46
 642 1228 642 1228 642 1293.5 c 128,-1,47
 642 1359 642 1359 686 1405 c 1,48,49
 648 1427 648 1427 600 1427 c 0,50,51
 537 1427 537 1427 501 1396 c 0,52,53
 461 1361 461 1361 461 1300 c 0,54,55
 461 1208 461 1208 631 1132 c 2,56,-1
 786 1063 l 2,57,58
 1062 940 1062 940 1062 751 c 0,59,60
 1062 599 1062 599 932 490 c 1,61,-1
 731 591 l 1,62,63
 806 636 806 636 806 725 c 0,64,65
 806 812 806 812 615 899 c 2,66,-1
 445 976 l 2,67,68
 223 1077 223 1077 223 1248 c 0,69,70
 223 1382 223 1382 322 1458 c 0,71,72
 417 1530 417 1530 594 1530 c 0,37,38
EndSplineSet
Validated: 1
EndChar

StartChar: dieresis
Encoding: 168 168 96
Width: 758
GlyphClass: 2
Flags: W
HStem: 1170 314<96.4111 313.589 444.411 661.589>
VStem: 50 310<1216.93 1436.56> 398 310<1216.93 1436.56>
LayerCount: 2
Fore
SplineSet
553 1484 m 128,-1,1
 618 1484 618 1484 663 1438 c 128,-1,2
 708 1392 708 1392 708 1326.5 c 128,-1,3
 708 1261 708 1261 663 1215.5 c 128,-1,4
 618 1170 618 1170 553 1170 c 128,-1,5
 488 1170 488 1170 443 1215.5 c 128,-1,6
 398 1261 398 1261 398 1326.5 c 128,-1,7
 398 1392 398 1392 443 1438 c 128,-1,0
 488 1484 488 1484 553 1484 c 128,-1,1
205 1484 m 128,-1,9
 270 1484 270 1484 315 1438 c 128,-1,10
 360 1392 360 1392 360 1326.5 c 128,-1,11
 360 1261 360 1261 315 1215.5 c 128,-1,12
 270 1170 270 1170 205 1170 c 128,-1,13
 140 1170 140 1170 95 1215.5 c 128,-1,14
 50 1261 50 1261 50 1326.5 c 128,-1,15
 50 1392 50 1392 95 1438 c 128,-1,8
 140 1484 140 1484 205 1484 c 128,-1,9
EndSplineSet
Validated: 1
EndChar

StartChar: copyright
Encoding: 169 169 97
Width: 1301
GlyphClass: 2
Flags: W
HStem: 386 73<464.363 828.202> 568 70<592.959 824.454> 1281 71<603.579 829.398> 1453 77<466.855 833.191>
VStem: 100 74<768.815 1151.31> 266 215<761.524 1157.35> 946 15<1042 1063.88> 1126 75<757.376 1158.43>
LayerCount: 2
Fore
SplineSet
649 1453 m 0,0,1
 459 1453 459 1453 317 1312 c 0,2,3
 174 1170 174 1170 174 953 c 0,4,5
 174 760 174 760 314 605 c 0,6,7
 445 459 445 459 651 459 c 0,8,9
 842 459 842 459 987 605 c 0,10,11
 1126 745 1126 745 1126 953 c 0,12,13
 1126 1174 1126 1174 989 1309 c 0,14,15
 975 1323 975 1323 961 1335 c 1,16,-1
 961 1042 l 1,17,-1
 946 1042 l 1,18,19
 878 1281 878 1281 726 1281 c 0,20,21
 602 1281 602 1281 533 1175 c 0,22,23
 481 1095 481 1095 481 956 c 0,24,25
 481 832 481 832 536 737 c 0,26,27
 593 638 593 638 706 638 c 0,28,29
 796 638 796 638 857 698 c 0,30,31
 917 757 917 757 961 839 c 1,32,-1
 961 702 l 1,33,34
 857 568 857 568 676 568 c 0,35,36
 492 568 492 568 392 659 c 0,37,38
 266 774 266 774 266 946 c 0,39,40
 266 1120 266 1120 353 1220 c 0,41,42
 468 1352 468 1352 666 1352 c 0,43,44
 759 1352 759 1352 812 1327.5 c 128,-1,45
 865 1303 865 1303 882 1303 c 0,46,47
 930 1303 930 1303 945 1348 c 1,48,49
 814 1453 814 1453 649 1453 c 0,0,1
651 1530 m 0,50,51
 893 1530 893 1530 1049 1357 c 0,52,53
 1201 1188 1201 1188 1201 953 c 0,54,55
 1201 701 1201 701 1040 549 c 0,56,57
 869 386 869 386 649 386 c 0,58,59
 426 386 426 386 261 549 c 0,60,61
 100 708 100 708 100 953 c 0,62,63
 100 1197 100 1197 258 1362 c 0,64,65
 419 1530 419 1530 651 1530 c 0,50,51
EndSplineSet
Validated: 1
EndChar

StartChar: ordfeminine
Encoding: 170 170 98
Width: 693
GlyphClass: 2
Flags: W
HStem: 800 161<141 552> 1002 72<270.315 361.974> 1508 72<186.512 343.898>
VStem: 50 198<1086.94 1268.36> 106 16<1367 1383.94> 368 190<1101.35 1299 1371 1482.18>
LayerCount: 2
Fore
SplineSet
314 1580 m 0,0,1
 425 1580 425 1580 492 1535 c 0,2,3
 558 1490 558 1490 558 1406 c 2,4,-1
 558 1147 l 2,5,6
 558 1092 558 1092 643 1077 c 1,7,-1
 643 1066 l 1,8,9
 514 1002 514 1002 348 1002 c 0,10,11
 178 1002 178 1002 113 1049 c 0,12,13
 50 1096 50 1096 50 1178 c 0,14,15
 50 1258 50 1258 125 1310 c 0,16,17
 202 1363 202 1363 368 1371 c 1,18,-1
 368 1405 l 2,19,20
 368 1457 368 1457 341 1483 c 0,21,22
 315 1508 315 1508 270 1508 c 0,23,24
 220 1508 220 1508 184 1471 c 0,25,26
 151 1437 151 1437 122 1367 c 1,27,-1
 106 1367 l 1,28,-1
 106 1523 l 1,29,30
 198 1580 198 1580 314 1580 c 0,0,1
368 1299 m 1,31,32
 317 1290 317 1290 293 1269 c 0,33,34
 248 1228 248 1228 248 1170 c 0,35,36
 248 1121 248 1121 275 1093 c 0,37,38
 292 1074 292 1074 318 1074 c 128,-1,39
 344 1074 344 1074 361 1101 c 0,40,41
 368 1112 368 1112 368 1146 c 2,42,-1
 368 1299 l 1,31,32
141 961 m 1,43,-1
 643 961 l 1,44,-1
 552 800 l 1,45,-1
 50 800 l 1,46,-1
 141 961 l 1,43,-1
EndSplineSet
Validated: 1
EndChar

StartChar: guillemotleft
Encoding: 171 171 99
Width: 1246
GlyphClass: 2
Flags: W
DStem2: 314 804 100 720 0.575863 -0.817546<0 615.081> 100 720 314 804 0.55378 0.832663<188.453 753.006> 752 804 538 720 0.575863 -0.817546<0 615.081> 538 720 752 804 0.55378 0.832663<188.453 753.006>
LayerCount: 2
Fore
SplineSet
955 1347 m 1,0,-1
 1066 1277 l 1,1,-1
 752 804 l 1,2,-1
 1106 301 l 1,3,-1
 924 172 l 1,4,-1
 538 720 l 1,5,-1
 955 1347 l 1,0,-1
517 1347 m 1,6,-1
 628 1277 l 1,7,-1
 314 804 l 1,8,-1
 668 301 l 1,9,-1
 486 172 l 1,10,-1
 100 720 l 1,11,-1
 517 1347 l 1,6,-1
EndSplineSet
Validated: 1
EndChar

StartChar: logicalnot
Encoding: 172 172 100
Width: 1183
GlyphClass: 2
Flags: W
HStem: 649 211<219 778>
DStem2: 607 349 792 349 0.494856 0.868975<91.5484 345.313>
LayerCount: 2
Fore
SplineSet
219 860 m 1,0,-1
 1083 860 l 1,1,-1
 792 349 l 1,2,-1
 607 349 l 1,3,-1
 778 649 l 1,4,-1
 100 649 l 1,5,-1
 219 860 l 1,0,-1
EndSplineSet
Validated: 1
EndChar

StartChar: uni00AD
Encoding: 173 173 101
Width: 1273
GlyphClass: 2
Flags: W
HStem: 649 211<219 1054>
LayerCount: 2
Fore
SplineSet
219 860 m 1,0,-1
 1173 860 l 1,1,-1
 1054 649 l 1,2,-1
 100 649 l 1,3,-1
 219 860 l 1,0,-1
EndSplineSet
Validated: 1
EndChar

StartChar: registered
Encoding: 174 174 102
Width: 1301
GlyphClass: 2
Flags: W
HStem: 386 73<466.16 812.995> 570 16<657.775 680> 1277 70<610.875 739.052> 1453 77<466.855 834.866>
VStem: 100 74<768.815 1151.31> 395 200<604.475 825 895.538 1255.2> 791 213<935.023 1218.58> 1126 75<757.376 1158.43>
LayerCount: 2
Fore
SplineSet
649 1453 m 0,0,1
 459 1453 459 1453 317 1312 c 0,2,3
 174 1170 174 1170 174 953 c 0,4,5
 174 760 174 760 314 605 c 0,6,7
 320 598 320 598 327 591 c 1,8,9
 395 617 395 617 395 702 c 2,10,-1
 395 1199 l 2,11,12
 395 1246 395 1246 310 1271 c 1,13,-1
 310 1280 l 1,14,15
 463 1347 463 1347 642 1347 c 0,16,17
 816 1347 816 1347 910 1270 c 0,18,19
 1004 1194 1004 1194 1004 1079.5 c 128,-1,20
 1004 965 1004 965 918 890 c 0,21,22
 884 860 884 860 822 841 c 1,23,24
 900 819 900 819 932 739 c 2,25,-1
 986 604 l 2,26,27
 987 605 l 0,28,29
 1126 745 1126 745 1126 953 c 0,30,31
 1126 1174 1126 1174 989 1309 c 0,32,33
 843 1453 843 1453 649 1453 c 0,0,1
651 1530 m 0,34,35
 893 1530 893 1530 1049 1357 c 0,36,37
 1201 1188 1201 1188 1201 953 c 0,38,39
 1201 701 1201 701 1040 549 c 0,40,41
 869 386 869 386 649 386 c 0,42,43
 426 386 426 386 261 549 c 0,44,45
 100 708 100 708 100 953 c 0,46,47
 100 1197 100 1197 258 1362 c 0,48,49
 419 1530 419 1530 651 1530 c 0,34,35
595 825 m 1,50,-1
 595 702 l 2,51,52
 595 609 595 609 680 586 c 1,53,-1
 680 570 l 1,54,-1
 349 570 l 1,55,56
 472 459 472 459 651 459 c 0,57,58
 738 459 738 459 815 489 c 1,59,-1
 721 725 l 2,60,61
 689 805 689 805 652 815 c 1,62,63
 618 817 618 817 595 825 c 1,50,-1
663 1277 m 0,64,65
 637 1277 637 1277 618 1262 c 0,66,67
 595 1245 595 1245 595 1199 c 2,68,-1
 595 958 l 2,69,70
 595 912 595 912 618 895 c 0,71,72
 637 880 637 880 663 880 c 0,73,74
 704 880 704 880 741 916 c 0,75,76
 791 965 791 965 791 1078 c 0,77,78
 791 1192 791 1192 741 1241 c 0,79,80
 704 1277 704 1277 663 1277 c 0,64,65
EndSplineSet
Validated: 1
EndChar

StartChar: macron
Encoding: 175 175 103
Width: 735
GlyphClass: 2
Flags: W
HStem: 1230 161<141 594>
VStem: 50 635
LayerCount: 2
Fore
SplineSet
141 1391 m 1,0,-1
 685 1391 l 1,1,-1
 594 1230 l 1,2,-1
 50 1230 l 1,3,-1
 141 1391 l 1,0,-1
EndSplineSet
Validated: 1
EndChar

StartChar: degree
Encoding: 176 176 104
Width: 680
GlyphClass: 2
Flags: W
HStem: 1019 92<264.339 415.611> 1502 92<264.841 415.099>
VStem: 50 178<1156.64 1455.52> 452 178<1155.7 1455.43>
LayerCount: 2
Fore
SplineSet
340 1594 m 0,0,1
 448 1594 448 1594 532 1524 c 0,2,3
 630 1442 630 1442 630 1306 c 0,4,5
 630 1166 630 1166 532 1088 c 0,6,7
 447 1019 447 1019 341 1019 c 0,8,9
 231 1019 231 1019 148 1088 c 0,10,11
 50 1170 50 1170 50 1307 c 0,12,13
 50 1442 50 1442 148 1524 c 0,14,15
 231 1594 231 1594 340 1594 c 0,0,1
340 1502 m 0,16,17
 293 1502 293 1502 258 1448 c 0,18,19
 228 1402 228 1402 228 1306 c 0,20,21
 228 1213 228 1213 258 1164 c 0,22,23
 291 1111 291 1111 340 1111 c 128,-1,24
 389 1111 389 1111 422 1164 c 0,25,26
 452 1213 452 1213 452 1306.5 c 128,-1,27
 452 1400 452 1400 422 1448 c 0,28,29
 389 1502 389 1502 340 1502 c 0,16,17
EndSplineSet
Validated: 1
EndChar

StartChar: plusminus
Encoding: 177 177 105
Width: 1273
GlyphClass: 2
Flags: W
HStem: 180 211<219 1054> 831 211<219 531 742 1054>
VStem: 531 211<519 831 1042 1354>
LayerCount: 2
Fore
SplineSet
219 391 m 1,0,-1
 1173 391 l 1,1,-1
 1054 180 l 1,2,-1
 100 180 l 1,3,-1
 219 391 l 1,0,-1
742 1473 m 1,4,-1
 742 1042 l 1,5,-1
 1173 1042 l 1,6,-1
 1054 831 l 1,7,-1
 742 831 l 1,8,-1
 742 519 l 1,9,-1
 531 400 l 1,10,-1
 531 831 l 1,11,-1
 100 831 l 1,12,-1
 219 1042 l 1,13,-1
 531 1042 l 1,14,-1
 531 1354 l 1,15,-1
 742 1473 l 1,4,-1
EndSplineSet
Validated: 1
EndChar

StartChar: uni00B2
Encoding: 178 178 106
Width: 734
GlyphClass: 2
Flags: W
HStem: 799 160<301.182 582.775> 841 157<185.668 502.393> 1510 70<206.204 395.195>
VStem: 78 15<1305 1323.7> 431 215<1240.94 1468.2>
LayerCount: 2
Fore
SplineSet
356 1580 m 0,0,1
 497 1580 497 1580 570 1517 c 0,2,3
 646 1452 646 1452 646 1349 c 0,4,5
 646 1220 646 1220 514 1154 c 0,6,7
 338 1067 338 1067 262 989 c 1,8,9
 295 998 295 998 338 998 c 128,-1,10
 381 998 381 998 440.5 978.5 c 128,-1,11
 500 959 500 959 554.5 959 c 128,-1,12
 609 959 609 959 669 1006 c 1,13,-1
 684 1006 l 1,14,15
 617 799 617 799 453 799 c 24,16,17
 421 799 421 799 350 819 c 0,18,19
 272 841 272 841 210 841 c 0,20,21
 123 841 123 841 65 798 c 1,22,-1
 50 798 l 1,23,24
 89 952 89 952 165 1035 c 0,25,26
 243 1120 243 1120 337 1192 c 0,27,28
 431 1265 431 1265 431 1362 c 0,29,30
 431 1420 431 1420 412 1453 c 0,31,32
 379 1510 379 1510 315 1510 c 0,33,34
 233 1510 233 1510 179.5 1451 c 128,-1,35
 126 1392 126 1392 93 1305 c 1,36,-1
 78 1305 l 1,37,-1
 78 1480 l 1,38,39
 178 1580 178 1580 356 1580 c 0,0,1
EndSplineSet
Validated: 1
EndChar

StartChar: uni00B3
Encoding: 179 179 107
Width: 666
GlyphClass: 2
Flags: W
HStem: 797 71<139.73 348.427> 1229 21<218 246.228> 1510 70<163.808 332.794>
VStem: 50 15<1004.37 1022> 93 15<1379 1403.44> 354 197<1298.05 1484.13> 406 210<917.528 1173.22>
LayerCount: 2
Fore
SplineSet
304 1580 m 0,0,1
 421 1580 421 1580 486 1531 c 128,-1,2
 551 1482 551 1482 551 1398 c 128,-1,3
 551 1314 551 1314 453 1259 c 1,4,5
 616 1205 616 1205 616 1046 c 0,6,7
 616 934 616 934 530 866 c 0,8,9
 443 797 443 797 300 797 c 0,10,11
 144 797 144 797 50 861 c 1,12,-1
 50 1022 l 1,13,-1
 65 1022 l 1,14,15
 89 963 89 963 107 937 c 0,16,17
 155 868 155 868 244 868 c 0,18,19
 325 868 325 868 364 918 c 0,20,21
 406 972 406 972 406 1052 c 0,22,23
 406 1214 406 1214 218 1229 c 1,24,-1
 218 1250 l 1,25,26
 282 1266 282 1266 318 1305 c 128,-1,27
 354 1344 354 1344 354 1403 c 0,28,29
 354 1448 354 1448 334 1474 c 0,30,31
 307 1510 307 1510 253.5 1510 c 128,-1,32
 200 1510 200 1510 164 1477 c 0,33,34
 124 1442 124 1442 108 1379 c 1,35,-1
 93 1379 l 1,36,-1
 93 1518 l 1,37,38
 183 1580 183 1580 304 1580 c 0,0,1
EndSplineSet
Validated: 1
EndChar

StartChar: acute
Encoding: 180 180 108
Width: 460
GlyphClass: 2
Flags: W
HStem: 1160 348
VStem: 50 360
LayerCount: 2
Fore
SplineSet
290 1508 m 0,0,1
 346 1508 346 1508 378 1472 c 128,-1,2
 410 1436 410 1436 410 1388 c 0,3,4
 410 1316 410 1316 354 1290 c 2,5,6
 70 1160 l 1,7,-1
 50 1184 l 1,8,-1
 184 1450 l 2,9,10
 214 1508 214 1508 290 1508 c 0,0,1
EndSplineSet
Validated: 1
EndChar

StartChar: uni00B5
Encoding: 181 181 109
Width: 1385
GlyphClass: 2
Flags: W
HStem: -430 21G<445 710> -20 121<639.842 870.598> 1100 20G<353 485 1075.5 1205>
VStem: 180 305<-207.861 49 295.677 938.5> 905 300<171 938.5>
LayerCount: 2
Fore
SplineSet
844 -20 m 0,0,1
 631 -20 631 -20 480 49 c 1,2,-1
 480 0 l 2,3,4
 480 -289 480 -289 710 -415 c 1,5,-1
 710 -430 l 1,6,7
 180 -430 180 -430 180 0 c 2,8,-1
 180 845 l 2,9,10
 180 959 180 959 10 991 c 1,11,-1
 10 1006 l 1,12,13
 221 1112 221 1112 485 1120 c 1,14,-1
 485 552 l 2,15,16
 485 361 485 361 558 239 c 0,17,18
 641 101 641 101 767 101 c 0,19,20
 842 101 842 101 875 150 c 0,21,22
 905 195 905 195 905 262 c 2,23,-1
 905 845 l 2,24,25
 905 959 905 959 735 991 c 1,26,-1
 735 1006 l 1,27,28
 946 1112 946 1112 1205 1120 c 1,29,-1
 1205 263 l 2,30,31
 1205 152 1205 152 1375 117 c 1,32,-1
 1375 102 l 1,33,34
 1115 -20 1115 -20 844 -20 c 0,0,1
EndSplineSet
Validated: 1
EndChar

StartChar: paragraph
Encoding: 182 182 110
Width: 1071
GlyphClass: 2
Flags: W
HStem: 0 15<401 426.525 1040.41 1061>
VStem: 70 623<939.382 1250.15> 571 122<93.25 730> 773 118<95.75 1250.26>
LayerCount: 2
Fore
SplineSet
401 0 m 1,0,-1
 401 15 l 1,1,2
 571 54 571 54 571 250 c 2,3,-1
 571 730 l 1,4,5
 356 730 356 730 235 811 c 0,6,7
 70 921 70 921 70 1124 c 0,8,9
 70 1331 70 1331 233 1448 c 0,10,11
 347 1530 347 1530 550 1530 c 0,12,13
 795 1530 795 1530 1061 1404 c 1,14,-1
 1061 1389 l 1,15,16
 891 1341 891 1341 891 1241 c 2,17,-1
 891 254 l 2,18,19
 891 57 891 57 1061 15 c 1,20,-1
 1061 0 l 1,21,-1
 773 0 l 1,22,-1
 773 1253 l 1,23,-1
 693 1253 l 1,24,-1
 693 0 l 1,25,-1
 401 0 l 1,0,-1
EndSplineSet
Validated: 1
EndChar

StartChar: periodcentered
Encoding: 183 183 111
Width: 464
GlyphClass: 2
Flags: W
HStem: 569 370<113.14 350.86>
VStem: 50 364<631.578 876.422>
LayerCount: 2
Fore
SplineSet
232 939 m 132,-1,1
 308 939 308 939 361 885 c 132,-1,2
 414 831 414 831 414 754 c 132,-1,3
 414 677 414 677 361 623 c 132,-1,4
 308 569 308 569 232 569 c 132,-1,5
 156 569 156 569 103 623 c 132,-1,6
 50 677 50 677 50 754 c 132,-1,7
 50 831 50 831 103 885 c 132,-1,0
 156 939 156 939 232 939 c 132,-1,1
EndSplineSet
Validated: 1
EndChar

StartChar: cedilla
Encoding: 184 184 112
Width: 454
GlyphClass: 2
Flags: W
HStem: -430 138<116 158.927> -107 107<78 153.028>
VStem: 78 150<-50.9209 0> 191 213<-269.052 -127.332>
LayerCount: 2
Fore
SplineSet
78 0 m 1,0,-1
 228 0 l 1,1,-1
 228 -39 l 1,2,3
 285 -49 285 -49 330 -82 c 0,4,5
 404 -136 404 -136 404 -221 c 0,6,7
 404 -298 404 -298 345 -356 c 0,8,9
 270 -430 270 -430 116 -430 c 1,10,-1
 50 -292 l 1,11,12
 126 -292 126 -292 160 -265 c 0,13,14
 191 -240 191 -240 191 -198 c 128,-1,15
 191 -156 191 -156 154 -129 c 0,16,17
 123 -107 123 -107 78 -107 c 1,18,-1
 78 0 l 1,0,-1
EndSplineSet
Validated: 1
EndChar

StartChar: uni00B9
Encoding: 185 185 113
Width: 470
GlyphClass: 2
Flags: W
HStem: 805 15<50 69.9219 400.078 420>
VStem: 135 200<838.396 1404.6>
LayerCount: 2
Fore
SplineSet
325 1590 m 1,0,-1
 335 1590 l 1,1,-1
 335 935 l 2,2,3
 335 842 335 842 420 820 c 1,4,-1
 420 805 l 1,5,-1
 50 805 l 1,6,-1
 50 820 l 1,7,8
 135 843 135 843 135 935 c 2,9,-1
 135 1308 l 2,10,11
 135 1400 135 1400 50 1423 c 1,12,-1
 50 1435 l 1,13,14
 215 1480 215 1480 325 1590 c 1,0,-1
EndSplineSet
Validated: 1
EndChar

StartChar: ordmasculine
Encoding: 186 186 114
Width: 722
GlyphClass: 2
Flags: W
HStem: 800 161<141 581> 997 74<299.271 423.259> 1507 73<297.269 422.932>
VStem: 50 206<1124.47 1451.6> 466 206<1126.02 1451.48>
LayerCount: 2
Fore
SplineSet
360 1507 m 128,-1,1
 316 1507 316 1507 286 1454 c 0,2,3
 256 1403 256 1403 256 1289 c 0,4,5
 256 1176 256 1176 286 1125 c 0,6,7
 318 1071 318 1071 361 1071 c 128,-1,8
 404 1071 404 1071 436 1124 c 0,9,10
 466 1175 466 1175 466 1289 c 0,11,12
 466 1402 466 1402 436 1453 c 0,13,0
 404 1507 404 1507 360 1507 c 128,-1,1
362 1580 m 128,-1,15
 496 1580 496 1580 584 1503 c 0,16,17
 672 1425 672 1425 672 1289 c 128,-1,18
 672 1153 672 1153 582 1075 c 128,-1,19
 492 997 492 997 370 997 c 0,20,21
 252 998 252 998 174 1047 c 0,22,23
 50 1125 50 1125 50 1275.5 c 128,-1,24
 50 1426 50 1426 139 1503 c 128,-1,14
 228 1580 228 1580 362 1580 c 128,-1,15
141 961 m 1,25,-1
 672 961 l 1,26,-1
 581 800 l 1,27,-1
 50 800 l 1,28,-1
 141 961 l 1,25,-1
EndSplineSet
Validated: 1
EndChar

StartChar: guillemotright
Encoding: 187 187 115
Width: 1246
GlyphClass: 2
Flags: W
DStem2: 322 1347 140 1218 0.575863 -0.817546<0.656424 615.738> 180 242 291 172 0.55378 0.832663<3.18324 567.737> 760 1347 578 1218 0.575863 -0.817546<0.656424 615.738> 618 242 729 172 0.55378 0.832663<3.18324 567.737>
LayerCount: 2
Fore
SplineSet
322 1347 m 1,0,-1
 708 799 l 1,1,-1
 291 172 l 1,2,-1
 180 242 l 1,3,-1
 494 715 l 1,4,-1
 140 1218 l 1,5,-1
 322 1347 l 1,0,-1
760 1347 m 1,6,-1
 1146 799 l 1,7,-1
 729 172 l 1,8,-1
 618 242 l 1,9,-1
 932 715 l 1,10,-1
 578 1218 l 1,11,-1
 760 1347 l 1,6,-1
EndSplineSet
Validated: 1
EndChar

StartChar: onequarter
Encoding: 188 188 116
Width: 1580
GlyphClass: 2
Flags: W
HStem: 0 15<1103 1122.92 1450.77 1473> 172 71<994 1188 1388 1440> 765 15<100 119.922 450.078 470>
VStem: 185 200<798.396 1364.6> 1188 200<34.2969 172 243 455>
DStem2: 202 77 409 -40 0.529639 0.848223<10.3932 1736.17> 827 186 994 243 0.677003 0.73598<155.01 442.377>
LayerCount: 2
Fore
SplineSet
375 1550 m 1,0,-1
 385 1550 l 1,1,-1
 385 895 l 2,2,3
 385 802 385 802 470 780 c 1,4,-1
 470 765 l 1,5,-1
 100 765 l 1,6,-1
 100 780 l 1,7,8
 185 803 185 803 185 895 c 2,9,-1
 185 1268 l 2,10,11
 185 1360 185 1360 100 1383 c 1,12,-1
 100 1395 l 1,13,14
 265 1440 265 1440 375 1550 c 1,0,-1
409 -40 m 1,15,-1
 202 77 l 1,16,-1
 1121 1550 l 1,17,-1
 1335 1443 l 1,18,-1
 409 -40 l 1,15,-1
1103 0 m 1,19,-1
 1103 15 l 1,20,21
 1188 40 1188 40 1188 129 c 2,22,-1
 1188 172 l 1,23,-1
 827 172 l 1,24,-1
 827 186 l 1,25,-1
 1378 785 l 1,26,-1
 1388 785 l 1,27,-1
 1388 243 l 1,28,-1
 1480 243 l 1,29,-1
 1440 172 l 1,30,-1
 1388 172 l 1,31,-1
 1388 129 l 2,32,33
 1388 34 1388 34 1473 15 c 1,34,-1
 1473 0 l 1,35,-1
 1103 0 l 1,19,-1
1188 243 m 1,36,-1
 1188 455 l 1,37,-1
 994 243 l 1,38,-1
 1188 243 l 1,36,-1
EndSplineSet
Validated: 1
EndChar

StartChar: onehalf
Encoding: 189 189 117
Width: 1712
GlyphClass: 2
Flags: W
HStem: -9 160<1229.18 1510.77> 33 157<1113.67 1430.39> 702 70<1134.2 1323.2> 765 15<100 119.922 450.078 470>
VStem: 185 200<798.396 1364.6> 1006 15<497 515.696> 1359 215<432.937 660.203>
DStem2: 202 77 409 -40 0.529639 0.848223<10.3932 1736.17>
LayerCount: 2
Fore
SplineSet
978 -10 m 1,0,1
 1017 144 1017 144 1093 227 c 0,2,3
 1171 312 1171 312 1265 384 c 0,4,5
 1359 457 1359 457 1359 554 c 0,6,7
 1359 612 1359 612 1340 645 c 0,8,9
 1307 702 1307 702 1243 702 c 0,10,11
 1161 702 1161 702 1107.5 643 c 128,-1,12
 1054 584 1054 584 1021 497 c 1,13,-1
 1006 497 l 1,14,-1
 1006 672 l 1,15,16
 1106 772 1106 772 1284 772 c 0,17,18
 1425 772 1425 772 1498 709 c 0,19,20
 1574 644 1574 644 1574 541 c 0,21,22
 1574 412 1574 412 1442 346 c 0,23,24
 1266 259 1266 259 1190 181 c 1,25,26
 1223 190 1223 190 1266 190 c 128,-1,27
 1309 190 1309 190 1368.5 170.5 c 128,-1,28
 1428 151 1428 151 1482.5 151 c 128,-1,29
 1537 151 1537 151 1597 198 c 1,30,-1
 1612 198 l 1,31,32
 1545 -9 1545 -9 1381 -9 c 24,33,34
 1349 -9 1349 -9 1278 11 c 0,35,36
 1200 33 1200 33 1138 33 c 0,37,38
 1051 33 1051 33 993 -10 c 1,39,-1
 978 -10 l 1,0,1
375 1550 m 1,40,-1
 385 1550 l 1,41,-1
 385 895 l 2,42,43
 385 802 385 802 470 780 c 1,44,-1
 470 765 l 1,45,-1
 100 765 l 1,46,-1
 100 780 l 1,47,48
 185 803 185 803 185 895 c 2,49,-1
 185 1268 l 2,50,51
 185 1360 185 1360 100 1383 c 1,52,-1
 100 1395 l 1,53,54
 265 1440 265 1440 375 1550 c 1,40,-1
409 -40 m 1,55,-1
 202 77 l 1,56,-1
 1121 1550 l 1,57,-1
 1335 1443 l 1,58,-1
 409 -40 l 1,55,-1
EndSplineSet
Validated: 1
EndChar

StartChar: threequarters
Encoding: 190 190 118
Width: 1733
GlyphClass: 2
Flags: W
HStem: 0 15<1256 1275.92 1603.77 1626> 172 71<1147 1341 1541 1593> 757 71<189.73 398.427> 1189 21<268 296.228> 1470 70<213.808 382.794>
VStem: 100 15<964.368 982> 143 15<1339 1363.44> 404 197<1258.05 1444.13> 456 210<877.528 1133.22> 1341 200<34.2969 172 243 455>
DStem2: 355 77 562 -40 0.529639 0.848223<10.3932 1736.17> 980 186 1147 243 0.677003 0.73598<155.01 442.377>
LayerCount: 2
Fore
SplineSet
354 1540 m 0,0,1
 471 1540 471 1540 536 1491 c 128,-1,2
 601 1442 601 1442 601 1358 c 128,-1,3
 601 1274 601 1274 503 1219 c 1,4,5
 666 1165 666 1165 666 1006 c 0,6,7
 666 894 666 894 580 826 c 0,8,9
 493 757 493 757 350 757 c 0,10,11
 194 757 194 757 100 821 c 1,12,-1
 100 982 l 1,13,-1
 115 982 l 1,14,15
 139 923 139 923 157 897 c 0,16,17
 205 828 205 828 294 828 c 0,18,19
 375 828 375 828 414 878 c 0,20,21
 456 932 456 932 456 1012 c 0,22,23
 456 1174 456 1174 268 1189 c 1,24,-1
 268 1210 l 1,25,26
 332 1226 332 1226 368 1265 c 128,-1,27
 404 1304 404 1304 404 1363 c 0,28,29
 404 1408 404 1408 384 1434 c 0,30,31
 357 1470 357 1470 303.5 1470 c 128,-1,32
 250 1470 250 1470 214 1437 c 0,33,34
 174 1402 174 1402 158 1339 c 1,35,-1
 143 1339 l 1,36,-1
 143 1478 l 1,37,38
 233 1540 233 1540 354 1540 c 0,0,1
562 -40 m 1,39,-1
 355 77 l 1,40,-1
 1274 1550 l 1,41,-1
 1488 1443 l 1,42,-1
 562 -40 l 1,39,-1
1256 0 m 1,43,-1
 1256 15 l 1,44,45
 1341 40 1341 40 1341 129 c 2,46,-1
 1341 172 l 1,47,-1
 980 172 l 1,48,-1
 980 186 l 1,49,-1
 1531 785 l 1,50,-1
 1541 785 l 1,51,-1
 1541 243 l 1,52,-1
 1633 243 l 1,53,-1
 1593 172 l 1,54,-1
 1541 172 l 1,55,-1
 1541 129 l 2,56,57
 1541 34 1541 34 1626 15 c 1,58,-1
 1626 0 l 1,59,-1
 1256 0 l 1,43,-1
1341 243 m 1,60,-1
 1341 455 l 1,61,-1
 1147 243 l 1,62,-1
 1341 243 l 1,60,-1
EndSplineSet
Validated: 1
EndChar

StartChar: questiondown
Encoding: 191 191 119
Width: 1255
GlyphClass: 2
Flags: W
HStem: -430 122<565.242 896.805> 750 370<585.14 822.86>
VStem: 100 355<-179.27 189.979> 522 364<812.578 1057.42> 1140 15<88.3616 105>
LayerCount: 2
Fore
SplineSet
704 1120 m 128,-1,1
 780 1120 780 1120 833 1066 c 128,-1,2
 886 1012 886 1012 886 935 c 128,-1,3
 886 858 886 858 833 804 c 128,-1,4
 780 750 780 750 704 750 c 128,-1,5
 628 750 628 750 575 804 c 128,-1,6
 522 858 522 858 522 935 c 128,-1,7
 522 1012 522 1012 575 1066 c 128,-1,0
 628 1120 628 1120 704 1120 c 128,-1,1
650 -430 m 0,8,9
 396 -430 396 -430 249 -307 c 0,10,11
 100 -182 100 -182 100 12 c 0,12,13
 101 224 101 224 302 366 c 2,14,-1
 429 456 l 2,15,16
 588 568 588 568 645 674 c 1,17,-1
 763 674 l 1,18,19
 762 536 762 536 626 373 c 2,20,-1
 581 319 l 2,21,22
 455 168 455 168 455 -20 c 0,23,24
 455 -120 455 -120 488 -179 c 0,25,26
 559 -308 559 -308 724 -308 c 128,-1,27
 889 -308 889 -308 984 -188 c 0,28,29
 1073 -74 1073 -74 1140 105 c 1,30,-1
 1155 105 l 1,31,-1
 1155 -235 l 1,32,33
 967 -430 967 -430 650 -430 c 0,8,9
EndSplineSet
Validated: 1
EndChar

StartChar: endash
Encoding: 8211 8211 120
Width: 1273
GlyphClass: 2
Flags: W
HStem: 649 211<219 1054>
LayerCount: 2
Fore
SplineSet
219 860 m 1,0,-1
 1173 860 l 1,1,-1
 1054 649 l 1,2,-1
 100 649 l 1,3,-1
 219 860 l 1,0,-1
EndSplineSet
Validated: 1
EndChar

StartChar: emdash
Encoding: 8212 8212 121
Width: 1571
GlyphClass: 2
Flags: W
HStem: 649 211<219 1352>
LayerCount: 2
Fore
SplineSet
219 860 m 1,0,-1
 1471 860 l 1,1,-1
 1352 649 l 1,2,-1
 100 649 l 1,3,-1
 219 860 l 1,0,-1
EndSplineSet
Validated: 1
EndChar

StartChar: afii00208
Encoding: 8213 8213 122
Width: 1571
GlyphClass: 2
Flags: W
HStem: 649 211<219 1352>
LayerCount: 2
Fore
SplineSet
219 860 m 1,0,-1
 1471 860 l 1,1,-1
 1352 649 l 1,2,-1
 100 649 l 1,3,-1
 219 860 l 1,0,-1
EndSplineSet
Validated: 1
EndChar

StartChar: quoteleft
Encoding: 8216 8216 123
Width: 484
GlyphClass: 2
Flags: W
HStem: 1549 31<449.703 478>
VStem: 50 393<1074.27 1303.59>
LayerCount: 2
Fore
SplineSet
478 1580 m 1,0,-1
 478 1549 l 1,1,2
 391 1513 391 1513 331 1461 c 0,3,4
 284 1419 284 1419 261 1363 c 1,5,6
 340 1363 340 1363 392 1311 c 0,7,8
 443 1260 443 1260 443 1180 c 0,9,10
 443 1101 443 1101 391 1047 c 128,-1,11
 339 993 339 993 252 993 c 0,12,13
 170 993 170 993 115 1050 c 0,14,15
 50 1117 50 1117 50 1226 c 0,16,17
 50 1348 50 1348 134 1447 c 0,18,19
 248 1580 248 1580 478 1580 c 1,0,-1
EndSplineSet
Validated: 1
EndChar

StartChar: quoteright
Encoding: 8217 8217 124
Width: 484
GlyphClass: 2
Flags: W
HStem: 993 31<6 34.2969>
VStem: 41 393<1269.41 1498.73>
LayerCount: 2
Fore
SplineSet
232 1580 m 0,0,1
 314 1580 314 1580 369 1523 c 0,2,3
 434 1456 434 1456 434 1347 c 0,4,5
 434 1225 434 1225 350 1126 c 0,6,7
 236 993 236 993 6 993 c 1,8,-1
 6 1024 l 1,9,10
 93 1060 93 1060 153 1112 c 0,11,12
 200 1154 200 1154 223 1210 c 1,13,14
 144 1210 144 1210 92 1262 c 0,15,16
 41 1313 41 1313 41 1393 c 0,17,18
 41 1472 41 1472 93 1526 c 128,-1,19
 145 1580 145 1580 232 1580 c 0,0,1
EndSplineSet
Validated: 1
EndChar

StartChar: quotesinglbase
Encoding: 8218 8218 125
Width: 484
GlyphClass: 2
Flags: W
HStem: -236 31<6 34.2969>
VStem: 41 393<40.4138 269.728>
LayerCount: 2
Fore
SplineSet
232 351 m 0,0,1
 314 351 314 351 369 294 c 0,2,3
 434 227 434 227 434 118 c 0,4,5
 434 -4 434 -4 350 -103 c 0,6,7
 236 -236 236 -236 6 -236 c 1,8,-1
 6 -205 l 1,9,10
 93 -169 93 -169 153 -117 c 0,11,12
 200 -75 200 -75 223 -19 c 1,13,14
 144 -19 144 -19 92 33 c 0,15,16
 41 84 41 84 41 164 c 0,17,18
 41 243 41 243 93 297 c 128,-1,19
 145 351 145 351 232 351 c 0,0,1
EndSplineSet
Validated: 1
EndChar

StartChar: quotereversed
Encoding: 8219 8219 126
Width: 484
GlyphClass: 2
Flags: W
HStem: 993 31<449.703 478>
VStem: 50 393<1269.41 1498.73>
LayerCount: 2
Fore
SplineSet
252 1580 m 0,0,1
 339 1580 339 1580 391 1526 c 128,-1,2
 443 1472 443 1472 443 1393 c 0,3,4
 443 1313 443 1313 392 1262 c 0,5,6
 340 1210 340 1210 261 1210 c 1,7,8
 284 1154 284 1154 331 1112 c 0,9,10
 391 1060 391 1060 478 1024 c 1,11,-1
 478 993 l 1,12,13
 248 993 248 993 134 1126 c 0,14,15
 50 1225 50 1225 50 1347 c 0,16,17
 50 1456 50 1456 115 1523 c 0,18,19
 170 1580 170 1580 252 1580 c 0,0,1
EndSplineSet
Validated: 1
EndChar

StartChar: quotedblleft
Encoding: 8220 8220 127
Width: 949
GlyphClass: 2
Flags: W
HStem: 993 370<261 380.302 726 845.302> 1549 31<449.703 478 914.703 943>
VStem: 50 393<1074.27 1303.59> 515 393<1074.27 1303.59>
LayerCount: 2
Fore
SplineSet
478 1580 m 1,0,-1
 478 1549 l 1,1,2
 391 1513 391 1513 331 1461 c 0,3,4
 284 1419 284 1419 261 1363 c 1,5,6
 340 1363 340 1363 392 1311 c 0,7,8
 443 1260 443 1260 443 1180 c 0,9,10
 443 1101 443 1101 391 1047 c 128,-1,11
 339 993 339 993 252 993 c 0,12,13
 170 993 170 993 115 1050 c 0,14,15
 50 1117 50 1117 50 1226 c 0,16,17
 50 1348 50 1348 134 1447 c 0,18,19
 248 1580 248 1580 478 1580 c 1,0,-1
943 1580 m 5,20,-1
 943 1549 l 1,21,22
 856 1513 856 1513 796 1461 c 0,23,24
 749 1419 749 1419 726 1363 c 1,25,26
 805 1363 805 1363 857 1311 c 0,27,28
 908 1260 908 1260 908 1180 c 0,29,30
 908 1101 908 1101 856 1047 c 128,-1,31
 804 993 804 993 717 993 c 0,32,33
 635 993 635 993 580 1050 c 0,34,35
 515 1117 515 1117 515 1226 c 0,36,37
 515 1348 515 1348 599 1447 c 0,38,39
 713 1580 713 1580 943 1580 c 5,20,-1
EndSplineSet
Validated: 1
EndChar

StartChar: quotedblright
Encoding: 8221 8221 128
Width: 949
GlyphClass: 2
Flags: W
HStem: 993 31<6 34.2969 471 499.297> 1210 370<103.698 223 568.698 688>
VStem: 41 393<1269.41 1498.73> 506 393<1269.41 1498.73>
LayerCount: 2
Fore
SplineSet
697 1580 m 0,0,1
 779 1580 779 1580 834 1523 c 0,2,3
 899 1456 899 1456 899 1347 c 0,4,5
 899 1225 899 1225 815 1126 c 0,6,7
 701 993 701 993 471 993 c 1,8,-1
 471 1024 l 1,9,10
 558 1060 558 1060 618 1112 c 0,11,12
 665 1154 665 1154 688 1210 c 1,13,14
 609 1210 609 1210 557 1262 c 0,15,16
 506 1313 506 1313 506 1393 c 0,17,18
 506 1472 506 1472 558 1526 c 128,-1,19
 610 1580 610 1580 697 1580 c 0,0,1
232 1580 m 0,20,21
 314 1580 314 1580 369 1523 c 0,22,23
 434 1456 434 1456 434 1347 c 0,24,25
 434 1225 434 1225 350 1126 c 0,26,27
 236 993 236 993 6 993 c 1,28,-1
 6 1024 l 1,29,30
 93 1060 93 1060 153 1112 c 0,31,32
 200 1154 200 1154 223 1210 c 1,33,34
 144 1210 144 1210 92 1262 c 0,35,36
 41 1313 41 1313 41 1393 c 0,37,38
 41 1472 41 1472 93 1526 c 128,-1,39
 145 1580 145 1580 232 1580 c 0,20,21
EndSplineSet
Validated: 1
EndChar

StartChar: quotedblbase
Encoding: 8222 8222 129
Width: 949
GlyphClass: 2
Flags: W
HStem: -236 31<6 34.2969 471 499.297> -19 370<103.698 223 568.698 688>
VStem: 41 393<40.4138 269.728> 506 393<40.4138 269.728>
LayerCount: 2
Fore
SplineSet
697 351 m 0,0,1
 779 351 779 351 834 294 c 0,2,3
 899 227 899 227 899 118 c 0,4,5
 899 -4 899 -4 815 -103 c 0,6,7
 701 -236 701 -236 471 -236 c 1,8,-1
 471 -205 l 1,9,10
 558 -169 558 -169 618 -117 c 0,11,12
 665 -75 665 -75 688 -19 c 1,13,14
 609 -19 609 -19 557 33 c 0,15,16
 506 84 506 84 506 164 c 0,17,18
 506 243 506 243 558 297 c 128,-1,19
 610 351 610 351 697 351 c 0,0,1
232 351 m 0,20,21
 314 351 314 351 369 294 c 0,22,23
 434 227 434 227 434 118 c 0,24,25
 434 -4 434 -4 350 -103 c 0,26,27
 236 -236 236 -236 6 -236 c 1,28,-1
 6 -205 l 1,29,30
 93 -169 93 -169 153 -117 c 0,31,32
 200 -75 200 -75 223 -19 c 1,33,34
 144 -19 144 -19 92 33 c 0,35,36
 41 84 41 84 41 164 c 0,37,38
 41 243 41 243 93 297 c 128,-1,39
 145 351 145 351 232 351 c 0,20,21
EndSplineSet
Validated: 1
EndChar

StartChar: dagger
Encoding: 8224 8224 130
Width: 1290
VWidth: 0
GlyphClass: 2
Flags: W
HStem: 885 200<358.184 545 745 931.816>
VStem: 545 200<215.976 885 1085 1291.36>
LayerCount: 2
Fore
SplineSet
640 -40 m 1,0,1
 587 105 587 105 441 159 c 1,2,-1
 441 169 l 1,3,4
 545 221 545 221 545 368 c 2,5,-1
 545 885 l 1,6,-1
 508 885 l 2,7,8
 361 885 361 885 309 781 c 1,9,-1
 299 781 l 1,10,11
 245 927 245 927 100 980 c 1,12,-1
 100 990 l 1,13,14
 245 1043 245 1043 299 1189 c 1,15,-1
 309 1189 l 1,16,17
 360 1085 360 1085 508 1085 c 2,18,-1
 545 1085 l 1,19,-1
 545 1142 l 2,20,21
 545 1289 545 1289 441 1341 c 1,22,-1
 441 1351 l 1,23,24
 587 1405 587 1405 640 1550 c 1,25,-1
 650 1550 l 1,26,27
 703 1405 703 1405 849 1351 c 1,28,-1
 849 1341 l 1,29,30
 745 1287 745 1287 745 1142 c 2,31,-1
 745 1085 l 1,32,-1
 782 1085 l 2,33,34
 930 1085 930 1085 981 1189 c 1,35,-1
 991 1189 l 1,36,37
 1045 1043 1045 1043 1190 990 c 1,38,-1
 1190 980 l 1,39,40
 1045 927 1045 927 991 781 c 1,41,-1
 981 781 l 1,42,43
 929 885 929 885 782 885 c 2,44,-1
 745 885 l 1,45,-1
 745 368 l 2,46,47
 745 221 745 221 849 169 c 1,48,-1
 849 159 l 1,49,50
 703 105 703 105 650 -40 c 1,51,-1
 640 -40 l 1,0,1
EndSplineSet
Validated: 1
EndChar

StartChar: daggerdbl
Encoding: 8225 8225 131
Width: 1290
VWidth: 0
GlyphClass: 2
Flags: W
HStem: 425 200<358.184 545 745 931.816> 885 200<358.184 545 745 931.816>
VStem: 545 200<218.644 425 625 885 1085 1291.36>
LayerCount: 2
Fore
SplineSet
640 -40 m 1,0,1
 587 105 587 105 441 159 c 1,2,-1
 441 169 l 1,3,4
 545 223 545 223 545 368 c 2,5,-1
 545 425 l 1,6,-1
 508 425 l 2,7,8
 360 425 360 425 309 321 c 1,9,-1
 299 321 l 1,10,11
 245 467 245 467 100 520 c 1,12,-1
 100 530 l 1,13,14
 245 583 245 583 299 729 c 1,15,-1
 309 729 l 1,16,17
 361 625 361 625 508 625 c 2,18,-1
 545 625 l 1,19,-1
 545 885 l 1,20,-1
 508 885 l 2,21,22
 361 885 361 885 309 781 c 1,23,-1
 299 781 l 1,24,25
 245 927 245 927 100 980 c 1,26,-1
 100 990 l 1,27,28
 245 1043 245 1043 299 1189 c 1,29,-1
 309 1189 l 1,30,31
 360 1085 360 1085 508 1085 c 2,32,-1
 545 1085 l 1,33,-1
 545 1142 l 2,34,35
 545 1289 545 1289 441 1341 c 1,36,-1
 441 1351 l 1,37,38
 587 1405 587 1405 640 1550 c 1,39,-1
 650 1550 l 1,40,41
 703 1405 703 1405 849 1351 c 1,42,-1
 849 1341 l 1,43,44
 745 1287 745 1287 745 1142 c 2,45,-1
 745 1085 l 1,46,-1
 782 1085 l 2,47,48
 930 1085 930 1085 981 1189 c 1,49,-1
 991 1189 l 1,50,51
 1045 1043 1045 1043 1190 990 c 1,52,-1
 1190 980 l 1,53,54
 1045 927 1045 927 991 781 c 1,55,-1
 981 781 l 1,56,57
 929 885 929 885 782 885 c 2,58,-1
 745 885 l 1,59,-1
 745 625 l 1,60,-1
 782 625 l 2,61,62
 929 625 929 625 981 729 c 1,63,-1
 991 729 l 1,64,65
 1045 583 1045 583 1190 530 c 1,66,-1
 1190 520 l 1,67,68
 1045 467 1045 467 991 321 c 1,69,-1
 981 321 l 1,70,71
 930 425 930 425 782 425 c 2,72,-1
 745 425 l 1,73,-1
 745 368 l 2,74,75
 745 221 745 221 849 169 c 1,76,-1
 849 159 l 1,77,78
 703 105 703 105 650 -40 c 1,79,-1
 640 -40 l 1,0,1
EndSplineSet
Validated: 1
EndChar

StartChar: bullet
Encoding: 8226 8226 132
Width: 928
GlyphClass: 2
Flags: W
HStem: 384 740<288.128 639.872>
VStem: 100 728<575.566 932.434>
LayerCount: 2
Fore
SplineSet
464 1124 m 132,-1,1
 616 1124 616 1124 722 1016 c 132,-1,2
 828 908 828 908 828 754 c 132,-1,3
 828 600 828 600 722 492 c 132,-1,4
 616 384 616 384 464 384 c 132,-1,5
 312 384 312 384 206 492 c 132,-1,6
 100 600 100 600 100 754 c 132,-1,7
 100 908 100 908 206 1016 c 132,-1,0
 312 1124 312 1124 464 1124 c 132,-1,1
EndSplineSet
Validated: 1
EndChar

StartChar: ellipsis
Encoding: 8230 8230 133
Width: 1294
GlyphClass: 2
Flags: W
HStem: -20 370<113.14 350.86 529.14 766.86 943.14 1180.86>
VStem: 50 364<42.5779 287.422> 466 364<42.5779 287.422> 880 364<42.5779 287.422>
LayerCount: 2
Fore
SplineSet
1062 -20 m 132,-1,1
 986 -20 986 -20 933 34 c 132,-1,2
 880 88 880 88 880 165 c 132,-1,3
 880 242 880 242 933 296 c 132,-1,4
 986 350 986 350 1062 350 c 132,-1,5
 1138 350 1138 350 1191 296 c 132,-1,6
 1244 242 1244 242 1244 165 c 132,-1,7
 1244 88 1244 88 1191 34 c 132,-1,0
 1138 -20 1138 -20 1062 -20 c 132,-1,1
648 -20 m 132,-1,9
 572 -20 572 -20 519 34 c 132,-1,10
 466 88 466 88 466 165 c 132,-1,11
 466 242 466 242 519 296 c 132,-1,12
 572 350 572 350 648 350 c 132,-1,13
 724 350 724 350 777 296 c 132,-1,14
 830 242 830 242 830 165 c 132,-1,15
 830 88 830 88 777 34 c 132,-1,8
 724 -20 724 -20 648 -20 c 132,-1,9
232 -20 m 132,-1,17
 156 -20 156 -20 103 34 c 132,-1,18
 50 88 50 88 50 165 c 132,-1,19
 50 242 50 242 103 296 c 132,-1,20
 156 350 156 350 232 350 c 132,-1,21
 308 350 308 350 361 296 c 132,-1,22
 414 242 414 242 414 165 c 132,-1,23
 414 88 414 88 361 34 c 132,-1,16
 308 -20 308 -20 232 -20 c 132,-1,17
EndSplineSet
Validated: 1
EndChar

StartChar: perthousand
Encoding: 8240 8240 134
Width: 2499
GlyphClass: 2
Flags: W
HStem: -20 115<1179.81 1352.19 1950.81 2123.19> 583 115<1179.32 1352.23 1950.32 2123.23> 812 115<375.767 548.679> 1415 115<375.807 548.193>
VStem: 100 222<993.835 1348.18> 602 222<993.511 1348.32> 904 222<161.676 516.489> 1406 222<161.819 516.165> 1675 222<161.676 516.489> 2177 222<161.819 516.165>
DStem2: 301 77 508 -40 0.529639 0.848223<10.3932 1736.17>
LayerCount: 2
Fore
SplineSet
2037 -20 m 128,-1,1
 1901 -20 1901 -20 1797 66 c 0,2,3
 1675 166 1675 166 1675 340 c 0,4,5
 1675 512 1675 512 1797 612 c 0,6,7
 1900 698 1900 698 2036.5 698 c 128,-1,8
 2173 698 2173 698 2277 612 c 0,9,10
 2399 511 2399 511 2399 339 c 128,-1,11
 2399 167 2399 167 2277 66 c 0,12,0
 2173 -20 2173 -20 2037 -20 c 128,-1,1
2037 95 m 128,-1,14
 2098 95 2098 95 2140 162 c 0,15,16
 2177 221 2177 221 2177 339 c 0,17,18
 2177 456 2177 456 2140 516 c 0,19,20
 2099 583 2099 583 2037 583 c 128,-1,21
 1975 583 1975 583 1934 516 c 0,22,23
 1897 456 1897 456 1897 339 c 128,-1,24
 1897 222 1897 222 1934 162 c 0,25,13
 1976 95 1976 95 2037 95 c 128,-1,14
1266 -20 m 128,-1,27
 1130 -20 1130 -20 1026 66 c 0,28,29
 904 166 904 166 904 340 c 0,30,31
 904 512 904 512 1026 612 c 0,32,33
 1129 698 1129 698 1265.5 698 c 128,-1,34
 1402 698 1402 698 1506 612 c 0,35,36
 1628 511 1628 511 1628 339 c 128,-1,37
 1628 167 1628 167 1506 66 c 0,38,26
 1402 -20 1402 -20 1266 -20 c 128,-1,27
1266 95 m 128,-1,40
 1327 95 1327 95 1369 162 c 0,41,42
 1406 221 1406 221 1406 339 c 0,43,44
 1406 456 1406 456 1369 516 c 0,45,46
 1328 583 1328 583 1266 583 c 128,-1,47
 1204 583 1204 583 1163 516 c 0,48,49
 1126 456 1126 456 1126 339 c 128,-1,50
 1126 222 1126 222 1163 162 c 0,51,39
 1205 95 1205 95 1266 95 c 128,-1,40
462 1530 m 128,-1,53
 598 1530 598 1530 702 1444 c 0,54,55
 824 1344 824 1344 824 1170 c 0,56,57
 824 998 824 998 702 898 c 0,58,59
 599 812 599 812 462.5 812 c 128,-1,60
 326 812 326 812 222 898 c 0,61,62
 100 999 100 999 100 1171 c 128,-1,63
 100 1343 100 1343 222 1444 c 0,64,52
 326 1530 326 1530 462 1530 c 128,-1,53
462 1415 m 128,-1,66
 401 1415 401 1415 359 1348 c 0,67,68
 322 1289 322 1289 322 1171 c 0,69,70
 322 1054 322 1054 359 994 c 0,71,72
 400 927 400 927 462 927 c 128,-1,73
 524 927 524 927 565 994 c 0,74,75
 602 1054 602 1054 602 1171 c 128,-1,76
 602 1288 602 1288 565 1348 c 0,77,65
 523 1415 523 1415 462 1415 c 128,-1,66
508 -40 m 1,78,-1
 301 77 l 1,79,-1
 1220 1550 l 1,80,-1
 1434 1443 l 1,81,-1
 508 -40 l 1,78,-1
EndSplineSet
Validated: 1
EndChar

StartChar: minute
Encoding: 8242 8242 135
Width: 425
GlyphClass: 2
Flags: W
HStem: 1150 420
VStem: 50 325
LayerCount: 2
Fore
SplineSet
158 1570 m 1,0,-1
 375 1491 l 1,1,-1
 219 1150 l 1,2,-1
 50 1212 l 1,3,-1
 158 1570 l 1,0,-1
EndSplineSet
Validated: 1
EndChar

StartChar: second
Encoding: 8243 8243 136
Width: 744
GlyphClass: 2
Flags: W
HStem: 1150 420
VStem: 50 644
LayerCount: 2
Fore
SplineSet
477 1570 m 1,0,-1
 694 1491 l 1,1,-1
 538 1150 l 1,2,-1
 369 1212 l 1,3,-1
 477 1570 l 1,0,-1
158 1570 m 1,4,-1
 375 1491 l 1,5,-1
 219 1150 l 1,6,-1
 50 1212 l 1,7,-1
 158 1570 l 1,4,-1
EndSplineSet
Validated: 1
EndChar

StartChar: guilsinglleft
Encoding: 8249 8249 137
Width: 808
GlyphClass: 2
Flags: W
VStem: 100 568
DStem2: 314 804 100 720 0.575863 -0.817546<0 615.081> 100 720 314 804 0.55378 0.832663<188.453 753.006>
LayerCount: 2
Fore
SplineSet
517 1347 m 1,0,-1
 628 1277 l 1,1,-1
 314 804 l 1,2,-1
 668 301 l 1,3,-1
 486 172 l 1,4,-1
 100 720 l 1,5,-1
 517 1347 l 1,0,-1
EndSplineSet
Validated: 1
EndChar

StartChar: guilsinglright
Encoding: 8250 8250 138
Width: 808
GlyphClass: 2
Flags: W
VStem: 140 568
DStem2: 322 1347 140 1218 0.575863 -0.817546<0.656424 615.738> 180 242 291 172 0.55378 0.832663<3.18324 567.737>
LayerCount: 2
Fore
SplineSet
322 1347 m 1,0,-1
 708 799 l 1,1,-1
 291 172 l 1,2,-1
 180 242 l 1,3,-1
 494 715 l 1,4,-1
 140 1218 l 1,5,-1
 322 1347 l 1,0,-1
EndSplineSet
Validated: 1
EndChar

StartChar: fraction
Encoding: 8260 8260 139
Width: 1153
GlyphClass: 2
Flags: W
DStem2: 10 77 217 -40 0.529639 0.848223<10.3932 1736.17>
LayerCount: 2
Fore
SplineSet
217 -40 m 1,0,-1
 10 77 l 1,1,-1
 929 1550 l 1,2,-1
 1143 1443 l 1,3,-1
 217 -40 l 1,0,-1
EndSplineSet
Validated: 1
EndChar

StartChar: Euro
Encoding: 8364 8364 140
Width: 1608
GlyphClass: 2
Flags: W
HStem: -20 122<806.221 1192.24> 594 121<90 177 541 1022> 792 121<90 177 541 1022> 1408 122<806.271 1178.87>
VStem: 176 354<469.559 594 715 792 913 1043.27> 1473 15<931 945.79 1507.03 1530>
LayerCount: 2
Fore
SplineSet
20 594 m 1,0,-1
 90 715 l 1,1,-1
 177 715 l 1,2,3
 176 735 176 735 176 755 c 0,4,5
 176 774 176 774 177 792 c 1,6,-1
 20 792 l 1,7,-1
 90 913 l 1,8,-1
 188 913 l 1,9,10
 222 1125 222 1125 351 1273 c 0,11,12
 575 1530 575 1530 938 1530 c 0,13,14
 1102 1530 1102 1530 1219 1470 c 0,15,16
 1293 1432 1293 1432 1355 1432 c 0,17,18
 1452 1432 1452 1432 1472 1530 c 1,19,-1
 1488 1530 l 1,20,-1
 1488 931 l 1,21,-1
 1473 931 l 1,22,23
 1337 1408 1337 1408 988 1408 c 0,24,25
 757 1408 757 1408 630 1183 c 0,26,27
 563 1064 563 1064 541 913 c 1,28,-1
 1088 913 l 1,29,-1
 1022 792 l 1,30,-1
 531 792 l 1,31,32
 530 774 530 774 530 755 c 0,33,34
 530 735 530 735 531 715 c 1,35,-1
 1088 715 l 1,36,-1
 1022 594 l 1,37,-1
 541 594 l 1,38,39
 563 445 563 445 630 327 c 0,40,41
 757 102 757 102 988 102 c 0,42,43
 1154 102 1154 102 1276 195 c 0,44,45
 1391 283 1391 283 1488 424 c 1,46,-1
 1488 241 l 1,47,48
 1289 -20 1289 -20 938 -20 c 0,49,50
 625 -20 625 -20 429 157 c 0,51,52
 234 333 234 333 189 594 c 1,53,-1
 20 594 l 1,0,-1
EndSplineSet
Validated: 1
EndChar

StartChar: afii61248
Encoding: 8453 8453 141
Width: 1814
GlyphClass: 2
Flags: W
HStem: -20 70<1268.19 1420.93> 693 71<1267.58 1421.26> 746 70<426.78 658.454> 1459 71<437.711 663.398>
VStem: 100 215<939.875 1335.55> 780 15<1220 1241.88> 975 213<163.812 581.104> 1500 214<164.634 575.031>
DStem2: 349 77 556 -40 0.529639 0.848223<10.3932 1736.17>
LayerCount: 2
Fore
SplineSet
1347 693 m 0,0,1
 1291 693 1291 693 1250 638 c 0,2,3
 1188 555 1188 555 1188 373 c 0,4,5
 1188 190 1188 190 1250 105 c 0,6,7
 1290 50 1290 50 1347 50 c 0,8,9
 1405 50 1405 50 1446 115 c 0,10,11
 1500 201 1500 201 1500 372 c 0,12,13
 1500 542 1500 542 1446 628 c 0,14,15
 1405 693 1405 693 1347 693 c 0,0,1
1346 764 m 128,-1,17
 1501 764 1501 764 1592 680 c 0,18,19
 1714 566 1714 566 1714 369 c 0,20,21
 1714 171 1714 171 1592 64 c 0,22,23
 1496 -20 1496 -20 1343 -20 c 0,24,25
 1188 -20 1188 -20 1096 64 c 0,26,27
 975 174 975 174 975 373 c 0,28,29
 975 573 975 573 1096 680 c 0,30,16
 1191 764 1191 764 1346 764 c 128,-1,17
556 -40 m 1,31,-1
 349 77 l 1,32,-1
 1268 1550 l 1,33,-1
 1482 1443 l 1,34,-1
 556 -40 l 1,31,-1
500 1530 m 0,35,36
 593 1530 593 1530 646 1505.5 c 128,-1,37
 699 1481 699 1481 716 1481 c 0,38,39
 766 1481 766 1481 780 1530 c 1,40,-1
 795 1530 l 1,41,-1
 795 1220 l 1,42,-1
 780 1220 l 1,43,44
 712 1459 712 1459 560 1459 c 0,45,46
 436 1459 436 1459 367 1353 c 0,47,48
 315 1273 315 1273 315 1134 c 0,49,50
 315 1011 315 1011 370 915 c 0,51,52
 427 816 427 816 540 816 c 0,53,54
 630 816 630 816 691 876 c 0,55,56
 751 935 751 935 795 1017 c 1,57,-1
 795 880 l 1,58,59
 691 746 691 746 510 746 c 0,60,61
 325 746 325 746 226 837 c 0,62,63
 100 953 100 953 100 1124 c 0,64,65
 100 1299 100 1299 187 1398 c 0,66,67
 303 1530 303 1530 500 1530 c 0,35,36
EndSplineSet
Validated: 1
EndChar

StartChar: afii61289
Encoding: 8467 8467 142
Width: 1217
GlyphClass: 2
Flags: W
HStem: 0 1G<100 476.273 626 735> 1510 20G<794.5 892>
LayerCount: 2
Fore
SplineSet
680 -20 m 4,0,1
 572 -20 572 -20 491 44 c 5,2,-1
 464 0 l 5,3,-1
 100 0 l 5,4,5
 262 162 262 162 365 325 c 5,6,7
 354 420 354 420 354 524 c 4,8,9
 354 686 354 686 401 865 c 4,10,11
 499 1240 499 1240 651 1423 c 4,12,13
 739 1530 739 1530 850 1530 c 4,14,15
 934 1530 934 1530 984 1480 c 4,16,17
 1048 1416 1048 1416 1048 1281 c 4,18,19
 1048 1186 1048 1186 1019 1041 c 4,20,21
 949 688 949 688 666 272 c 5,22,23
 668 216 668 216 689 216 c 132,-1,24
 710 216 710 216 735 260 c 4,25,26
 750 286 750 286 761 319 c 5,27,-1
 1077 319 l 5,28,29
 984 144 984 144 887 62 c 132,-1,30
 790 -20 790 -20 680 -20 c 4,0,1
EndSplineSet
Validated: 1
EndChar

StartChar: trademark
Encoding: 8482 8482 143
Width: 1957
GlyphClass: 2
Flags: W
HStem: 765 15<266 285.922 616.078 636 701 718.262 979.63 997 1417 1435.83 1799.74 1817> 1459 71<176.695 349.734 552.266 724.51>
VStem: 351 200<798.396 1458.19>
DStem2: 809 896 915 895 0.149671 0.988736<-4.97986 281.889> 1264 1014 955 1159 0.542341 -0.840158<-289.406 0> 1264 1014 1469 1150 0.531135 0.847287<0 224.114> 1709 896 1469 1150 0.149671 -0.988736<-287.06 -10.3466>
LayerCount: 2
Fore
SplineSet
701 765 m 1,0,-1
 701 780 l 1,1,2
 797 814 797 814 809 896 c 2,3,-1
 908 1550 l 1,4,-1
 918 1550 l 1,5,-1
 1264 1014 l 1,6,-1
 1600 1550 l 1,7,-1
 1610 1550 l 1,8,-1
 1709 896 l 2,9,10
 1721 815 1721 815 1817 780 c 1,11,-1
 1817 765 l 1,12,-1
 1417 765 l 1,13,-1
 1417 780 l 1,14,15
 1508 811 1508 811 1509 876 c 0,16,17
 1509 882 1509 882 1507 895 c 2,18,-1
 1469 1150 l 1,19,-1
 1219 745 l 1,20,-1
 1209 745 l 1,21,-1
 955 1159 l 1,22,-1
 915 895 l 2,23,24
 913 882 913 882 913 875 c 0,25,26
 913 810 913 810 997 780 c 1,27,-1
 997 765 l 1,28,-1
 701 765 l 1,0,-1
158 1530 m 1,29,-1
 744 1530 l 1,30,-1
 851 1343 l 1,31,-1
 836 1343 l 1,32,33
 720 1459 720 1459 573 1459 c 2,34,-1
 560 1459 l 1,35,36
 551 1433 551 1433 551 1400 c 2,37,-1
 551 895 l 2,38,39
 551 803 551 803 636 780 c 1,40,-1
 636 765 l 1,41,-1
 266 765 l 1,42,-1
 266 780 l 1,43,44
 351 803 351 803 351 895 c 2,45,-1
 351 1400 l 2,46,47
 351 1434 351 1434 342 1459 c 1,48,-1
 329 1459 l 2,49,50
 181 1459 181 1459 65 1343 c 1,51,-1
 50 1343 l 1,52,-1
 158 1530 l 1,29,-1
EndSplineSet
Validated: 1
EndChar

StartChar: uni2126
Encoding: 8486 8486 144
Width: 1760
GlyphClass: 2
Flags: W
HStem: 0 21G<201.877 763 997 1559.07> 1408 122<740.884 1018.48>
VStem: 180 348<523.859 1056.43> 1231 348<529.091 1056.63>
LayerCount: 2
Fore
SplineSet
763 0 m 1,0,-1
 213 0 l 1,1,-1
 10 365 l 1,2,-1
 25 365 l 1,3,4
 248 160 248 160 587 130 c 1,5,-1
 587 139 l 1,6,7
 180 376 180 376 180 755 c 0,8,9
 180 1151 180 1151 422 1368 c 0,10,11
 603 1530 603 1530 871 1530 c 0,12,13
 1158 1530 1158 1530 1338 1368 c 0,14,15
 1579 1151 1579 1151 1579 755 c 0,16,17
 1579 390 1579 390 1173 139 c 1,18,-1
 1173 130 l 1,19,20
 1495 163 1495 163 1735 365 c 1,21,-1
 1750 365 l 1,22,-1
 1548 0 l 1,23,-1
 997 0 l 1,24,-1
 997 193 l 1,25,26
 1231 386 1231 386 1231 752 c 0,27,28
 1223 1125 1223 1125 1097 1290 c 0,29,30
 1007 1408 1007 1408 880 1408 c 128,-1,31
 753 1408 753 1408 664 1290 c 0,32,33
 528 1106 528 1106 528 754 c 0,34,35
 528 351 528 351 763 194 c 1,36,-1
 763 0 l 1,0,-1
EndSplineSet
Validated: 1
EndChar

StartChar: estimated
Encoding: 8494 8494 145
Width: 1261
GlyphClass: 2
Flags: W
HStem: -20 183<451.95 808.867> 491 189<403 855> 935 185<449.039 809.176>
VStem: 70 333<316.826 491 680 791.88>
LayerCount: 2
Fore
SplineSet
629 -20 m 4,0,1
 378 -20 378 -20 224 145 c 132,-1,2
 70 310 70 310 70 553 c 4,3,4
 70 802 70 802 226 960 c 4,5,6
 384 1120 384 1120 626 1120 c 4,7,8
 869 1120 869 1120 1017 974 c 4,9,10
 1191 802 1191 802 1191 491 c 5,11,-1
 403 491 l 5,12,-1
 403 239 l 5,13,14
 498 163 498 163 629 163 c 4,15,16
 837 163 837 163 955 351 c 5,17,-1
 1119 255 l 5,18,19
 995 85 995 85 876 32.5 c 132,-1,20
 757 -20 757 -20 629 -20 c 4,0,1
855 680 m 5,21,-1
 855 862 l 5,22,23
 757 935 757 935 627 935 c 4,24,25
 495 935 495 935 403 861 c 5,26,-1
 403 680 l 5,27,-1
 855 680 l 5,21,-1
EndSplineSet
Validated: 1
EndChar

StartChar: partialdiff
Encoding: 8706 8706 146
Width: 1305
GlyphClass: 2
Flags: W
HStem: -20 273<442.903 656.396> 823 260<567.1 816.76> 1257 273<492.596 816.913>
VStem: 100 305<291.814 617.824> 896 309<1024 1178.17>
LayerCount: 2
Fore
SplineSet
522 -20 m 4,0,1
 252 -20 252 -20 153 171 c 4,2,3
 100 273 100 273 100 416 c 4,4,5
 100 673 100 673 254 878 c 132,-1,6
 408 1083 408 1083 680 1083 c 4,7,8
 799 1083 799 1083 896 1024 c 5,9,10
 893 1115 893 1115 855 1173 c 4,11,12
 798 1257 798 1257 676 1257 c 4,13,14
 521 1257 521 1257 370 1132 c 5,15,-1
 370 1443 l 5,16,17
 516 1530 516 1530 713 1530 c 4,18,19
 1030 1530 1030 1530 1146 1271 c 4,20,21
 1205 1139 1205 1139 1205 950 c 4,22,23
 1205 563 1205 563 1022 272 c 4,24,25
 841 -20 841 -20 522 -20 c 4,0,1
869 699 m 5,26,27
 848 756 848 756 805 788 c 4,28,29
 758 823 758 823 690 823 c 4,30,31
 581 823 581 823 500 706 c 4,32,33
 405 567 405 567 405 431 c 4,34,35
 405 344 405 344 443 295 c 4,36,37
 475 253 475 253 535 253 c 4,38,39
 642 253 642 253 737 376 c 132,-1,40
 832 499 832 499 869 699 c 5,26,27
EndSplineSet
Validated: 1
EndChar

StartChar: uni2206
Encoding: 8710 8710 147
Width: 1817
GlyphClass: 2
Flags: W
HStem: 0 120<346 1257> 0 15<10 33.5828 1783.29 1807>
DStem2: 263 250 346 120 0.451635 0.892203<-77.6147 950.541> 926 1540 809 1039 0.439397 -0.898293<398.635 1421.02>
LayerCount: 2
Fore
SplineSet
346 120 m 1,0,-1
 1257 120 l 1,1,-1
 809 1039 l 1,2,-1
 346 120 l 1,0,-1
10 0 m 1,3,-1
 10 15 l 1,4,5
 163 57 163 57 263 250 c 2,6,-1
 916 1540 l 1,7,-1
 926 1540 l 1,8,-1
 1557 250 l 2,9,10
 1653 53 1653 53 1807 15 c 1,11,-1
 1807 0 l 1,12,-1
 10 0 l 1,3,-1
EndSplineSet
Validated: 1
EndChar

StartChar: product
Encoding: 8719 8719 148
Width: 1527
GlyphClass: 2
Flags: W
HStem: -410 15<10 30.5859 649.414 670 857 877.586 1496.41 1517> 1380 130<500 1027> 1495 15<10 30.5859 1496.41 1517>
VStem: 180 320<-313.75 1378.3> 1027 320<-313.75 1377.84>
LayerCount: 2
Fore
SplineSet
10 -410 m 1,0,-1
 10 -395 l 1,1,2
 180 -350 180 -350 180 -160 c 2,3,-1
 180 1260 l 2,4,5
 180 1451 180 1451 10 1495 c 1,6,-1
 10 1510 l 1,7,-1
 1517 1510 l 1,8,-1
 1517 1495 l 1,9,10
 1347 1450 1347 1450 1347 1260 c 2,11,-1
 1347 -160 l 2,12,13
 1347 -351 1347 -351 1517 -395 c 1,14,-1
 1517 -410 l 1,15,-1
 857 -410 l 1,16,-1
 857 -395 l 1,17,18
 1027 -350 1027 -350 1027 -160 c 2,19,-1
 1027 1380 l 1,20,-1
 500 1380 l 1,21,-1
 500 -160 l 2,22,23
 500 -351 500 -351 670 -395 c 1,24,-1
 670 -410 l 1,25,-1
 10 -410 l 1,0,-1
EndSplineSet
Validated: 1
EndChar

StartChar: summation
Encoding: 8721 8721 149
Width: 1392
GlyphClass: 2
Flags: W
HStem: -410 121<476.836 1062.69> 1389 121<479.51 931.492>
DStem2: 10 -400 491 -149 0.49775 0.86732<389.892 1068.81> 892 531 542 527 0.479736 -0.877413<-885.516 -164.398>
LayerCount: 2
Fore
SplineSet
10 -410 m 1,0,-1
 10 -400 l 1,1,-1
 542 527 l 1,2,-1
 10 1500 l 1,3,-1
 10 1510 l 1,4,-1
 1048 1510 l 1,5,-1
 1252 1160 l 1,6,-1
 1237 1160 l 1,7,8
 966 1389 966 1389 693 1389 c 2,9,-1
 499 1389 l 1,10,11
 476 1353 476 1353 476 1314 c 128,-1,12
 476 1275 476 1275 491 1248 c 2,13,-1
 892 531 l 1,14,-1
 491 -149 l 2,15,16
 474 -178 474 -178 474 -218 c 128,-1,17
 474 -258 474 -258 498 -289 c 1,18,-1
 819 -289 l 2,19,20
 1101 -289 1101 -289 1367 -60 c 1,21,-1
 1382 -60 l 1,22,-1
 1178 -410 l 1,23,-1
 10 -410 l 1,0,-1
EndSplineSet
Validated: 1
EndChar

StartChar: minus
Encoding: 8722 8722 150
Width: 1273
GlyphClass: 2
Flags: W
HStem: 649 211<219 1054>
LayerCount: 2
Fore
SplineSet
219 860 m 1,0,-1
 1173 860 l 1,1,-1
 1054 649 l 1,2,-1
 100 649 l 1,3,-1
 219 860 l 1,0,-1
EndSplineSet
Validated: 1
EndChar

StartChar: uni2215
Encoding: 8725 8725 151
Width: 1153
GlyphClass: 2
Flags: W
DStem2: 10 77 217 -40 0.529639 0.848223<10.3932 1736.17>
LayerCount: 2
Fore
SplineSet
217 -40 m 1,0,-1
 10 77 l 1,1,-1
 929 1550 l 1,2,-1
 1143 1443 l 1,3,-1
 217 -40 l 1,0,-1
EndSplineSet
Validated: 1
EndChar

StartChar: uni2219
Encoding: 8729 8729 152
Width: 464
GlyphClass: 2
Flags: W
HStem: 569 370<113.14 350.86>
VStem: 50 364<631.578 876.422>
LayerCount: 2
Fore
SplineSet
232 939 m 128,-1,1
 308 939 308 939 361 885 c 128,-1,2
 414 831 414 831 414 754 c 128,-1,3
 414 677 414 677 361 623 c 128,-1,4
 308 569 308 569 232 569 c 128,-1,5
 156 569 156 569 103 623 c 128,-1,6
 50 677 50 677 50 754 c 128,-1,7
 50 831 50 831 103 885 c 128,-1,0
 156 939 156 939 232 939 c 128,-1,1
EndSplineSet
Validated: 1
EndChar

StartChar: radical
Encoding: 8730 8730 153
Width: 1425
GlyphClass: 2
Flags: W
HStem: 725 121<10 198> 1550 121<1240 1415>
DStem2: 612 494 512 -40 0.4163 0.909227<0 1221.58>
LayerCount: 2
Fore
SplineSet
512 -40 m 1,0,-1
 502 -40 l 1,1,-1
 198 725 l 1,2,-1
 10 725 l 1,3,-1
 10 846 l 1,4,-1
 469 846 l 1,5,-1
 612 494 l 1,6,-1
 1152 1671 l 1,7,-1
 1415 1671 l 1,8,-1
 1415 1550 l 1,9,-1
 1240 1550 l 1,10,-1
 512 -40 l 1,0,-1
EndSplineSet
Validated: 1
EndChar

StartChar: infinity
Encoding: 8734 8734 154
Width: 1678
GlyphClass: 2
Flags: W
HStem: 346 209<332.519 569.089> 346 121<987.728 1302.42> 954 209<1108.91 1345.48> 1042 121<375.577 690.272>
VStem: 100 170<618.917 928.856> 1408 170<580.144 890.083>
DStem2: 650 711 956 643 0.421283 0.906929<-164.058 402.206>
LayerCount: 2
Fore
SplineSet
1137 1163 m 0,0,1
 1347 1163 1347 1163 1462.5 1045 c 128,-1,2
 1578 927 1578 927 1578 751 c 0,3,4
 1578 584 1578 584 1474 472 c 0,5,6
 1357 346 1357 346 1163 346 c 0,7,8
 1018 346 1018 346 906 420 c 1,9,-1
 991 532 l 1,10,11
 1059 467 1059 467 1153 467 c 0,12,13
 1271 467 1271 467 1335 541 c 0,14,15
 1408 625 1408 625 1408 751 c 0,16,17
 1408 834 1408 834 1364 891 c 0,18,19
 1315 954 1315 954 1222 954 c 0,20,21
 1100 954 1100 954 1028 798 c 2,22,-1
 956 643 l 2,23,24
 818 346 818 346 541 346 c 0,25,26
 331 346 331 346 215.5 464 c 128,-1,27
 100 582 100 582 100 758 c 0,28,29
 100 925 100 925 204 1037 c 0,30,31
 321 1163 321 1163 515 1163 c 0,32,33
 660 1163 660 1163 772 1089 c 1,34,-1
 687 977 l 1,35,36
 619 1042 619 1042 525 1042 c 0,37,38
 407 1042 407 1042 343 968 c 0,39,40
 270 884 270 884 270 758 c 0,41,42
 270 675 270 675 314 618 c 0,43,44
 363 555 363 555 456 555 c 0,45,46
 578 555 578 555 650 711 c 2,47,-1
 722 866 l 2,48,49
 860 1163 860 1163 1137 1163 c 0,0,1
EndSplineSet
Validated: 1
EndChar

StartChar: approxequal
Encoding: 8776 8776 155
Width: 1215
GlyphClass: 2
Flags: W
HStem: 376 181<728.738 979.402> 538 181<231.766 489.262> 774 181<726.738 977.402> 936 181<229.766 487.262>
DStem2: 776 978 438 913 0.915812 -0.401606<-388.206 103.878> 778 580 440 515 0.915812 -0.401606<-388.206 103.878>
LayerCount: 2
Fore
SplineSet
394 719 m 0,0,1
 461 719 461 719 534 687 c 2,2,-1
 778 580 l 2,3,4
 830 557 830 557 883 557 c 0,5,6
 1038 557 1038 557 1096 693 c 1,7,-1
 1115 693 l 1,8,9
 1071 376 1071 376 824 376 c 0,10,11
 757 376 757 376 684 408 c 2,12,-1
 440 515 l 2,13,14
 388 538 388 538 334 538 c 0,15,16
 180 538 180 538 122 402 c 1,17,-1
 102 402 l 1,18,19
 135 719 135 719 394 719 c 0,0,1
392 1117 m 0,20,21
 459 1117 459 1117 532 1085 c 2,22,-1
 776 978 l 2,23,24
 828 955 828 955 881 955 c 0,25,26
 1036 955 1036 955 1094 1091 c 1,27,-1
 1113 1091 l 1,28,29
 1069 774 1069 774 822 774 c 0,30,31
 755 774 755 774 682 806 c 2,32,-1
 438 913 l 2,33,34
 386 936 386 936 332 936 c 0,35,36
 178 936 178 936 120 800 c 1,37,-1
 100 800 l 1,38,39
 133 1117 133 1117 392 1117 c 0,20,21
EndSplineSet
Validated: 1
EndChar

StartChar: notequal
Encoding: 8800 8800 156
Width: 1273
GlyphClass: 2
Flags: W
HStem: 444 211<219 386 654 1054> 854 211<219 623 891 1054>
VStem: 228 146<170 316> 900 146<1187 1333>
DStem2: 228 170 374 170 0.500302 0.865851<73.0442 316.291 633.066 789.861 1106.64 1343.19>
LayerCount: 2
Fore
SplineSet
900 1333 m 1,0,-1
 1046 1333 l 1,1,-1
 891 1065 l 1,2,-1
 1173 1065 l 1,3,-1
 1054 854 l 1,4,-1
 769 854 l 1,5,-1
 654 655 l 1,6,-1
 1173 655 l 1,7,-1
 1054 444 l 1,8,-1
 532 444 l 1,9,-1
 374 170 l 1,10,-1
 228 170 l 1,11,-1
 386 444 l 1,12,-1
 100 444 l 1,13,-1
 219 655 l 1,14,-1
 508 655 l 1,15,-1
 623 854 l 1,16,-1
 100 854 l 1,17,-1
 219 1065 l 1,18,-1
 745 1065 l 1,19,-1
 900 1333 l 1,0,-1
EndSplineSet
Validated: 1
EndChar

StartChar: lessequal
Encoding: 8804 8804 157
Width: 1273
GlyphClass: 2
Flags: W
HStem: 174 211<219 1054>
DStem2: 109 908 517 937 0.870824 0.491594<369.553 1067.95> 517 937 109 893 0.878713 -0.47735<0 688.989>
LayerCount: 2
Fore
SplineSet
219 385 m 1,0,-1
 1173 385 l 1,1,-1
 1054 174 l 1,2,-1
 100 174 l 1,3,-1
 219 385 l 1,0,-1
1039 1433 m 1,4,-1
 1126 1281 l 1,5,-1
 517 937 l 1,6,-1
 1126 605 l 1,7,-1
 1011 403 l 1,8,-1
 109 893 l 1,9,-1
 109 908 l 1,10,-1
 1039 1433 l 1,4,-1
EndSplineSet
Validated: 1
EndChar

StartChar: greaterequal
Encoding: 8805 8805 158
Width: 1273
GlyphClass: 2
Flags: W
HStem: 174 211<219 1054>
DStem2: 264 1433 149 1231 0.878713 -0.47735<0 688.989> 149 555 236 403 0.870824 0.491594<1.03937 699.44>
LayerCount: 2
Fore
SplineSet
219 385 m 1,0,-1
 1173 385 l 1,1,-1
 1054 174 l 1,2,-1
 100 174 l 1,3,-1
 219 385 l 1,0,-1
264 1433 m 1,4,-1
 1166 943 l 1,5,-1
 1166 928 l 1,6,-1
 236 403 l 1,7,-1
 149 555 l 1,8,-1
 758 899 l 1,9,-1
 149 1231 l 1,10,-1
 264 1433 l 1,4,-1
EndSplineSet
Validated: 1
EndChar

StartChar: lozenge
Encoding: 9674 9674 159
Width: 1178
GlyphClass: 2
Flags: W
HStem: -20 21G<575.042 602.903> 1510 20G<575.641 602.409>
DStem2: 60 738 304 874 0.555427 0.831565<248.617 588.926> 304 874 60 738 0.5723 -0.820044<0 656.369> 589 1530 493 1157 0.556885 -0.83059<256.349 915.908> 680 336 589 -20 0.57078 0.821103<0 333.611>
LayerCount: 2
Fore
SplineSet
680 336 m 1,0,-1
 866 613 l 1,1,-1
 493 1157 l 1,2,-1
 304 874 l 1,3,-1
 680 336 l 1,0,-1
589 -20 m 1,4,-1
 60 738 l 1,5,-1
 589 1530 l 1,6,-1
 1118 741 l 1,7,-1
 589 -20 l 1,4,-1
EndSplineSet
Validated: 1
EndChar

StartChar: multiply
Encoding: 215 215 160
Width: 1187
Flags: W
DStem2: 373 1124 140 1059 0.707107 -0.707107<0 311.127 523.259 834.386> 140 450 373 385 0.707107 0.707107<118.794 429.921 641.346 953.18>
LayerCount: 2
Fore
SplineSet
373 1124 m 1,0,-1
 593 904 l 1,1,-1
 814 1124 l 1,2,-1
 1047 1059 l 1,3,-1
 743 754 l 1,4,-1
 1047 450 l 1,5,-1
 814 385 l 1,6,-1
 593 605 l 1,7,-1
 373 385 l 1,8,-1
 140 450 l 1,9,-1
 444 754 l 1,10,-1
 140 1059 l 1,11,-1
 373 1124 l 1,0,-1
EndSplineSet
Validated: 1
EndChar

StartChar: divide
Encoding: 247 247 161
Width: 1273
Flags: W
HStem: 151 370<517.14 754.86> 649 211<219 1054> 988 370<518.14 755.86>
VStem: 454 364<213.578 458.422 1052.33 1293.67>
CounterMasks: 1 e0
LayerCount: 2
Fore
SplineSet
637 1358 m 128,-1,1
 713 1358 713 1358 766 1304 c 128,-1,2
 819 1250 819 1250 819 1173 c 128,-1,3
 819 1096 819 1096 766 1042 c 128,-1,4
 713 988 713 988 637 988 c 128,-1,5
 561 988 561 988 508 1042 c 128,-1,6
 455 1096 455 1096 455 1173 c 128,-1,7
 455 1250 455 1250 508 1304 c 128,-1,0
 561 1358 561 1358 637 1358 c 128,-1,1
219 860 m 1,8,-1
 1173 860 l 1,9,-1
 1054 649 l 1,10,-1
 100 649 l 1,11,-1
 219 860 l 1,8,-1
636 151 m 128,-1,13
 560 151 560 151 507 205 c 128,-1,14
 454 259 454 259 454 336 c 128,-1,15
 454 413 454 413 507 467 c 128,-1,16
 560 521 560 521 636 521 c 128,-1,17
 712 521 712 521 765 467 c 128,-1,18
 818 413 818 413 818 336 c 128,-1,19
 818 259 818 259 765 205 c 128,-1,12
 712 151 712 151 636 151 c 128,-1,13
EndSplineSet
Validated: 1
EndChar

StartChar: g
Encoding: 103 103 162
Width: 1300
Flags: W
HStem: -430 121<320.688 669.561> -40 20G<163 186.5> -20 121<553.767 789.559> 999 121<553.89 787.281>
VStem: 70 330<320.016 784.33> 163 15<-57.6138 -20> 820 300<151.258 929.5>
LayerCount: 2
Fore
SplineSet
689 101 m 0,0,1
 760 101 760 101 793 150 c 0,2,3
 820 190 820 190 820 262 c 2,4,-1
 820 838 l 2,5,6
 820 910 820 910 793 950 c 0,7,8
 760 999 760 999 689 999 c 0,9,10
 554 999 554 999 472 862 c 0,11,12
 400 742 400 742 400 550 c 128,-1,13
 400 358 400 358 472 238 c 0,14,15
 554 101 554 101 689 101 c 0,0,1
759 -20 m 0,16,17
 419 -20 419 -20 244 138 c 0,18,19
 70 296 70 296 70 550 c 0,20,21
 70 805 70 805 234 952 c 0,22,23
 422 1120 422 1120 759 1120 c 0,24,25
 1034 1120 1034 1120 1290 998 c 1,26,-1
 1290 983 l 1,27,28
 1120 949 1120 949 1120 837 c 2,29,-1
 1120 134 l 2,30,31
 1120 -130 1120 -130 975 -269 c 0,32,33
 807 -430 807 -430 476 -430 c 0,34,35
 324 -430 324 -430 163 -384 c 1,36,-1
 163 -20 l 1,37,-1
 178 -20 l 1,38,39
 195 -132 195 -132 264 -214 c 0,40,41
 343 -309 343 -309 486 -309 c 128,-1,42
 629 -309 629 -309 702 -243 c 0,43,44
 791 -163 791 -163 820 -15 c 1,45,46
 791 -20 791 -20 759 -20 c 0,16,17
EndSplineSet
Validated: 1
EndChar

StartChar: k
Encoding: 107 107 163
Width: 1387
Flags: W
HStem: 0 15<10 30.5859 593.047 610 677 692.916 1359.46 1377> 1085 15<742 762.885 1235.96 1251> 1510 20G<352.5 470>
VStem: 180 290<96.25 249 449 1335.75>
DStem2: 470 449 628 438 0.625644 0.780108<0 90.2706 258.312 650.009>
LayerCount: 2
Fore
SplineSet
10 0 m 1,0,-1
 10 15 l 1,1,2
 180 60 180 60 180 250 c 2,3,-1
 180 1240 l 2,4,5
 180 1356 180 1356 10 1391 c 1,6,-1
 10 1406 l 1,7,8
 235 1511 235 1511 470 1530 c 1,9,-1
 470 449 l 1,10,-1
 795 863 l 2,11,12
 843 924 843 924 843 985 c 0,13,14
 843 1054 843 1054 742 1085 c 1,15,-1
 742 1100 l 1,16,-1
 1251 1100 l 1,17,-1
 1251 1085 l 1,18,19
 1090 1026 1090 1026 952 850 c 2,20,-1
 732 570 l 1,21,-1
 878 570 l 1,22,-1
 1082 251 l 2,23,24
 1188 85 1188 85 1377 15 c 1,25,-1
 1377 0 l 1,26,-1
 677 0 l 1,27,-1
 677 15 l 1,28,29
 783 57 783 57 783 157 c 0,30,31
 783 197 783 197 750 248 c 2,32,-1
 628 438 l 1,33,-1
 470 249 l 1,34,35
 470 59 470 59 610 15 c 1,36,-1
 610 0 l 1,37,-1
 10 0 l 1,0,-1
EndSplineSet
Validated: 1
EndChar

StartChar: v
Encoding: 118 118 164
Width: 1317
Flags: W
HStem: -20 121<513.112 754.94> 1100 20G<351.5 480 978.692 1133>
VStem: 180 300<133.702 938> 935 312<342.251 800.384>
LayerCount: 2
Fore
SplineSet
572 -20 m 0,0,1
 180 -20 180 -20 180 265 c 2,2,-1
 180 845 l 2,3,4
 180 958 180 958 10 991 c 1,5,-1
 10 1006 l 1,6,7
 223 1112 223 1112 480 1120 c 1,8,-1
 480 267 l 2,9,10
 480 101 480 101 621 101 c 0,11,12
 706 101 706 101 784 167 c 0,13,14
 935 294 935 294 935 591 c 0,15,16
 935 810 935 810 757 990 c 1,17,-1
 1019 1120 l 1,18,19
 1247 903 1247 903 1247 585 c 0,20,21
 1247 325 1247 325 1080 157 c 0,22,23
 904 -20 904 -20 572 -20 c 0,0,1
EndSplineSet
Validated: 1
EndChar

StartChar: w
Encoding: 119 119 165
Width: 2017
Flags: W
HStem: -20 121<513.112 755.402 1213.34 1454.94> 1100 20G<351.5 480 1051.5 1180 1678.69 1833>
VStem: 180 300<133.702 938> 880 300<244.678 938> 1635 312<342.251 800.384>
LayerCount: 2
Fore
SplineSet
572 -20 m 0,0,1
 180 -20 180 -20 180 265 c 2,2,-1
 180 845 l 2,3,4
 180 958 180 958 10 991 c 1,5,-1
 10 1006 l 1,6,7
 223 1113 223 1113 480 1120 c 1,8,-1
 480 267 l 2,9,10
 480 101 480 101 621 101 c 0,11,12
 715 101 715 101 784 167 c 0,13,14
 880 256 880 256 880 524 c 2,15,-1
 880 845 l 2,16,17
 880 958 880 958 710 991 c 1,18,-1
 710 1006 l 1,19,20
 923 1113 923 1113 1180 1120 c 1,21,-1
 1180 267 l 2,22,23
 1180 101 1180 101 1321 101 c 0,24,25
 1406 101 1406 101 1484 167 c 0,26,27
 1635 294 1635 294 1635 591 c 0,28,29
 1635 810 1635 810 1457 990 c 1,30,-1
 1719 1120 l 1,31,32
 1947 903 1947 903 1947 585 c 0,33,34
 1947 325 1947 325 1780 157 c 0,35,36
 1604 -20 1604 -20 1272 -20 c 0,37,38
 1056 -20 1056 -20 959 66 c 1,39,40
 803 -20 803 -20 572 -20 c 0,0,1
EndSplineSet
Validated: 1
EndChar

StartChar: y
Encoding: 121 121 166
Width: 1365
Flags: W
HStem: -430 121<405.761 760.39> -40 20G<248 271.5> -20 121<640.151 881.891> 1100 20G<353 485 1081 1205>
VStem: 180 305<302.701 938.5> 248 15<-57.6138 -20> 915 290<-117.366 -13 151.412 938.5>
LayerCount: 2
Fore
SplineSet
844 -20 m 0,0,1
 507 -20 507 -20 325 153 c 0,2,3
 180 291 180 291 180 549 c 2,4,-1
 180 845 l 2,5,6
 180 959 180 959 10 991 c 1,7,-1
 10 1006 l 1,8,9
 221 1112 221 1112 485 1120 c 1,10,-1
 485 552 l 2,11,12
 485 361 485 361 558 239 c 0,13,14
 641 101 641 101 777 101 c 0,15,16
 852 101 852 101 885 150 c 0,17,18
 915 195 915 195 915 262 c 2,19,-1
 915 845 l 2,20,21
 915 959 915 959 745 991 c 1,22,-1
 745 1006 l 1,23,24
 957 1112 957 1112 1205 1120 c 1,25,-1
 1205 134 l 2,26,27
 1205 -130 1205 -130 1060 -269 c 0,28,29
 892 -430 892 -430 561 -430 c 0,30,31
 409 -430 409 -430 248 -384 c 1,32,-1
 248 -20 l 1,33,-1
 263 -20 l 1,34,35
 280 -132 280 -132 349 -214 c 0,36,37
 428 -309 428 -309 572.5 -309 c 128,-1,38
 717 -309 717 -309 790 -243 c 0,39,40
 889 -154 889 -154 915 -13 c 1,41,42
 880 -20 880 -20 844 -20 c 0,0,1
EndSplineSet
Validated: 1
EndChar

StartChar: z
Encoding: 122 122 167
Width: 1141
Flags: W
HStem: 0 120<426 890.825> 980 120<303.142 685>
DStem2: 10 0 426 120 0.567242 0.823551<334.799 1189.97>
LayerCount: 2
Fore
SplineSet
10 0 m 1,0,-1
 685 980 l 1,1,-1
 580 980 l 2,2,3
 262 980 262 980 77 788 c 1,4,-1
 63 788 l 1,5,-1
 243 1100 l 1,6,-1
 1101 1100 l 1,7,-1
 426 120 l 1,8,-1
 611 120 l 2,9,10
 934 120 934 120 1116 312 c 1,11,-1
 1131 312 l 1,12,-1
 951 0 l 1,13,-1
 10 0 l 1,0,-1
EndSplineSet
Validated: 1
EndChar

StartChar: x
Encoding: 120 120 168
Width: 1326
Flags: W
HStem: 0 15<10 28.7617 667 682.19 1304.76 1316> 1085 15<10 25.8167 637.882 652 846 863.257 1302.85 1316>
DStem2: 313 243 480 235 0.660052 0.75122<-34.4433 306.851 613.633 954.973> 718 704 537 498 0.568365 -0.822776<-301.421 0 201.71 489.329>
LayerCount: 2
Fore
SplineSet
10 0 m 1,0,-1
 10 15 l 1,1,2
 160 69 160 69 313 243 c 2,3,-1
 537 498 l 1,4,-1
 295 849 l 2,5,6
 180 1015 180 1015 10 1085 c 1,7,-1
 10 1100 l 1,8,-1
 652 1100 l 1,9,-1
 652 1085 l 1,10,11
 573 1053 573 1053 573 972 c 0,12,13
 573 914 573 914 611 859 c 2,14,-1
 718 704 l 1,15,-1
 853 857 l 2,16,17
 912 924 912 924 912 990 c 0,18,19
 912 1062 912 1062 846 1085 c 1,20,-1
 846 1100 l 1,21,-1
 1316 1100 l 1,22,-1
 1316 1085 l 1,23,24
 1176 1027 1176 1027 1023 853 c 2,25,-1
 795 593 l 1,26,-1
 1031 251 l 2,27,28
 1135 101 1135 101 1316 15 c 1,29,-1
 1316 0 l 1,30,-1
 667 0 l 1,31,-1
 667 15 l 1,32,33
 752 47 752 47 752 131 c 0,34,35
 752 187 752 187 710 248 c 2,36,-1
 614 387 l 1,37,-1
 480 235 l 2,38,39
 419 166 419 166 419 102 c 0,40,41
 419 36 419 36 469 15 c 1,42,-1
 469 0 l 1,43,-1
 10 0 l 1,0,-1
EndSplineSet
Validated: 1
EndChar

StartChar: AE
Encoding: 198 198 169
Width: 2215
Flags: W
HStem: 0 120<1323.17 1922.5> 0 15<10 29.8352 490.684 508 825 845.586> 530 120<592 995 1315 1568.56> 1390 120<1323.17 1791.81>
VStem: 995 320<123.688 530 650 1383.37>
DStem2: 239 250 386 250 0.456231 0.889862<-12.6166 381.924 516.994 1343.5>
LayerCount: 2
Fore
SplineSet
10 0 m 1,0,-1
 10 15 l 1,1,2
 138 52 138 52 239 250 c 2,3,-1
 885 1510 l 1,4,-1
 1871 1510 l 1,5,-1
 2074 1158 l 1,6,-1
 2059 1158 l 1,7,8
 1835 1390 1835 1390 1563 1390 c 2,9,-1
 1337 1390 l 1,10,11
 1315 1338 1315 1338 1315 1260 c 2,12,-1
 1315 650 l 1,13,-1
 1479 650 l 2,14,15
 1703 650 1703 650 1892 847 c 1,16,-1
 1907 847 l 1,17,-1
 1620 345 l 1,18,-1
 1605 345 l 1,19,20
 1605 530 1605 530 1479 530 c 2,21,-1
 1315 530 l 1,22,-1
 1315 250 l 2,23,24
 1315 172 1315 172 1337 120 c 1,25,-1
 1693 120 l 2,26,27
 1966 120 1966 120 2190 352 c 1,28,-1
 2205 352 l 1,29,-1
 2001 0 l 1,30,-1
 825 0 l 1,31,-1
 825 15 l 1,32,33
 995 60 995 60 995 250 c 2,34,-1
 995 530 l 1,35,-1
 530 530 l 1,36,-1
 386 250 l 2,37,38
 365 209 365 209 365 170 c 0,39,40
 365 70 365 70 508 15 c 1,41,-1
 508 0 l 1,42,-1
 10 0 l 1,0,-1
592 650 m 1,43,-1
 995 650 l 1,44,-1
 995 1260 l 2,45,46
 995 1333 995 1333 970 1385 c 1,47,-1
 592 650 l 1,43,-1
EndSplineSet
Validated: 1
EndChar

StartChar: Eth
Encoding: 208 208 170
Width: 1514
Flags: W
HStem: -20 123<538.924 839.155> 700 121<78 180 490 651> 1408 122<538.705 840.094>
VStem: 180 310<179 700 821 1331> 1090 354<468.152 1051.61>
LayerCount: 2
Fore
SplineSet
620 -20 m 0,0,1
 294 -20 294 -20 10 102 c 1,2,-1
 10 116 l 1,3,4
 180 168 180 168 180 264 c 2,5,-1
 180 700 l 1,6,-1
 10 700 l 1,7,-1
 78 821 l 1,8,-1
 180 821 l 1,9,-1
 180 1246 l 2,10,11
 180 1342 180 1342 10 1394 c 1,12,-1
 10 1408 l 1,13,14
 292 1530 292 1530 620 1530 c 0,15,16
 1016 1530 1016 1530 1239 1306 c 0,17,18
 1444 1100 1444 1100 1444 775 c 0,19,20
 1444 430 1444 430 1269 239 c 0,21,22
 1031 -20 1031 -20 620 -20 c 0,0,1
682 103 m 0,23,24
 874 103 874 103 992 322 c 0,25,26
 1090 503 1090 503 1090 755.5 c 128,-1,27
 1090 1008 1090 1008 992 1189 c 0,28,29
 873 1408 873 1408 682 1408 c 0,30,31
 605 1408 605 1408 561 1380 c 0,32,33
 490 1335 490 1335 490 1246 c 2,34,-1
 490 821 l 1,35,-1
 718 821 l 1,36,-1
 651 701 l 1,37,-1
 490 701 l 1,38,-1
 490 265 l 2,39,40
 490 177 490 177 561 131 c 0,41,42
 604 103 604 103 682 103 c 0,23,24
EndSplineSet
Validated: 1
EndChar

StartChar: Dcroat
Encoding: 272 272 171
Width: 1514
Flags: W
HStem: -20 123<538.924 839.155> 700 121<78 180 490 651> 1408 122<538.705 840.094>
VStem: 180 310<179 700 821 1331> 1090 354<468.152 1051.61>
LayerCount: 2
Fore
SplineSet
620 -20 m 0,0,1
 294 -20 294 -20 10 102 c 1,2,-1
 10 116 l 1,3,4
 180 168 180 168 180 264 c 2,5,-1
 180 700 l 1,6,-1
 10 700 l 1,7,-1
 78 821 l 1,8,-1
 180 821 l 1,9,-1
 180 1246 l 2,10,11
 180 1342 180 1342 10 1394 c 1,12,-1
 10 1408 l 1,13,14
 292 1530 292 1530 620 1530 c 0,15,16
 1016 1530 1016 1530 1239 1306 c 0,17,18
 1444 1100 1444 1100 1444 775 c 0,19,20
 1444 430 1444 430 1269 239 c 0,21,22
 1031 -20 1031 -20 620 -20 c 0,0,1
682 103 m 0,23,24
 874 103 874 103 992 322 c 0,25,26
 1090 503 1090 503 1090 755.5 c 128,-1,27
 1090 1008 1090 1008 992 1189 c 0,28,29
 873 1408 873 1408 682 1408 c 0,30,31
 605 1408 605 1408 561 1380 c 0,32,33
 490 1335 490 1335 490 1246 c 2,34,-1
 490 821 l 1,35,-1
 718 821 l 1,36,-1
 651 701 l 1,37,-1
 490 701 l 1,38,-1
 490 265 l 2,39,40
 490 177 490 177 561 131 c 0,41,42
 604 103 604 103 682 103 c 0,23,24
EndSplineSet
Validated: 1
EndChar

StartChar: Hbar
Encoding: 294 294 172
Width: 1527
Flags: W
HStem: 0 15<10 30.5859 649.414 670 857 877.586 1496.41 1517> 525 130<500 1027> 1028 120<108 180 500 1027 1347 1420> 1495 15<10 30.5859 649.414 670 857 877.586 1496.41 1517>
VStem: 180 320<96.25 525 655 1028 1148 1413.75> 1027 320<96.25 525 655 1028 1148 1413.75>
LayerCount: 2
Fore
SplineSet
10 0 m 1,0,-1
 10 15 l 1,1,2
 180 60 180 60 180 250 c 2,3,-1
 180 1028 l 1,4,-1
 40 1028 l 1,5,-1
 108 1148 l 1,6,-1
 180 1148 l 1,7,-1
 180 1260 l 2,8,9
 180 1451 180 1451 10 1495 c 1,10,-1
 10 1510 l 1,11,-1
 670 1510 l 1,12,-1
 670 1495 l 1,13,14
 500 1450 500 1450 500 1260 c 2,15,-1
 500 1148 l 1,16,-1
 1027 1148 l 1,17,-1
 1027 1260 l 2,18,19
 1027 1451 1027 1451 857 1495 c 1,20,-1
 857 1510 l 1,21,-1
 1517 1510 l 1,22,-1
 1517 1495 l 1,23,24
 1347 1450 1347 1450 1347 1260 c 2,25,-1
 1347 1148 l 1,26,-1
 1487 1148 l 1,27,-1
 1420 1028 l 1,28,-1
 1347 1028 l 1,29,-1
 1347 250 l 2,30,31
 1347 59 1347 59 1517 15 c 1,32,-1
 1517 0 l 1,33,-1
 857 0 l 1,34,-1
 857 15 l 1,35,36
 1027 60 1027 60 1027 250 c 2,37,-1
 1027 525 l 1,38,-1
 500 525 l 1,39,-1
 500 250 l 2,40,41
 500 59 500 59 670 15 c 1,42,-1
 670 0 l 1,43,-1
 10 0 l 1,0,-1
500 1028 m 1,44,-1
 500 655 l 1,45,-1
 1027 655 l 1,46,-1
 1027 1028 l 1,47,-1
 500 1028 l 1,44,-1
EndSplineSet
Validated: 1
EndChar

StartChar: Lslash
Encoding: 321 321 173
Width: 1318
Flags: W
HStem: 0 120<510.397 1025.81> 0 15<10 30.5859> 1495 15<10 30.5859 649.414 670>
VStem: 180 320<123.688 530 688 800 957 1413.75>
DStem2: 15 549 41 413 0.764593 0.644513<0 113.912 633.789 748.346>
LayerCount: 2
Fore
SplineSet
10 0 m 1,0,-1
 10 15 l 1,1,2
 180 60 180 60 180 250 c 2,3,-1
 180 530 l 1,4,-1
 41 413 l 1,5,-1
 15 549 l 1,6,-1
 180 688 l 1,7,-1
 180 1260 l 2,8,9
 180 1451 180 1451 10 1495 c 1,10,-1
 10 1510 l 1,11,-1
 670 1510 l 1,12,-1
 670 1495 l 1,13,14
 500 1450 500 1450 500 1260 c 2,15,-1
 500 957 l 1,16,-1
 639 1074 l 1,17,-1
 665 939 l 1,18,-1
 500 800 l 1,19,-1
 500 250 l 2,20,21
 500 171 500 171 528 120 c 1,22,-1
 797 120 l 2,23,24
 1069 120 1069 120 1293 352 c 1,25,-1
 1308 352 l 1,26,-1
 1105 0 l 1,27,-1
 10 0 l 1,0,-1
EndSplineSet
Validated: 1
EndChar

StartChar: Eng
Encoding: 330 330 174
Width: 1574
Flags: W
HStem: -430 21G<879 1161.5> 0 15<10 30.5859 649.414 670> 1408 122<548.746 842.095>
VStem: 180 320<96.25 1331> 1109 335<-207.429 1045.1>
LayerCount: 2
Fore
SplineSet
10 0 m 1,0,-1
 10 15 l 1,1,2
 180 60 180 60 180 250 c 2,3,-1
 180 1246 l 2,4,5
 180 1342 180 1342 10 1394 c 1,6,-1
 10 1408 l 1,7,8
 292 1530 292 1530 620 1530 c 0,9,10
 1016 1530 1016 1530 1239 1306 c 0,11,12
 1444 1100 1444 1100 1444 775 c 2,13,-1
 1444 0 l 2,14,15
 1444 -430 1444 -430 879 -430 c 1,16,-1
 879 -415 l 1,17,18
 1109 -288 1109 -288 1109 0 c 2,19,-1
 1109 755 l 2,20,21
 1109 995 1109 995 1008 1182 c 0,22,23
 885 1408 885 1408 682 1408 c 0,24,25
 615 1408 615 1408 571 1380 c 0,26,27
 500 1335 500 1335 500 1246 c 2,28,-1
 500 250 l 2,29,30
 500 59 500 59 670 15 c 1,31,-1
 670 0 l 1,32,-1
 10 0 l 1,0,-1
EndSplineSet
Validated: 1
EndChar

StartChar: OE
Encoding: 338 338 175
Width: 2197
Flags: W
HStem: -20 122<626.522 915.367> 0 120<1305.17 1904.5> 530 120<1297 1550.56> 1390 120<1305.17 1773.81> 1408 122<626.522 915.367>
VStem: 70 348<450.566 1059.68> 977 320<194.813 530 650 1315.19>
LayerCount: 2
Fore
SplineSet
1983 0 m 1,0,-1
 954 0 l 1,1,2
 868 -20 868 -20 770 -20 c 0,3,4
 492 -20 492 -20 312 142 c 0,5,6
 70 360 70 360 70 755 c 128,-1,7
 70 1150 70 1150 312 1368 c 0,8,9
 492 1530 492 1530 770 1530 c 0,10,11
 868 1530 868 1530 954 1510 c 1,12,-1
 1853 1510 l 1,13,-1
 2056 1158 l 1,14,-1
 2041 1158 l 1,15,16
 1817 1390 1817 1390 1545 1390 c 2,17,-1
 1319 1390 l 1,18,19
 1297 1338 1297 1338 1297 1260 c 2,20,-1
 1297 650 l 1,21,-1
 1461 650 l 2,22,23
 1685 650 1685 650 1874 847 c 1,24,-1
 1889 847 l 1,25,-1
 1602 345 l 1,26,-1
 1587 345 l 1,27,28
 1587 530 1587 530 1461 530 c 2,29,-1
 1297 530 l 1,30,-1
 1297 250 l 2,31,32
 1297 172 1297 172 1319 120 c 1,33,-1
 1675 120 l 2,34,35
 1948 120 1948 120 2172 352 c 1,36,-1
 2187 352 l 1,37,-1
 1983 0 l 1,0,-1
770 102 m 0,38,39
 884 102 884 102 973 194 c 1,40,41
 977 220 977 220 977 250 c 2,42,-1
 977 1260 l 2,43,44
 977 1290 977 1290 973 1316 c 1,45,46
 884 1408 884 1408 770 1408 c 0,47,48
 640 1408 640 1408 543 1289 c 0,49,50
 418 1137 418 1137 418 755 c 0,51,52
 418 374 418 374 543 221 c 0,53,54
 640 102 640 102 770 102 c 0,38,39
EndSplineSet
Validated: 1
EndChar

StartChar: Tbar
Encoding: 358 358 176
Width: 1529
Flags: W
HStem: 0 15<435 455.586 1074.41 1095> 698 121<474 605 925 1056> 1390 120<291.695 596.406 933.169 1237.13>
VStem: 605 320<96.25 698 819 1388.31>
LayerCount: 2
Fore
SplineSet
435 0 m 1,0,-1
 435 15 l 1,1,2
 605 60 605 60 605 250 c 2,3,-1
 605 698 l 1,4,-1
 406 698 l 1,5,-1
 474 819 l 1,6,-1
 605 819 l 1,7,-1
 605 1260 l 2,8,9
 605 1336 605 1336 583 1390 c 1,10,-1
 521 1390 l 2,11,12
 248 1390 248 1390 25 1158 c 1,13,-1
 10 1158 l 1,14,-1
 213 1510 l 1,15,-1
 1317 1510 l 1,16,-1
 1519 1158 l 1,17,-1
 1504 1158 l 1,18,19
 1280 1390 1280 1390 1009 1390 c 2,20,-1
 947 1390 l 1,21,22
 925 1339 925 1339 925 1260 c 2,23,-1
 925 819 l 1,24,-1
 1124 819 l 1,25,-1
 1056 699 l 1,26,-1
 925 699 l 1,27,-1
 925 250 l 2,28,29
 925 59 925 59 1095 15 c 1,30,-1
 1095 0 l 1,31,-1
 435 0 l 1,0,-1
EndSplineSet
Validated: 1
EndChar

StartChar: uni1E02
Encoding: 7682 7682 177
Width: 1394
Flags: W
HStem: -20 121<542.887 830.754> 1409 121<536.247 772.021> 1560 370<530.14 767.86>
VStem: 180 300<180.75 1330.25> 467 364<1622.58 1867.42> 844 319<1011.81 1325.93> 989 335<281.461 643.572>
LayerCount: 2
Fore
SplineSet
685 101 m 0,0,1
 818 101 818 101 904 214 c 0,2,3
 989 325 989 325 989 477 c 0,4,5
 989 633 989 633 868 727 c 0,6,7
 768 805 768 805 605 837 c 1,8,9
 698 876 698 876 764 939 c 0,10,11
 844 1015 844 1015 844 1171 c 0,12,13
 844 1280 844 1280 791 1347 c 0,14,15
 742 1409 742 1409 656 1409 c 0,16,17
 578 1409 578 1409 539 1377 c 24,18,19
 480 1328 480 1328 480 1246 c 2,20,-1
 480 265 l 2,21,22
 480 186 480 186 548 132 c 0,23,24
 587 101 587 101 685 101 c 0,0,1
631 -20 m 0,25,26
 291 -20 291 -20 10 103 c 1,27,-1
 10 118 l 1,28,29
 180 170 180 170 180 265 c 2,30,-1
 180 1246 l 2,31,32
 180 1341 180 1341 10 1393 c 1,33,-1
 10 1408 l 1,34,35
 294 1530 294 1530 611 1530 c 0,36,37
 934 1530 934 1530 1068 1391 c 0,38,39
 1163 1293 1163 1293 1163 1165 c 0,40,41
 1163 1035 1163 1035 1052 932 c 0,42,43
 1011 894 1011 894 956 866 c 1,44,45
 1050 842 1050 842 1131 795 c 0,46,47
 1324 683 1324 683 1324 472.5 c 128,-1,48
 1324 262 1324 262 1141 114 c 0,49,50
 975 -20 975 -20 631 -20 c 0,25,26
649 1930 m 128,-1,52
 725 1930 725 1930 778 1876 c 128,-1,53
 831 1822 831 1822 831 1745 c 128,-1,54
 831 1668 831 1668 778 1614 c 128,-1,55
 725 1560 725 1560 649 1560 c 128,-1,56
 573 1560 573 1560 520 1614 c 128,-1,57
 467 1668 467 1668 467 1745 c 128,-1,58
 467 1822 467 1822 520 1876 c 128,-1,51
 573 1930 573 1930 649 1930 c 128,-1,52
EndSplineSet
Validated: 1
EndChar

StartChar: uni1E03
Encoding: 7683 7683 178
Width: 1300
Flags: W
HStem: -20 121<503.508 746.233> 999 121<485.57 746.11> 1510 20G<352.5 470> 1560 370<203.14 440.86>
VStem: 140 364<1622.58 1867.42> 180 290<170 948.742 1118 1336.75> 900 330<320.016 784.33>
LayerCount: 2
Fore
SplineSet
541 -20 m 0,0,1
 267 -20 267 -20 10 102 c 1,2,-1
 10 117 l 1,3,4
 180 150 180 150 180 263 c 2,5,-1
 180 1240 l 2,6,7
 180 1358 180 1358 10 1391 c 1,8,-1
 10 1406 l 1,9,10
 235 1511 235 1511 470 1530 c 1,11,-1
 470 1118 l 1,12,13
 500 1120 500 1120 541 1120 c 0,14,15
 878 1120 878 1120 1066 952 c 0,16,17
 1230 805 1230 805 1230 550 c 0,18,19
 1230 296 1230 296 1056 138 c 0,20,21
 881 -20 881 -20 541 -20 c 0,0,1
611 101 m 0,22,23
 746 101 746 101 828 238 c 0,24,25
 900 358 900 358 900 550 c 128,-1,26
 900 742 900 742 828 862 c 0,27,28
 746 999 746 999 611 999 c 0,29,30
 530 999 530 999 497 950 c 0,31,32
 470 910 470 910 470 838 c 2,33,-1
 470 262 l 2,34,35
 470 190 470 190 497 150 c 0,36,37
 530 101 530 101 611 101 c 0,22,23
322 1930 m 128,-1,39
 398 1930 398 1930 451 1876 c 128,-1,40
 504 1822 504 1822 504 1745 c 128,-1,41
 504 1668 504 1668 451 1614 c 128,-1,42
 398 1560 398 1560 322 1560 c 128,-1,43
 246 1560 246 1560 193 1614 c 128,-1,44
 140 1668 140 1668 140 1745 c 128,-1,45
 140 1822 140 1822 193 1876 c 128,-1,38
 246 1930 246 1930 322 1930 c 128,-1,39
EndSplineSet
Validated: 1
EndChar

StartChar: uni1E0A
Encoding: 7690 7690 179
Width: 1514
Flags: W
HStem: -20 123<538.924 839.155> 1408 122<538.705 840.094> 1560 370<605.14 842.86>
VStem: 180 310<179 1331> 542 364<1622.58 1867.42> 1090 354<468.152 1051.61>
LayerCount: 2
Fore
SplineSet
682 103 m 0,0,1
 874 103 874 103 992 322 c 0,2,3
 1090 503 1090 503 1090 755.5 c 128,-1,4
 1090 1008 1090 1008 992 1189 c 0,5,6
 873 1408 873 1408 682 1408 c 0,7,8
 605 1408 605 1408 561 1380 c 0,9,10
 490 1335 490 1335 490 1246 c 2,11,-1
 490 265 l 2,12,13
 490 177 490 177 561 131 c 0,14,15
 604 103 604 103 682 103 c 0,0,1
620 -20 m 0,16,17
 294 -20 294 -20 10 102 c 1,18,-1
 10 116 l 1,19,20
 180 168 180 168 180 264 c 2,21,-1
 180 1246 l 2,22,23
 180 1342 180 1342 10 1394 c 1,24,-1
 10 1408 l 1,25,26
 292 1530 292 1530 620 1530 c 0,27,28
 1016 1530 1016 1530 1239 1306 c 0,29,30
 1444 1100 1444 1100 1444 775 c 0,31,32
 1444 430 1444 430 1269 239 c 24,33,34
 1031 -20 1031 -20 620 -20 c 0,16,17
724 1930 m 128,-1,36
 800 1930 800 1930 853 1876 c 128,-1,37
 906 1822 906 1822 906 1745 c 128,-1,38
 906 1668 906 1668 853 1614 c 128,-1,39
 800 1560 800 1560 724 1560 c 128,-1,40
 648 1560 648 1560 595 1614 c 128,-1,41
 542 1668 542 1668 542 1745 c 128,-1,42
 542 1822 542 1822 595 1876 c 128,-1,35
 648 1930 648 1930 724 1930 c 128,-1,36
EndSplineSet
Validated: 1
EndChar

StartChar: uni1E0B
Encoding: 7691 7691 180
Width: 1300
Flags: W
HStem: -20 121<553.767 796.492> 999 121<553.89 814.43> 1510 20G<1002.5 1120> 1560 370<834.14 1071.86>
VStem: 70 330<320.016 784.33> 771 364<1622.58 1867.42> 830 290<170 948.742 1118 1336.75>
LayerCount: 2
Fore
SplineSet
759 -20 m 0,0,1
 419 -20 419 -20 244 138 c 0,2,3
 70 296 70 296 70 550 c 0,4,5
 70 805 70 805 234 952 c 0,6,7
 422 1120 422 1120 759 1120 c 0,8,9
 800 1120 800 1120 830 1118 c 1,10,-1
 830 1240 l 2,11,12
 830 1358 830 1358 660 1391 c 1,13,-1
 660 1406 l 1,14,15
 885 1511 885 1511 1120 1530 c 1,16,-1
 1120 263 l 2,17,18
 1120 150 1120 150 1290 117 c 1,19,-1
 1290 102 l 1,20,21
 1033 -20 1033 -20 759 -20 c 0,0,1
689 101 m 0,22,23
 770 101 770 101 803 150 c 0,24,25
 830 190 830 190 830 262 c 2,26,-1
 830 838 l 2,27,28
 830 910 830 910 803 950 c 0,29,30
 770 999 770 999 689 999 c 0,31,32
 554 999 554 999 472 862 c 0,33,34
 400 742 400 742 400 550 c 128,-1,35
 400 358 400 358 472 238 c 0,36,37
 554 101 554 101 689 101 c 0,22,23
953 1930 m 128,-1,39
 1029 1930 1029 1930 1082 1876 c 128,-1,40
 1135 1822 1135 1822 1135 1745 c 128,-1,41
 1135 1668 1135 1668 1082 1614 c 128,-1,42
 1029 1560 1029 1560 953 1560 c 128,-1,43
 877 1560 877 1560 824 1614 c 128,-1,44
 771 1668 771 1668 771 1745 c 128,-1,45
 771 1822 771 1822 824 1876 c 128,-1,38
 877 1930 877 1930 953 1930 c 128,-1,39
EndSplineSet
Validated: 1
EndChar

StartChar: uni1E1E
Encoding: 7710 7710 181
Width: 1269
Flags: W
HStem: 0 15<10 30.5859 649.414 670> 530 120<500 753.556> 1390 120<508.169 976.812> 1495 15<10 30.5859> 1560 370<491.14 728.86>
VStem: 180 320<96.25 530 650 1386.31> 428 364<1622.58 1867.42>
LayerCount: 2
Fore
SplineSet
610 1930 m 128,-1,1
 686 1930 686 1930 739 1876 c 128,-1,2
 792 1822 792 1822 792 1745 c 128,-1,3
 792 1668 792 1668 739 1614 c 128,-1,4
 686 1560 686 1560 610 1560 c 128,-1,5
 534 1560 534 1560 481 1614 c 128,-1,6
 428 1668 428 1668 428 1745 c 128,-1,7
 428 1822 428 1822 481 1876 c 128,-1,0
 534 1930 534 1930 610 1930 c 128,-1,1
10 0 m 1,8,-1
 10 15 l 1,9,10
 180 60 180 60 180 250 c 2,11,-1
 180 1260 l 2,12,13
 180 1450 180 1450 10 1495 c 1,14,-1
 10 1510 l 1,15,-1
 1056 1510 l 1,16,-1
 1259 1158 l 1,17,-1
 1244 1158 l 1,18,19
 1020 1390 1020 1390 748 1390 c 2,20,-1
 522 1390 l 1,21,22
 500 1338 500 1338 500 1260 c 2,23,-1
 500 650 l 1,24,-1
 664 650 l 2,25,26
 888 650 888 650 1077 847 c 1,27,-1
 1092 847 l 1,28,-1
 805 345 l 1,29,-1
 790 345 l 1,30,31
 790 530 790 530 664 530 c 2,32,-1
 500 530 l 1,33,-1
 500 250 l 2,34,35
 500 60 500 60 670 15 c 1,36,-1
 670 0 l 1,37,-1
 10 0 l 1,8,-1
EndSplineSet
Validated: 1
EndChar

StartChar: uni1E1F
Encoding: 7711 7711 182
Width: 1082
Flags: W
HStem: 0 15<10 30.5859 614.475 640> 639 120<470 681.344> 1409 121<505.199 801.743> 1560 370<485.14 722.86>
VStem: 180 290<97.25 639 759 1339> 422 364<1622.58 1867.42> 1047 15<995 1015.17>
LayerCount: 2
Fore
SplineSet
10 0 m 1,0,-1
 10 15 l 1,1,2
 180 62 180 62 180 250 c 2,3,-1
 180 1247 l 2,4,5
 180 1358 180 1358 10 1393 c 1,6,-1
 10 1408 l 1,7,8
 270 1530 270 1530 541 1530 c 0,9,10
 849 1530 849 1530 1062 1353 c 1,11,-1
 1062 995 l 1,12,-1
 1047 995 l 1,13,14
 994 1158 994 1158 910 1268 c 0,15,16
 802 1409 802 1409 628 1409 c 0,17,18
 533 1409 533 1409 500 1360 c 0,19,20
 470 1315 470 1315 470 1248 c 2,21,-1
 470 759 l 1,22,-1
 644 759 l 2,23,24
 781 759 781 759 903 850 c 1,25,-1
 918 850 l 1,26,-1
 721 530 l 1,27,-1
 706 530 l 1,28,29
 692 639 692 639 565 639 c 2,30,-1
 470 639 l 1,31,-1
 470 250 l 2,32,33
 470 54 470 54 640 15 c 1,34,-1
 640 0 l 1,35,-1
 10 0 l 1,0,-1
604 1930 m 128,-1,37
 680 1930 680 1930 733 1876 c 128,-1,38
 786 1822 786 1822 786 1745 c 128,-1,39
 786 1668 786 1668 733 1614 c 128,-1,40
 680 1560 680 1560 604 1560 c 128,-1,41
 528 1560 528 1560 475 1614 c 128,-1,42
 422 1668 422 1668 422 1745 c 128,-1,43
 422 1822 422 1822 475 1876 c 128,-1,36
 528 1930 528 1930 604 1930 c 128,-1,37
EndSplineSet
Validated: 1
EndChar

StartChar: uni1E40
Encoding: 7744 7744 183
Width: 2172
Flags: W
HStem: 0 15<10 27.5415 505.711 521 1442 1458.75 2144.46 2162> 1560 370<974.14 1211.86>
VStem: 911 364<1622.58 1867.42>
DStem2: 226 250 357 250 0.14834 0.988936<-20.91 663.626> 436 1550 453 887 0.502647 -0.864492<581.703 1321.01> 1100 408 1001 -40 0.486552 0.873652<0 637.008> 1751 1550 1524 901 0.14834 -0.988936<608.146 1304.91>
LayerCount: 2
Fore
SplineSet
1093 1930 m 128,-1,1
 1169 1930 1169 1930 1222 1876 c 128,-1,2
 1275 1822 1275 1822 1275 1745 c 128,-1,3
 1275 1668 1275 1668 1222 1614 c 128,-1,4
 1169 1560 1169 1560 1093 1560 c 128,-1,5
 1017 1560 1017 1560 964 1614 c 128,-1,6
 911 1668 911 1668 911 1745 c 128,-1,7
 911 1822 911 1822 964 1876 c 128,-1,0
 1017 1930 1017 1930 1093 1930 c 128,-1,1
10 0 m 1,8,-1
 10 15 l 17,9,10
 201 84 201 84 226 250 c 2,11,-1
 421 1550 l 1,12,-1
 436 1550 l 1,13,-1
 1100 408 l 1,14,-1
 1736 1550 l 1,15,-1
 1751 1550 l 1,16,-1
 1946 250 l 2,17,18
 1971 84 1971 84 2162 15 c 1,19,20
 2162 9 2162 9 2162 0 c 1,21,-1
 1442 0 l 1,22,-1
 1442 15 l 1,23,24
 1625 74 1625 74 1625 211 c 0,25,26
 1625 230 1625 230 1622 250 c 2,27,-1
 1524 901 l 1,28,-1
 1001 -40 l 1,29,-1
 986 -40 l 1,30,-1
 453 887 l 1,31,-1
 357 250 l 2,32,33
 354 230 354 230 354 209 c 0,34,35
 354 73 354 73 521 15 c 1,36,-1
 521 0 l 1,37,-1
 10 0 l 1,8,-1
EndSplineSet
Validated: 1
EndChar

StartChar: uni1E41
Encoding: 7745 7745 184
Width: 2090
Flags: W
HStem: -20 21G<1605 1736> 0 15<10 30.5859 614.475 640 735 755.586 1339.48 1365> 999 121<503.867 749.002 1230.58 1449.78> 1160 370<922.14 1159.86>
VStem: 180 290<95.75 928.5> 859 364<1222.58 1467.42> 905 290<96.75 799.587> 1605 305<163 793.334>
LayerCount: 2
Fore
SplineSet
10 0 m 1,0,-1
 10 15 l 1,1,2
 180 59 180 59 180 250 c 2,3,-1
 180 837 l 2,4,5
 180 947 180 947 10 983 c 1,6,-1
 10 998 l 1,7,8
 270 1120 270 1120 538 1120 c 0,9,10
 801 1120 801 1120 970 1015 c 1,11,12
 1087 1120 1087 1120 1266 1120 c 0,13,14
 1593 1120 1593 1120 1765 947 c 0,15,16
 1910 801 1910 801 1910 551 c 2,17,-1
 1910 255 l 2,18,19
 1910 144 1910 144 2080 109 c 1,20,-1
 2080 94 l 1,21,22
 1867 -12 1867 -12 1605 -20 c 1,23,-1
 1605 548 l 2,24,25
 1605 739 1605 739 1532 861 c 0,26,27
 1449 999 1449 999 1333 999 c 0,28,29
 1258 999 1258 999 1225 950 c 0,30,31
 1195 905 1195 905 1195 838 c 2,32,-1
 1195 250 l 2,33,34
 1195 56 1195 56 1365 15 c 1,35,-1
 1365 0 l 1,36,-1
 735 0 l 1,37,-1
 735 15 l 1,38,39
 905 61 905 61 905 250 c 2,40,-1
 905 549 l 2,41,42
 905 736 905 736 829 862 c 0,43,44
 747 999 747 999 616 999 c 0,45,46
 533 999 533 999 500 950 c 0,47,48
 470 905 470 905 470 838 c 2,49,-1
 470 250 l 2,50,51
 470 55 470 55 640 15 c 1,52,-1
 640 0 l 1,53,-1
 10 0 l 1,0,-1
1041 1530 m 128,-1,55
 1117 1530 1117 1530 1170 1476 c 128,-1,56
 1223 1422 1223 1422 1223 1345 c 128,-1,57
 1223 1268 1223 1268 1170 1214 c 128,-1,58
 1117 1160 1117 1160 1041 1160 c 128,-1,59
 965 1160 965 1160 912 1214 c 128,-1,60
 859 1268 859 1268 859 1345 c 128,-1,61
 859 1422 859 1422 912 1476 c 128,-1,54
 965 1530 965 1530 1041 1530 c 128,-1,55
EndSplineSet
Validated: 1
EndChar

StartChar: uni1E56
Encoding: 7766 7766 185
Width: 1385
Flags: W
HStem: 0 15<10 35.5249 634.475 660> 478 122<540.266 809.344> 1408 122<543.505 808.129> 1560 370<569.14 806.86>
VStem: 180 310<94.25 538 648.352 1331> 506 364<1622.58 1867.42> 971 344<799.795 1214.52>
LayerCount: 2
Fore
SplineSet
676 600 m 0,0,1
 769 600 769 600 838 666 c 0,2,3
 971 793 971 793 971 1004 c 128,-1,4
 971 1215 971 1215 838 1342 c 0,5,6
 769 1408 769 1408 676 1408 c 0,7,8
 603 1408 603 1408 558 1378 c 0,9,10
 490 1333 490 1333 490 1246 c 2,11,-1
 490 762 l 2,12,13
 490 675 490 675 558 630 c 0,14,15
 603 600 603 600 676 600 c 0,0,1
10 0 m 1,16,-1
 10 15 l 1,17,18
 180 56 180 56 180 250 c 2,19,-1
 180 1246 l 2,20,21
 180 1342 180 1342 10 1394 c 1,22,-1
 10 1408 l 1,23,24
 291 1530 291 1530 594 1530 c 0,25,26
 960 1530 960 1530 1144 1377 c 0,27,28
 1315 1235 1315 1235 1315 1010 c 0,29,30
 1315 782 1315 782 1145 631 c 0,31,32
 973 478 973 478 713 478 c 0,33,34
 587 478 587 478 490 538 c 1,35,-1
 490 250 l 2,36,37
 490 54 490 54 660 15 c 1,38,-1
 660 0 l 1,39,-1
 10 0 l 1,16,-1
688 1930 m 128,-1,41
 764 1930 764 1930 817 1876 c 128,-1,42
 870 1822 870 1822 870 1745 c 128,-1,43
 870 1668 870 1668 817 1614 c 128,-1,44
 764 1560 764 1560 688 1560 c 128,-1,45
 612 1560 612 1560 559 1614 c 128,-1,46
 506 1668 506 1668 506 1745 c 128,-1,47
 506 1822 506 1822 559 1876 c 128,-1,40
 612 1930 612 1930 688 1930 c 128,-1,41
EndSplineSet
Validated: 1
EndChar

StartChar: uni1E57
Encoding: 7767 7767 186
Width: 1300
Flags: W
HStem: -410 15<10 30.5859 619.414 640> -20 121<485.559 745.153> 999 121<503.497 745.276> 1160 370<503.14 740.86>
VStem: 180 290<-313.25 -18 151.258 930> 440 364<1222.58 1467.42> 900 330<315.67 779.984>
LayerCount: 2
Fore
SplineSet
10 -410 m 1,0,-1
 10 -395 l 1,1,2
 180 -349 180 -349 180 -160 c 2,3,-1
 180 837 l 2,4,5
 180 950 180 950 10 983 c 1,6,-1
 10 998 l 1,7,8
 267 1120 267 1120 541 1120 c 0,9,10
 881 1120 881 1120 1056 962 c 0,11,12
 1230 804 1230 804 1230 550 c 0,13,14
 1230 295 1230 295 1066 148 c 0,15,16
 878 -20 878 -20 541 -20 c 0,17,18
 500 -20 500 -20 470 -18 c 1,19,-1
 470 -160 l 2,20,21
 470 -351 470 -351 640 -395 c 1,22,-1
 640 -410 l 1,23,-1
 10 -410 l 1,0,-1
601 999 m 0,24,25
 530 999 530 999 497 950 c 0,26,27
 470 910 470 910 470 838 c 2,28,-1
 470 262 l 2,29,30
 470 190 470 190 497 150 c 0,31,32
 530 101 530 101 601 101 c 0,33,34
 746 101 746 101 828 238 c 0,35,36
 900 358 900 358 900 550 c 128,-1,37
 900 742 900 742 828 862 c 0,38,39
 746 999 746 999 601 999 c 0,24,25
622 1530 m 128,-1,41
 698 1530 698 1530 751 1476 c 128,-1,42
 804 1422 804 1422 804 1345 c 128,-1,43
 804 1268 804 1268 751 1214 c 128,-1,44
 698 1160 698 1160 622 1160 c 128,-1,45
 546 1160 546 1160 493 1214 c 128,-1,46
 440 1268 440 1268 440 1345 c 128,-1,47
 440 1422 440 1422 493 1476 c 128,-1,40
 546 1530 546 1530 622 1530 c 128,-1,41
EndSplineSet
Validated: 1
EndChar

StartChar: uni1E60
Encoding: 7776 7776 187
Width: 1321
Flags: W
HStem: -20 122<381.547 781.983> 1412 118<543.503 843.782> 1560 370<523.14 760.86>
VStem: 70 15<550.616 585> 172 308<1121.75 1325.46> 460 364<1622.58 1867.42> 927 324<266.815 537.457> 1044 15<1058 1089.49>
DStem2: 641 1042 468 762 0.919325 -0.393499<-170.359 419.361>
LayerCount: 2
Fore
SplineSet
642 1930 m 128,-1,1
 718 1930 718 1930 771 1876 c 128,-1,2
 824 1822 824 1822 824 1745 c 128,-1,3
 824 1668 824 1668 771 1614 c 128,-1,4
 718 1560 718 1560 642 1560 c 128,-1,5
 566 1560 566 1560 513 1614 c 128,-1,6
 460 1668 460 1668 460 1745 c 128,-1,7
 460 1822 460 1822 513 1876 c 128,-1,0
 566 1930 566 1930 642 1930 c 128,-1,1
646 -20 m 0,8,9
 450 -20 450 -20 304 53 c 0,10,11
 254 78 254 78 218 78 c 0,12,13
 136 78 136 78 85 -20 c 1,14,-1
 70 -20 l 1,15,-1
 70 585 l 1,16,-1
 85 585 l 1,17,18
 126 361 126 361 248 238 c 0,19,20
 383 102 383 102 606 102 c 0,21,22
 724 102 724 102 800 158 c 0,23,24
 927 251 927 251 927 408 c 0,25,26
 927 568 927 568 712 659 c 2,27,-1
 468 762 l 2,28,29
 172 887 172 887 172 1147 c 0,30,31
 172 1316 172 1316 300 1429 c 0,32,33
 416 1530 416 1530 609 1530 c 0,34,35
 738 1530 738 1530 828 1492 c 0,36,37
 883 1469 883 1469 932 1469 c 0,38,39
 1005 1469 1005 1469 1044 1530 c 1,40,-1
 1059 1530 l 1,41,-1
 1059 1058 l 1,42,-1
 1044 1058 l 1,43,44
 1014 1205 1014 1205 942 1296 c 0,45,46
 853 1412 853 1412 691 1412 c 0,47,48
 590 1412 590 1412 537 1363 c 0,49,50
 480 1310 480 1310 480 1230 c 0,51,52
 480 1111 480 1111 641 1042 c 2,53,-1
 905 929 l 2,54,55
 1251 781 1251 781 1251 470 c 0,56,57
 1251 260 1251 260 1091.5 120 c 128,-1,58
 932 -20 932 -20 646 -20 c 0,8,9
EndSplineSet
Validated: 1
EndChar

StartChar: uni1E61
Encoding: 7777 7777 188
Width: 1070
Flags: W
HStem: -20 116<298.983 620.926> 1015 105<462.726 720.477> 1160 370<409.14 646.86>
VStem: 70 15<-20 -2.62988 449.414 472> 161 287<741.5 982.773> 346 364<1222.58 1467.42> 700 300<184.129 375.26> 850 15<749 784.984>
DStem2: 588 771 373 546 0.883395 -0.46863<-175.229 298.229>
LayerCount: 2
Fore
SplineSet
528 1530 m 128,-1,1
 604 1530 604 1530 657 1476 c 128,-1,2
 710 1422 710 1422 710 1345 c 128,-1,3
 710 1268 710 1268 657 1214 c 128,-1,4
 604 1160 604 1160 528 1160 c 128,-1,5
 452 1160 452 1160 399 1214 c 128,-1,6
 346 1268 346 1268 346 1345 c 128,-1,7
 346 1422 346 1422 399 1476 c 128,-1,0
 452 1530 452 1530 528 1530 c 128,-1,1
512 -20 m 0,8,9
 382 -20 382 -20 261 42 c 16,10,11
 218 64 218 64 184 64 c 0,12,13
 117 64 117 64 85 -20 c 1,14,-1
 70 -20 l 1,15,-1
 70 472 l 1,16,-1
 85 472 l 1,17,18
 137 289 137 289 247 180 c 0,19,20
 333 96 333 96 464 96 c 0,21,22
 590 96 590 96 657 172 c 0,23,24
 700 221 700 221 700 287 c 0,25,26
 700 373 700 373 537 459 c 2,27,-1
 373 546 l 2,28,29
 161 658 161 658 161 825 c 0,30,31
 161 963 161 963 265 1048 c 0,32,33
 355 1120 355 1120 492 1120 c 0,34,35
 625 1120 625 1120 704 1082 c 0,36,37
 735 1067 735 1067 772 1067 c 0,38,39
 826 1067 826 1067 850 1120 c 1,40,-1
 865 1120 l 1,41,-1
 865 749 l 1,42,-1
 850 749 l 1,43,44
 833 856 833 856 766 936 c 0,45,46
 700 1015 700 1015 586 1015 c 0,47,48
 448 1015 448 1015 448 917 c 0,49,50
 448 843 448 843 588 771 c 2,51,-1
 741 692 l 2,52,53
 1000 558 1000 558 1000 349 c 0,54,55
 1000 193 1000 193 870 87 c 0,56,57
 739 -20 739 -20 512 -20 c 0,8,9
EndSplineSet
Validated: 1
EndChar

StartChar: uni1E6A
Encoding: 7786 7786 189
Width: 1529
Flags: W
HStem: 0 15<435 455.586 1074.41 1095> 1390 120<291.695 596.406 933.169 1237.13> 1560 370<645.14 882.86>
VStem: 582 364<1622.58 1867.42> 605 320<96.25 1388.31>
LayerCount: 2
Fore
SplineSet
764 1930 m 128,-1,1
 840 1930 840 1930 893 1876 c 128,-1,2
 946 1822 946 1822 946 1745 c 128,-1,3
 946 1668 946 1668 893 1614 c 128,-1,4
 840 1560 840 1560 764 1560 c 128,-1,5
 688 1560 688 1560 635 1614 c 128,-1,6
 582 1668 582 1668 582 1745 c 128,-1,7
 582 1822 582 1822 635 1876 c 128,-1,0
 688 1930 688 1930 764 1930 c 128,-1,1
435 0 m 1,8,-1
 435 15 l 1,9,10
 605 60 605 60 605 250 c 2,11,-1
 605 1260 l 2,12,13
 605 1336 605 1336 583 1390 c 1,14,-1
 521 1390 l 2,15,16
 248 1390 248 1390 25 1158 c 1,17,-1
 10 1158 l 1,18,-1
 213 1510 l 1,19,-1
 1317 1510 l 1,20,-1
 1519 1158 l 1,21,-1
 1504 1158 l 1,22,23
 1280 1390 1280 1390 1009 1390 c 2,24,-1
 947 1390 l 1,25,26
 925 1339 925 1339 925 1260 c 2,27,-1
 925 250 l 2,28,29
 925 59 925 59 1095 15 c 1,30,-1
 1095 0 l 1,31,-1
 435 0 l 1,8,-1
EndSplineSet
Validated: 1
EndChar

StartChar: uni1E6B
Encoding: 7787 7787 190
Width: 1026
Flags: W
HStem: 0 15<203 223.586 802.414 823> 980 120<247.948 373 653 778.052> 1510 20G<540.5 653> 1560 370<391.14 628.86>
VStem: 328 364<1622.58 1867.42> 373 280<96.75 980 1100 1336.75>
LayerCount: 2
Fore
SplineSet
203 0 m 1,0,-1
 203 15 l 1,1,2
 373 61 373 61 373 250 c 2,3,-1
 373 980 l 1,4,-1
 284 980 l 2,5,6
 147 980 147 980 25 889 c 1,7,-1
 10 889 l 1,8,-1
 207 1209 l 1,9,-1
 222 1209 l 1,10,11
 236 1100 236 1100 373 1100 c 1,12,-1
 373 1240 l 2,13,14
 373 1358 373 1358 203 1391 c 1,15,-1
 203 1406 l 1,16,17
 428 1511 428 1511 653 1530 c 1,18,-1
 653 1100 l 1,19,-1
 742 1100 l 2,20,21
 879 1100 879 1100 1001 1191 c 1,22,-1
 1016 1191 l 1,23,-1
 819 871 l 1,24,-1
 804 871 l 1,25,26
 790 980 790 980 653 980 c 1,27,-1
 653 250 l 2,28,29
 653 59 653 59 823 15 c 1,30,-1
 823 0 l 1,31,-1
 203 0 l 1,0,-1
510 1930 m 128,-1,33
 586 1930 586 1930 639 1876 c 128,-1,34
 692 1822 692 1822 692 1745 c 128,-1,35
 692 1668 692 1668 639 1614 c 128,-1,36
 586 1560 586 1560 510 1560 c 128,-1,37
 434 1560 434 1560 381 1614 c 128,-1,38
 328 1668 328 1668 328 1745 c 128,-1,39
 328 1822 328 1822 381 1876 c 128,-1,32
 434 1930 434 1930 510 1930 c 128,-1,33
EndSplineSet
Validated: 1
EndChar

StartChar: Wgrave
Encoding: 7808 7808 191
Width: 2582
Flags: W
HStem: 1495 15<10 32.9883 690.984 706 2074 2088.53 2548.42 2572>
DStem2: 1162 1510 813 1510 0.466734 -0.884398<0 480.835 640.024 689.853 848.625 1238.51> 1042 422 934 -40 0.460277 -0.887775<-1027.48 0> 1042 422 1290 618 0.459999 0.887919<0 288.112 745.582 1225.04> 1735 412 1646 -40 0.459739 0.888054<0 1034.97>
LayerCount: 2
Fore
SplineSet
934 -40 m 1,0,-1
 260 1260 l 2,1,2
 159 1455 159 1455 10 1495 c 1,3,-1
 10 1510 l 1,4,-1
 706 1510 l 1,5,-1
 706 1495 l 1,6,7
 582 1440 582 1440 582 1342 c 0,8,9
 582 1306 582 1306 604 1264 c 2,10,-1
 1042 422 l 1,11,-1
 1217 759 l 1,12,-1
 813 1510 l 1,13,-1
 1162 1510 l 1,14,-1
 1385 1084 l 1,15,-1
 1605 1510 l 1,16,-1
 1752 1510 l 1,17,-1
 1457 942 l 1,18,-1
 1735 412 l 1,19,-1
 2174 1264 l 2,20,21
 2194 1303 2194 1303 2194 1341 c 0,22,23
 2194 1444 2194 1444 2074 1495 c 1,24,-1
 2074 1510 l 1,25,-1
 2572 1510 l 1,26,-1
 2572 1495 l 1,27,28
 2419 1453 2419 1453 2319 1260 c 2,29,-1
 1646 -40 l 1,30,-1
 1631 -40 l 1,31,-1
 1290 618 l 1,32,-1
 949 -40 l 1,33,-1
 934 -40 l 1,0,-1
1162 1928 m 0,34,35
 1238 1928 1238 1928 1268 1870 c 2,36,-1
 1402 1604 l 1,37,-1
 1382 1580 l 1,38,-1
 1098 1710 l 2,39,40
 1042 1736 1042 1736 1042 1808 c 0,41,42
 1042 1856 1042 1856 1074 1892 c 128,-1,43
 1106 1928 1106 1928 1162 1928 c 0,34,35
EndSplineSet
Validated: 1
EndChar

StartChar: wgrave
Encoding: 7809 7809 192
Width: 2017
Flags: W
HStem: -20 121<513.112 755.402 1213.34 1454.94> 1100 20G<351.5 480 1051.5 1180 1678.69 1833>
VStem: 180 300<133.702 938> 880 300<244.678 938> 1635 312<342.251 800.384>
LayerCount: 2
Fore
SplineSet
846 1508 m 0,0,1
 922 1508 922 1508 952 1450 c 2,2,-1
 1086 1184 l 1,3,-1
 1066 1160 l 1,4,-1
 782 1290 l 2,5,6
 726 1316 726 1316 726 1388 c 0,7,8
 726 1436 726 1436 758 1472 c 128,-1,9
 790 1508 790 1508 846 1508 c 0,0,1
572 -20 m 0,10,11
 180 -20 180 -20 180 265 c 2,12,-1
 180 845 l 2,13,14
 180 958 180 958 10 991 c 1,15,-1
 10 1006 l 1,16,17
 223 1113 223 1113 480 1120 c 1,18,-1
 480 267 l 2,19,20
 480 101 480 101 621 101 c 0,21,22
 715 101 715 101 784 167 c 0,23,24
 880 256 880 256 880 524 c 2,25,-1
 880 845 l 2,26,27
 880 958 880 958 710 991 c 1,28,-1
 710 1006 l 1,29,30
 923 1113 923 1113 1180 1120 c 1,31,-1
 1180 267 l 2,32,33
 1180 101 1180 101 1321 101 c 0,34,35
 1406 101 1406 101 1484 167 c 0,36,37
 1635 294 1635 294 1635 591 c 0,38,39
 1635 810 1635 810 1457 990 c 1,40,-1
 1719 1120 l 1,41,42
 1947 903 1947 903 1947 585 c 0,43,44
 1947 325 1947 325 1780 157 c 0,45,46
 1604 -20 1604 -20 1272 -20 c 0,47,48
 1056 -20 1056 -20 959 66 c 1,49,50
 803 -20 803 -20 572 -20 c 0,10,11
EndSplineSet
Validated: 1
EndChar

StartChar: Wacute
Encoding: 7810 7810 193
Width: 2582
Flags: W
HStem: 1495 15<10 32.9883 690.984 706 2074 2088.53 2548.42 2572>
DStem2: 1162 1510 813 1510 0.466734 -0.884398<0 480.835 640.024 689.853 848.625 1238.51> 1042 422 934 -40 0.460277 -0.887775<-1027.48 0> 1042 422 1290 618 0.459999 0.887919<0 288.112 745.582 1225.04> 1735 412 1646 -40 0.459739 0.888054<0 1034.97>
LayerCount: 2
Fore
SplineSet
934 -40 m 1,0,-1
 260 1260 l 2,1,2
 159 1455 159 1455 10 1495 c 1,3,-1
 10 1510 l 1,4,-1
 706 1510 l 1,5,-1
 706 1495 l 1,6,7
 582 1440 582 1440 582 1342 c 0,8,9
 582 1306 582 1306 604 1264 c 2,10,-1
 1042 422 l 1,11,-1
 1217 759 l 1,12,-1
 813 1510 l 1,13,-1
 1162 1510 l 1,14,-1
 1385 1084 l 1,15,-1
 1605 1510 l 1,16,-1
 1752 1510 l 1,17,-1
 1457 942 l 1,18,-1
 1735 412 l 1,19,-1
 2174 1264 l 2,20,21
 2194 1303 2194 1303 2194 1341 c 0,22,23
 2194 1444 2194 1444 2074 1495 c 1,24,-1
 2074 1510 l 1,25,-1
 2572 1510 l 1,26,-1
 2572 1495 l 1,27,28
 2419 1453 2419 1453 2319 1260 c 2,29,-1
 1646 -40 l 1,30,-1
 1631 -40 l 1,31,-1
 1290 618 l 1,32,-1
 949 -40 l 1,33,-1
 934 -40 l 1,0,-1
1572 1928 m 0,34,35
 1628 1928 1628 1928 1660 1892 c 128,-1,36
 1692 1856 1692 1856 1692 1808 c 0,37,38
 1692 1736 1692 1736 1636 1710 c 2,39,-1
 1352 1580 l 1,40,-1
 1332 1604 l 1,41,-1
 1466 1870 l 2,42,43
 1496 1928 1496 1928 1572 1928 c 0,34,35
EndSplineSet
Validated: 1
EndChar

StartChar: wacute
Encoding: 7811 7811 194
Width: 2017
Flags: W
HStem: -20 121<513.112 755.402 1213.34 1454.94> 1100 20G<351.5 480 1051.5 1180 1678.69 1833>
VStem: 180 300<133.702 938> 880 300<244.678 938> 1635 312<342.251 800.384>
LayerCount: 2
Fore
SplineSet
1191 1508 m 0,0,1
 1247 1508 1247 1508 1279 1472 c 128,-1,2
 1311 1436 1311 1436 1311 1388 c 0,3,4
 1311 1316 1311 1316 1255 1290 c 2,5,6
 971 1160 l 1,7,-1
 951 1184 l 1,8,-1
 1085 1450 l 2,9,10
 1115 1508 1115 1508 1191 1508 c 0,0,1
572 -20 m 0,11,12
 180 -20 180 -20 180 265 c 2,13,-1
 180 845 l 2,14,15
 180 958 180 958 10 991 c 1,16,-1
 10 1006 l 1,17,18
 223 1113 223 1113 480 1120 c 1,19,-1
 480 267 l 2,20,21
 480 101 480 101 621 101 c 0,22,23
 715 101 715 101 784 167 c 0,24,25
 880 256 880 256 880 524 c 2,26,-1
 880 845 l 2,27,28
 880 958 880 958 710 991 c 1,29,-1
 710 1006 l 1,30,31
 923 1113 923 1113 1180 1120 c 1,32,-1
 1180 267 l 2,33,34
 1180 101 1180 101 1321 101 c 0,35,36
 1406 101 1406 101 1484 167 c 0,37,38
 1635 294 1635 294 1635 591 c 0,39,40
 1635 810 1635 810 1457 990 c 1,41,-1
 1719 1120 l 1,42,43
 1947 903 1947 903 1947 585 c 0,44,45
 1947 325 1947 325 1780 157 c 0,46,47
 1604 -20 1604 -20 1272 -20 c 0,48,49
 1056 -20 1056 -20 959 66 c 1,50,51
 803 -20 803 -20 572 -20 c 0,11,12
EndSplineSet
Validated: 1
EndChar

StartChar: Wdieresis
Encoding: 7812 7812 195
Width: 2582
Flags: W
HStem: 1495 15<10 32.9883 690.984 706 2074 2088.53 2548.42 2572> 1590 314<1005.41 1222.59 1353.41 1570.59>
VStem: 959 310<1636.93 1856.56> 1307 310<1636.93 1856.56>
DStem2: 1162 1510 813 1510 0.466734 -0.884398<0 480.835 640.024 689.853 848.625 1238.51> 1042 422 934 -40 0.460277 -0.887775<-1027.48 0> 1042 422 1290 618 0.459999 0.887919<0 288.112 745.582 1225.04> 1735 412 1646 -40 0.459739 0.888054<0 1034.97>
LayerCount: 2
Fore
SplineSet
934 -40 m 1,0,-1
 260 1260 l 2,1,2
 159 1455 159 1455 10 1495 c 1,3,-1
 10 1510 l 1,4,-1
 706 1510 l 1,5,-1
 706 1495 l 1,6,7
 582 1440 582 1440 582 1342 c 0,8,9
 582 1306 582 1306 604 1264 c 2,10,-1
 1042 422 l 1,11,-1
 1217 759 l 1,12,-1
 813 1510 l 1,13,-1
 1162 1510 l 1,14,-1
 1385 1084 l 1,15,-1
 1605 1510 l 1,16,-1
 1752 1510 l 1,17,-1
 1457 942 l 1,18,-1
 1735 412 l 1,19,-1
 2174 1264 l 2,20,21
 2194 1303 2194 1303 2194 1341 c 0,22,23
 2194 1444 2194 1444 2074 1495 c 1,24,-1
 2074 1510 l 1,25,-1
 2572 1510 l 1,26,-1
 2572 1495 l 1,27,28
 2419 1453 2419 1453 2319 1260 c 2,29,-1
 1646 -40 l 1,30,-1
 1631 -40 l 1,31,-1
 1290 618 l 1,32,-1
 949 -40 l 1,33,-1
 934 -40 l 1,0,-1
1462 1904 m 128,-1,35
 1527 1904 1527 1904 1572 1858 c 128,-1,36
 1617 1812 1617 1812 1617 1746.5 c 128,-1,37
 1617 1681 1617 1681 1572 1635.5 c 128,-1,38
 1527 1590 1527 1590 1462 1590 c 128,-1,39
 1397 1590 1397 1590 1352 1635.5 c 128,-1,40
 1307 1681 1307 1681 1307 1746.5 c 128,-1,41
 1307 1812 1307 1812 1352 1858 c 128,-1,34
 1397 1904 1397 1904 1462 1904 c 128,-1,35
1114 1904 m 128,-1,43
 1179 1904 1179 1904 1224 1858 c 128,-1,44
 1269 1812 1269 1812 1269 1746.5 c 128,-1,45
 1269 1681 1269 1681 1224 1635.5 c 128,-1,46
 1179 1590 1179 1590 1114 1590 c 128,-1,47
 1049 1590 1049 1590 1004 1635.5 c 128,-1,48
 959 1681 959 1681 959 1746.5 c 128,-1,49
 959 1812 959 1812 1004 1858 c 128,-1,42
 1049 1904 1049 1904 1114 1904 c 128,-1,43
EndSplineSet
Validated: 1
EndChar

StartChar: wdieresis
Encoding: 7813 7813 196
Width: 2017
Flags: W
HStem: -20 121<513.112 755.402 1213.34 1454.94> 1100 20G<351.5 480 1051.5 1180 1678.69 1833> 1170 314<716.411 933.589 1064.41 1281.59>
VStem: 180 300<133.702 938> 670 310<1216.93 1436.56> 880 300<244.678 938> 1018 310<1216.93 1436.56> 1635 312<342.251 800.384>
LayerCount: 2
Fore
SplineSet
1173 1484 m 128,-1,1
 1238 1484 1238 1484 1283 1438 c 128,-1,2
 1328 1392 1328 1392 1328 1326.5 c 128,-1,3
 1328 1261 1328 1261 1283 1215.5 c 128,-1,4
 1238 1170 1238 1170 1173 1170 c 128,-1,5
 1108 1170 1108 1170 1063 1215.5 c 128,-1,6
 1018 1261 1018 1261 1018 1326.5 c 128,-1,7
 1018 1392 1018 1392 1063 1438 c 128,-1,0
 1108 1484 1108 1484 1173 1484 c 128,-1,1
825 1484 m 128,-1,9
 890 1484 890 1484 935 1438 c 128,-1,10
 980 1392 980 1392 980 1326.5 c 128,-1,11
 980 1261 980 1261 935 1215.5 c 128,-1,12
 890 1170 890 1170 825 1170 c 128,-1,13
 760 1170 760 1170 715 1215.5 c 128,-1,14
 670 1261 670 1261 670 1326.5 c 128,-1,15
 670 1392 670 1392 715 1438 c 128,-1,8
 760 1484 760 1484 825 1484 c 128,-1,9
572 -20 m 0,16,17
 180 -20 180 -20 180 265 c 2,18,-1
 180 845 l 2,19,20
 180 958 180 958 10 991 c 1,21,-1
 10 1006 l 1,22,23
 223 1113 223 1113 480 1120 c 1,24,-1
 480 267 l 2,25,26
 480 101 480 101 621 101 c 0,27,28
 715 101 715 101 784 167 c 0,29,30
 880 256 880 256 880 524 c 2,31,-1
 880 845 l 2,32,33
 880 958 880 958 710 991 c 1,34,-1
 710 1006 l 1,35,36
 923 1113 923 1113 1180 1120 c 1,37,-1
 1180 267 l 2,38,39
 1180 101 1180 101 1321 101 c 0,40,41
 1406 101 1406 101 1484 167 c 0,42,43
 1635 294 1635 294 1635 591 c 0,44,45
 1635 810 1635 810 1457 990 c 1,46,-1
 1719 1120 l 1,47,48
 1947 903 1947 903 1947 585 c 0,49,50
 1947 325 1947 325 1780 157 c 0,51,52
 1604 -20 1604 -20 1272 -20 c 0,53,54
 1056 -20 1056 -20 959 66 c 1,55,56
 803 -20 803 -20 572 -20 c 0,16,17
EndSplineSet
Validated: 1
EndChar

StartChar: Ygrave
Encoding: 7922 7922 197
Width: 1777
Flags: W
HStem: 0 15<559 584.375 1191.63 1217> 1495 15<10 29.9258 680.484 697 1266 1282.82 1751.57 1767>
VStem: 728 320<94.25 510>
DStem2: 983 654 728 511 0.512471 -0.858704<-807.245 -7.88541> 983 654 1048 510 0.511967 0.859005<0 807.577>
LayerCount: 2
Fore
SplineSet
559 0 m 1,0,-1
 559 15 l 1,1,2
 728 57 728 57 728 250 c 2,3,-1
 728 511 l 1,4,-1
 281 1260 l 2,5,6
 171 1444 171 1444 10 1495 c 1,7,-1
 10 1510 l 1,8,-1
 697 1510 l 1,9,-1
 697 1495 l 1,10,11
 587 1457 587 1457 587 1359 c 0,12,13
 587 1319 587 1319 619 1265 c 2,14,-1
 983 654 l 1,15,-1
 1346 1265 l 2,16,17
 1378 1319 1378 1319 1378 1360 c 0,18,19
 1378 1456 1378 1456 1266 1495 c 1,20,-1
 1266 1510 l 1,21,-1
 1767 1510 l 1,22,-1
 1767 1495 l 1,23,24
 1601 1438 1601 1438 1495 1260 c 2,25,-1
 1048 510 l 1,26,-1
 1048 250 l 2,27,28
 1048 56 1048 56 1217 15 c 1,29,-1
 1217 0 l 1,30,-1
 559 0 l 1,0,-1
771 1928 m 0,31,32
 847 1928 847 1928 877 1870 c 2,33,-1
 1011 1604 l 1,34,-1
 991 1580 l 1,35,-1
 707 1710 l 2,36,37
 651 1736 651 1736 651 1808 c 0,38,39
 651 1856 651 1856 683 1892 c 128,-1,40
 715 1928 715 1928 771 1928 c 0,31,32
EndSplineSet
Validated: 1
EndChar

StartChar: ygrave
Encoding: 7923 7923 198
Width: 1365
Flags: W
HStem: -430 121<405.761 760.39> -40 20G<248 271.5> -20 121<640.151 881.891> 1100 20G<353 485 1081 1205>
VStem: 180 305<302.701 938.5> 248 15<-57.6138 -20> 915 290<-117.366 -13 151.412 938.5>
LayerCount: 2
Fore
SplineSet
844 -20 m 0,0,1
 507 -20 507 -20 325 153 c 0,2,3
 180 291 180 291 180 549 c 2,4,-1
 180 845 l 2,5,6
 180 959 180 959 10 991 c 1,7,-1
 10 1006 l 1,8,9
 221 1112 221 1112 485 1120 c 1,10,-1
 485 552 l 2,11,12
 485 361 485 361 558 239 c 0,13,14
 641 101 641 101 777 101 c 0,15,16
 852 101 852 101 885 150 c 0,17,18
 915 195 915 195 915 262 c 2,19,-1
 915 845 l 2,20,21
 915 959 915 959 745 991 c 1,22,-1
 745 1006 l 1,23,24
 957 1112 957 1112 1205 1120 c 1,25,-1
 1205 134 l 2,26,27
 1205 -130 1205 -130 1060 -269 c 0,28,29
 892 -430 892 -430 561 -430 c 0,30,31
 409 -430 409 -430 248 -384 c 1,32,-1
 248 -20 l 1,33,-1
 263 -20 l 1,34,35
 280 -132 280 -132 349 -214 c 0,36,37
 428 -309 428 -309 572.5 -309 c 128,-1,38
 717 -309 717 -309 790 -243 c 0,39,40
 889 -154 889 -154 915 -13 c 1,41,42
 880 -20 880 -20 844 -20 c 0,0,1
526 1508 m 0,43,44
 602 1508 602 1508 632 1450 c 2,45,-1
 766 1184 l 1,46,-1
 746 1160 l 1,47,-1
 462 1290 l 2,48,49
 406 1316 406 1316 406 1388 c 0,50,51
 406 1436 406 1436 438 1472 c 128,-1,52
 470 1508 470 1508 526 1508 c 0,43,44
EndSplineSet
Validated: 1
EndChar

StartChar: ae
Encoding: 230 230 199
Width: 1735
Flags: W
HStem: -20 119<455.08 677.004 1043.69 1380.57> 581 122<517.938 712> 999 121<357.238 646.446 1007.57 1260.44>
VStem: 70 317<168.489 454.489> 183 15<714 731.023> 712 290<149.473 358 500 581 703 931.48> 1345 320<625.636 887.995>
DStem2: 1002 500 1002 358 0.954907 0.296904<0 342.446>
LayerCount: 2
Fore
SplineSet
712 581 m 1,0,1
 544 570 544 570 479 510 c 0,2,3
 387 426 387 426 387 314 c 0,4,5
 387 197 387 197 462 137 c 0,6,7
 510 99 510 99 580 99 c 128,-1,8
 650 99 650 99 681 148 c 0,9,10
 712 195 712 195 712 260 c 2,11,-1
 712 581 l 1,0,1
586 -20 m 0,12,13
 321 -20 321 -20 195 72 c 0,14,15
 70 164 70 164 70 321 c 0,16,17
 70 480 70 480 219 586 c 0,18,19
 371 694 371 694 712 703 c 1,20,-1
 712 780 l 2,21,22
 712 898 712 898 646 955 c 0,23,24
 595 999 595 999 512 999 c 0,25,26
 400 999 400 999 330 932 c 0,27,28
 248 852 248 852 198 714 c 1,29,-1
 183 714 l 1,30,-1
 183 1013 l 1,31,32
 346 1120 346 1120 552 1120 c 0,33,34
 741 1120 741 1120 852 1053 c 1,35,36
 983 1120 983 1120 1146 1120 c 0,37,38
 1417 1120 1417 1120 1551 981 c 0,39,40
 1665 863 1665 863 1665 715 c 0,41,42
 1665 564 1665 564 1478 506 c 2,43,-1
 1002 358 l 1,44,-1
 1002 174 l 1,45,46
 1082 101 1082 101 1215 101 c 0,47,48
 1345 101 1345 101 1453 194 c 0,49,50
 1538 266 1538 266 1622 403 c 1,51,-1
 1622 190 l 1,52,53
 1472 -20 1472 -20 1186 -20 c 0,54,55
 1041 -20 1041 -20 928 16 c 1,56,57
 769 -20 769 -20 586 -20 c 0,12,13
1002 500 m 1,58,-1
 1192 558 l 2,59,60
 1345 605 1345 605 1345 758 c 0,61,62
 1345 861 1345 861 1293 924 c 0,63,64
 1232 999 1232 999 1143 999 c 0,65,66
 1060 999 1060 999 1002 951 c 1,67,-1
 1002 500 l 1,58,-1
EndSplineSet
Validated: 1
EndChar

StartChar: dcroat
Encoding: 273 273 200
Width: 1300
Flags: W
HStem: -20 121<554.724 796.503> 489 121<659 830 1120 1223> 999 121<554.847 814.441> 1510 20G<1002.5 1120>
VStem: 70 330<320.016 784.33> 830 290<170 489 610 948.742 1118 1336.75>
LayerCount: 2
Fore
SplineSet
591 489 m 1,0,-1
 659 610 l 1,1,-1
 830 610 l 1,2,-1
 830 838 l 2,3,4
 830 910 830 910 803 950 c 0,5,6
 770 999 770 999 699 999 c 0,7,8
 554 999 554 999 472 862 c 0,9,10
 400 742 400 742 400 550 c 128,-1,11
 400 358 400 358 472 238 c 0,12,13
 554 101 554 101 699 101 c 0,14,15
 770 101 770 101 803 150 c 0,16,17
 830 190 830 190 830 262 c 2,18,-1
 830 489 l 1,19,-1
 591 489 l 1,0,-1
759 -20 m 0,20,21
 419 -20 419 -20 244 138 c 0,22,23
 70 296 70 296 70 550 c 0,24,25
 70 805 70 805 234 952 c 0,26,27
 422 1120 422 1120 759 1120 c 0,28,29
 800 1120 800 1120 830 1118 c 1,30,-1
 830 1240 l 2,31,32
 830 1358 830 1358 660 1391 c 1,33,-1
 660 1406 l 1,34,35
 885 1511 885 1511 1120 1530 c 1,36,-1
 1120 610 l 1,37,-1
 1290 610 l 1,38,-1
 1223 490 l 1,39,-1
 1120 490 l 1,40,-1
 1120 263 l 2,41,42
 1120 150 1120 150 1290 117 c 1,43,-1
 1290 102 l 1,44,45
 1033 -20 1033 -20 759 -20 c 0,20,21
EndSplineSet
Validated: 1
EndChar

StartChar: longs
Encoding: 383 383 201
Width: 1277
Flags: W
HStem: 0 15<205 225.586 809.475 835> 621 120<246.656 375> 1409 121<700.199 996.743>
VStem: 375 290<97.25 621 741 1339> 1242 15<995 1015.17>
LayerCount: 2
Fore
SplineSet
205 0 m 1,0,-1
 205 15 l 1,1,2
 375 62 375 62 375 250 c 2,3,-1
 375 621 l 1,4,-1
 284 621 l 2,5,6
 147 621 147 621 25 530 c 1,7,-1
 10 530 l 1,8,-1
 207 850 l 1,9,-1
 222 850 l 1,10,11
 236 741 236 741 363 741 c 2,12,-1
 375 741 l 1,13,-1
 375 1247 l 2,14,15
 375 1358 375 1358 205 1393 c 1,16,-1
 205 1408 l 1,17,18
 465 1530 465 1530 736 1530 c 0,19,20
 1044 1530 1044 1530 1257 1353 c 1,21,-1
 1257 995 l 1,22,-1
 1242 995 l 1,23,24
 1189 1158 1189 1158 1105 1268 c 0,25,26
 997 1409 997 1409 823 1409 c 0,27,28
 728 1409 728 1409 695 1360 c 0,29,30
 665 1315 665 1315 665 1248 c 2,31,-1
 665 250 l 2,32,33
 665 54 665 54 835 15 c 1,34,-1
 835 0 l 1,35,-1
 205 0 l 1,0,-1
EndSplineSet
Validated: 1
EndChar

StartChar: florin
Encoding: 402 402 202
Width: 1082
Flags: W
HStem: -430 21G<-50 210> 639 120<470 681.344> 1409 121<505.199 801.743>
VStem: 180 290<-207.861 639 759 1339> 1047 15<995 1015.17>
LayerCount: 2
Fore
SplineSet
-50 -430 m 1,0,-1
 -50 -415 l 1,1,2
 180 -289 180 -289 180 0 c 2,3,-1
 180 1247 l 2,4,5
 180 1358 180 1358 10 1393 c 1,6,-1
 10 1408 l 1,7,8
 270 1530 270 1530 541 1530 c 0,9,10
 849 1530 849 1530 1062 1353 c 1,11,-1
 1062 995 l 1,12,-1
 1047 995 l 1,13,14
 994 1158 994 1158 910 1268 c 0,15,16
 802 1409 802 1409 628 1409 c 0,17,18
 533 1409 533 1409 500 1360 c 0,19,20
 470 1315 470 1315 470 1248 c 2,21,-1
 470 759 l 1,22,-1
 644 759 l 2,23,24
 781 759 781 759 903 850 c 1,25,-1
 918 850 l 1,26,-1
 721 530 l 1,27,-1
 706 530 l 1,28,29
 692 639 692 639 565 639 c 2,30,-1
 470 639 l 1,31,-1
 470 0 l 2,32,33
 470 -430 470 -430 -50 -430 c 1,0,-1
EndSplineSet
Validated: 1
EndChar

StartChar: hbar
Encoding: 295 295 203
Width: 1385
Flags: W
HStem: -20 21G<900 1032> 0 15<10 30.5859 619.414 640> 489 120<78 180 470 651> 999 121<487.063 744.849> 1510 20G<352.5 470>
VStem: 180 290<97.25 488 609 948.588 1118 1336.75> 900 305<161.5 797.299>
LayerCount: 2
Fore
SplineSet
10 0 m 1,0,-1
 10 15 l 1,1,2
 180 62 180 62 180 250 c 2,3,-1
 180 488 l 1,4,-1
 10 488 l 1,5,-1
 78 609 l 1,6,-1
 180 609 l 1,7,-1
 180 1240 l 2,8,9
 180 1358 180 1358 10 1391 c 1,10,-1
 10 1406 l 1,11,12
 235 1511 235 1511 470 1530 c 1,13,-1
 470 1118 l 1,14,15
 500 1120 500 1120 541 1120 c 0,16,17
 878 1120 878 1120 1060 947 c 0,18,19
 1205 809 1205 809 1205 551 c 2,20,-1
 1205 255 l 2,21,22
 1205 141 1205 141 1375 109 c 1,23,-1
 1375 94 l 1,24,25
 1164 -12 1164 -12 900 -20 c 1,26,-1
 900 548 l 2,27,28
 900 739 900 739 827 861 c 0,29,30
 744 999 744 999 608 999 c 0,31,32
 533 999 533 999 500 950 c 0,33,34
 470 905 470 905 470 838 c 2,35,-1
 470 609 l 1,36,-1
 718 609 l 1,37,-1
 651 489 l 1,38,-1
 470 489 l 1,39,-1
 470 250 l 2,40,41
 470 59 470 59 640 15 c 1,42,-1
 640 0 l 1,43,-1
 10 0 l 1,0,-1
EndSplineSet
Validated: 1
EndChar

StartChar: kgreenlandic
Encoding: 312 312 204
Width: 1387
Flags: W
HStem: 0 15<10 30.5859 593.047 610 677 692.916 1359.46 1377> 1085 15<742 762.885 1235.96 1251> 1100 20G<352.5 470>
VStem: 180 290<96.25 249 449 925.75>
DStem2: 470 449 628 438 0.625644 0.780108<0 90.2706 258.312 650.009>
LayerCount: 2
Fore
SplineSet
10 0 m 1,0,-1
 10 15 l 1,1,2
 180 60 180 60 180 250 c 2,3,-1
 180 830 l 2,4,5
 180 946 180 946 10 981 c 1,6,-1
 10 996 l 1,7,8
 235 1101 235 1101 470 1120 c 1,9,-1
 470 449 l 1,10,-1
 795 863 l 2,11,12
 843 924 843 924 843 985 c 0,13,14
 843 1054 843 1054 742 1085 c 1,15,-1
 742 1100 l 1,16,-1
 1251 1100 l 1,17,-1
 1251 1085 l 1,18,19
 1090 1026 1090 1026 952 850 c 2,20,-1
 732 570 l 1,21,-1
 878 570 l 1,22,-1
 1082 251 l 2,23,24
 1188 85 1188 85 1377 15 c 1,25,-1
 1377 0 l 1,26,-1
 677 0 l 1,27,-1
 677 15 l 1,28,29
 783 57 783 57 783 157 c 0,30,31
 783 197 783 197 750 248 c 2,32,-1
 628 438 l 1,33,-1
 470 249 l 1,34,35
 470 59 470 59 610 15 c 1,36,-1
 610 0 l 1,37,-1
 10 0 l 1,0,-1
EndSplineSet
Validated: 1
EndChar

StartChar: lslash
Encoding: 322 322 205
Width: 730
Flags: W
HStem: 0 15<50 70.5859 659.414 680> 1510 20G<392.5 510>
VStem: 220 290<96.75 531 689 784 941 1336.75>
DStem2: 55 550 81 414 0.759347 0.650686<0 112.929 599.921 713.501>
LayerCount: 2
Fore
SplineSet
50 0 m 1,0,-1
 50 15 l 1,1,2
 220 61 220 61 220 250 c 2,3,-1
 220 531 l 1,4,-1
 81 414 l 1,5,-1
 55 550 l 1,6,-1
 220 689 l 1,7,-1
 220 1240 l 2,8,9
 220 1358 220 1358 50 1391 c 1,10,-1
 50 1406 l 1,11,12
 275 1511 275 1511 510 1530 c 1,13,-1
 510 941 l 1,14,-1
 649 1058 l 1,15,-1
 675 923 l 1,16,-1
 510 784 l 1,17,-1
 510 250 l 2,18,19
 510 59 510 59 680 15 c 1,20,-1
 680 0 l 1,21,-1
 50 0 l 1,0,-1
EndSplineSet
Validated: 1
EndChar

StartChar: eng
Encoding: 331 331 206
Width: 1335
Flags: W
HStem: -430 21G<670 937.5> 0 15<10 30.5859 614.475 640> 999 121<505.177 744.849>
VStem: 180 290<97.25 929> 900 305<-207.861 797.299>
LayerCount: 2
Fore
SplineSet
10 0 m 1,0,-1
 10 15 l 1,1,2
 180 62 180 62 180 250 c 2,3,-1
 180 837 l 2,4,5
 180 948 180 948 10 983 c 1,6,-1
 10 998 l 1,7,8
 270 1120 270 1120 541 1120 c 0,9,10
 878 1120 878 1120 1060 947 c 0,11,12
 1205 809 1205 809 1205 551 c 2,13,-1
 1205 0 l 2,14,15
 1205 -430 1205 -430 670 -430 c 1,16,-1
 670 -415 l 1,17,18
 900 -289 900 -289 900 0 c 2,19,-1
 900 548 l 2,20,21
 900 738 900 738 827 861 c 0,22,23
 744 999 744 999 608 999 c 0,24,25
 533 999 533 999 500 950 c 0,26,27
 470 905 470 905 470 838 c 2,28,-1
 470 250 l 2,29,30
 470 54 470 54 640 15 c 1,31,-1
 640 0 l 1,32,-1
 10 0 l 1,0,-1
EndSplineSet
Validated: 1
EndChar

StartChar: eth
Encoding: 240 240 207
Width: 1342
Flags: W
HStem: -20 121<527.951 774.049> 999 121<529.558 774.662> 1430 120<540.053 584.461>
VStem: 70 330<308.884 791.116> 902 330<310.018 828.572>
DStem2: 517 1328 495 1191 0.939389 0.342854<0 115.765 454.034 582.785>
LayerCount: 2
Fore
SplineSet
651 -20 m 128,-1,1
 409 -20 409 -20 247 123 c 0,2,3
 70 279 70 279 70 550 c 0,4,5
 71 821 71 821 247 977 c 0,6,7
 409 1120 409 1120 632 1120 c 0,8,9
 795 1120 795 1120 914 1022 c 1,10,11
 872 1166 872 1166 789 1249 c 0,12,13
 771 1268 771 1268 751 1284 c 1,14,-1
 495 1191 l 1,15,-1
 517 1328 l 1,16,-1
 626 1367 l 1,17,18
 547 1407 547 1407 452 1430 c 1,19,-1
 552 1550 l 1,20,21
 727 1526 727 1526 862 1453 c 1,22,-1
 1128 1550 l 1,23,-1
 1106 1414 l 1,24,-1
 985 1370 l 1,25,26
 1232 1161 1232 1161 1232 754 c 2,27,-1
 1232 550 l 2,28,29
 1232 279 1232 279 1055 123 c 0,30,0
 893 -20 893 -20 651 -20 c 128,-1,1
651 101 m 128,-1,32
 767 101 767 101 834 218 c 0,33,34
 902 335 902 335 902 550 c 128,-1,35
 902 765 902 765 834 882 c 0,36,37
 767 999 767 999 651 999 c 0,38,39
 536 999 536 999 468 882 c 128,-1,40
 400 765 400 765 400 550 c 128,-1,41
 400 335 400 335 468 218 c 0,42,31
 535 101 535 101 651 101 c 128,-1,32
EndSplineSet
Validated: 1
EndChar

StartChar: oslash
Encoding: 248 248 208
Width: 1402
Flags: W
HStem: -20 121<614.618 824.049> 999 121<578.189 786.468>
VStem: 120 330<307.617 793.709> 952 330<308.884 792.619>
DStem2: 443 30 547 -60 0.342348 0.939573<-48.9573 4.52716 208.463 946.284 1149.41 1202.42>
LayerCount: 2
Fore
SplineSet
701 -20 m 0,0,1
 630 -20 630 -20 566 -8 c 1,2,-1
 547 -60 l 1,3,-1
 401 -86 l 1,4,-1
 443 30 l 1,5,6
 364 65 364 65 297 123 c 0,7,8
 120 279 120 279 120 550 c 0,9,10
 120 822 120 822 297 977 c 0,11,12
 459 1120 459 1120 701 1120 c 0,13,14
 771 1120 771 1120 835 1108 c 1,15,-1
 854 1160 l 1,16,-1
 1001 1186 l 1,17,-1
 959 1070 l 1,18,19
 1039 1035 1039 1035 1105 977 c 0,20,21
 1282 821 1282 821 1282 550 c 128,-1,22
 1282 279 1282 279 1105 123 c 0,23,24
 943 -20 943 -20 701 -20 c 0,0,1
701 101 m 0,25,26
 817 101 817 101 884 218 c 0,27,28
 952 335 952 335 952 550 c 0,29,30
 952 758 952 758 888 875 c 1,31,-1
 613 121 l 1,32,33
 653 101 653 101 701 101 c 0,25,26
514 226 m 1,34,-1
 788 979 l 1,35,36
 749 999 749 999 701 999 c 0,37,38
 586 999 586 999 518 882 c 128,-1,39
 450 765 450 765 450 550 c 0,40,41
 450 342 450 342 514 226 c 1,34,-1
EndSplineSet
Validated: 1
EndChar

StartChar: oe
Encoding: 339 339 209
Width: 1891
Flags: W
HStem: -20 121<527.951 773.466 1200.46 1538.36> 999 121<528.189 773.75 1169.4 1416.44>
VStem: 70 330<308.884 793.709> 902 330<522 789.982> 1501 320<626.106 887.995>
DStem2: 1232 522 1210 373 0.954159 0.2993<0 262.492>
LayerCount: 2
Fore
SplineSet
651 101 m 128,-1,1
 767 101 767 101 834 218 c 0,2,3
 902 335 902 335 902 550 c 128,-1,4
 902 765 902 765 834 882 c 0,5,6
 767 999 767 999 651 999 c 0,7,8
 536 999 536 999 468 882 c 128,-1,9
 400 765 400 765 400 550 c 128,-1,10
 400 335 400 335 468 218 c 0,11,0
 535 101 535 101 651 101 c 128,-1,1
651 -20 m 0,12,13
 409 -20 409 -20 247 123 c 0,14,15
 70 279 70 279 70 550 c 0,16,17
 70 822 70 822 247 977 c 0,18,19
 409 1120 409 1120 651 1120 c 0,20,21
 837 1120 837 1120 976 1035 c 1,22,23
 1118 1120 1118 1120 1302 1120 c 0,24,25
 1573 1120 1573 1120 1707 981 c 0,26,27
 1821 863 1821 863 1821 715 c 0,28,29
 1821 565 1821 565 1634 506 c 2,30,-1
 1210 373 l 1,31,32
 1185 281 1185 281 1132 207 c 1,33,34
 1216 101 1216 101 1371 101 c 0,35,36
 1501 101 1501 101 1609 194 c 0,37,38
 1694 266 1694 266 1778 403 c 1,39,-1
 1778 190 l 1,40,41
 1628 -20 1628 -20 1342 -20 c 0,42,43
 1122 -20 1122 -20 975 64 c 1,44,45
 836 -20 836 -20 651 -20 c 0,12,13
1232 522 m 1,46,-1
 1348 558 l 2,47,48
 1501 606 1501 606 1501 758 c 0,49,50
 1501 861 1501 861 1449 924 c 0,51,52
 1388 999 1388 999 1299 999 c 0,53,54
 1192 999 1192 999 1121 907 c 1,55,56
 1232 765 1232 765 1232 550 c 0,57,58
 1232 536 1232 536 1232 522 c 1,46,-1
EndSplineSet
Validated: 1
EndChar

StartChar: tbar
Encoding: 359 359 210
Width: 1026
Flags: W
HStem: 0 15<203 223.586 802.414 823> 486 121<227 373 653 800> 980 120<247.948 373 653 778.052> 1510 20G<540.5 653>
VStem: 373 280<96.75 486 607 980 1100 1336.75>
LayerCount: 2
Fore
SplineSet
203 0 m 1,0,-1
 203 15 l 1,1,2
 373 61 373 61 373 250 c 2,3,-1
 373 486 l 1,4,-1
 159 486 l 1,5,-1
 227 607 l 1,6,-1
 373 607 l 1,7,-1
 373 980 l 1,8,-1
 284 980 l 2,9,10
 147 980 147 980 25 889 c 1,11,-1
 10 889 l 1,12,-1
 207 1209 l 1,13,-1
 222 1209 l 1,14,15
 236 1100 236 1100 373 1100 c 1,16,-1
 373 1240 l 2,17,18
 373 1358 373 1358 203 1391 c 1,19,-1
 203 1406 l 1,20,21
 428 1511 428 1511 653 1530 c 1,22,-1
 653 1100 l 1,23,-1
 742 1100 l 2,24,25
 879 1100 879 1100 1001 1191 c 1,26,-1
 1016 1191 l 1,27,-1
 819 871 l 1,28,-1
 804 871 l 1,29,30
 790 980 790 980 653 980 c 1,31,-1
 653 607 l 1,32,-1
 867 607 l 1,33,-1
 800 487 l 1,34,-1
 653 487 l 1,35,-1
 653 250 l 2,36,37
 653 59 653 59 823 15 c 1,38,-1
 823 0 l 1,39,-1
 203 0 l 1,0,-1
EndSplineSet
Validated: 1
EndChar

StartChar: thorn
Encoding: 254 254 211
Width: 1300
Flags: W
HStem: -410 15<10 30.5859 619.414 640> -20 121<485.559 745.153> 999 121<485.559 745.276> 1510 20G<352.5 470>
VStem: 180 290<-313.25 -18 151.258 948.742 1118 1336.75> 900 330<315.67 779.984>
LayerCount: 2
Fore
SplineSet
601 999 m 0,0,1
 530 999 530 999 497 950 c 0,2,3
 470 910 470 910 470 838 c 2,4,-1
 470 262 l 2,5,6
 470 190 470 190 497 150 c 0,7,8
 530 101 530 101 601 101 c 0,9,10
 746 101 746 101 828 238 c 0,11,12
 900 358 900 358 900 550 c 128,-1,13
 900 742 900 742 828 862 c 0,14,15
 746 999 746 999 601 999 c 0,0,1
10 -410 m 1,16,-1
 10 -395 l 1,17,18
 180 -349 180 -349 180 -160 c 2,19,-1
 180 1240 l 2,20,21
 180 1358 180 1358 10 1391 c 1,22,-1
 10 1406 l 1,23,24
 235 1511 235 1511 470 1530 c 1,25,-1
 470 1118 l 1,26,27
 500 1120 500 1120 541 1120 c 0,28,29
 881 1120 881 1120 1056 962 c 0,30,31
 1230 804 1230 804 1230 550 c 0,32,33
 1230 295 1230 295 1066 148 c 0,34,35
 878 -20 878 -20 541 -20 c 0,36,37
 500 -20 500 -20 470 -18 c 1,38,-1
 470 -160 l 2,39,40
 470 -351 470 -351 640 -395 c 1,41,-1
 640 -410 l 1,42,-1
 10 -410 l 1,16,-1
EndSplineSet
Validated: 1
EndChar

StartChar: Thorn
Encoding: 222 222 212
Width: 1385
Flags: W
HStem: 0 15<10 30.5859 639.414 660> 239 110<540.22 804.977> 1157 122<540.22 804.977> 1495 15<10 30.5859 640.234 660>
VStem: 180 310<96.25 242 397.352 1108.65 1276 1414.25> 971 344<553.635 963.523>
LayerCount: 2
Fore
SplineSet
10 0 m 1,0,-1
 10 15 l 1,1,2
 180 60 180 60 180 250 c 2,3,-1
 180 1260 l 2,4,5
 180 1451 180 1451 10 1495 c 1,6,-1
 10 1510 l 1,7,-1
 660 1510 l 1,8,-1
 660 1495 l 1,9,10
 497 1452 497 1452 490 1276 c 1,11,12
 537 1279 537 1279 594 1279 c 0,13,14
 960 1279 960 1279 1144 1126 c 0,15,16
 1315 984 1315 984 1315 759 c 128,-1,17
 1315 534 1315 534 1144 392 c 0,18,19
 960 239 960 239 594 239 c 0,20,21
 537 239 537 239 490 242 c 1,22,23
 490 59 490 59 660 15 c 1,24,-1
 660 0 l 1,25,-1
 10 0 l 1,0,-1
676 349 m 0,26,27
 769 349 769 349 838 415 c 0,28,29
 971 542 971 542 971 753 c 128,-1,30
 971 964 971 964 838 1091 c 0,31,32
 769 1157 769 1157 676 1157 c 0,33,34
 603 1157 603 1157 558 1127 c 0,35,36
 490 1082 490 1082 490 995 c 2,37,-1
 490 511 l 2,38,39
 490 424 490 424 558 379 c 0,40,41
 603 349 603 349 676 349 c 0,26,27
EndSplineSet
Validated: 1
EndChar

